<mxfile host="65bd71144e">
    <diagram id="k15tZUnYU5kj8tgebTrL" name="Page-1">
        <mxGraphModel dx="1974" dy="599" grid="1" gridSize="10" guides="1" tooltips="1" connect="1" arrows="1" fold="1" page="1" pageScale="1" pageWidth="850" pageHeight="1100" math="0" shadow="0">
            <root>
                <mxCell id="0"/>
                <mxCell id="1" parent="0"/>
                <mxCell id="JANOWUxKP03fAEAvI6Rn-6" style="rounded=1;orthogonalLoop=1;jettySize=auto;html=1;exitX=1;exitY=0.5;exitDx=0;exitDy=0;entryX=0;entryY=0;entryDx=0;entryDy=0;fontSize=24;strokeColor=#d6b656;endArrow=none;endFill=0;fillColor=#fff2cc;strokeWidth=7;" parent="1" source="JANOWUxKP03fAEAvI6Rn-2" target="JANOWUxKP03fAEAvI6Rn-4" edge="1">
                    <mxGeometry relative="1" as="geometry"/>
                </mxCell>
                <mxCell id="JANOWUxKP03fAEAvI6Rn-20" style="edgeStyle=none;rounded=1;orthogonalLoop=1;jettySize=auto;html=1;exitX=0;exitY=0.5;exitDx=0;exitDy=0;fontSize=24;endArrow=none;endFill=0;strokeColor=#C73500;strokeWidth=7;fillColor=#fa6800;" parent="1" source="JANOWUxKP03fAEAvI6Rn-2" target="JANOWUxKP03fAEAvI6Rn-3" edge="1">
                    <mxGeometry relative="1" as="geometry"/>
                </mxCell>
                <mxCell id="JANOWUxKP03fAEAvI6Rn-2" value="0,0" style="ellipse;whiteSpace=wrap;html=1;aspect=fixed;fontSize=24;fillColor=#fff2cc;strokeColor=#d6b656;" parent="1" vertex="1">
                    <mxGeometry x="270" y="70" width="80" height="80" as="geometry"/>
                </mxCell>
                <mxCell id="JANOWUxKP03fAEAvI6Rn-57" style="edgeStyle=none;rounded=1;orthogonalLoop=1;jettySize=auto;html=1;exitX=0;exitY=1;exitDx=0;exitDy=0;fontSize=24;endArrow=none;endFill=0;strokeColor=#C73500;strokeWidth=7;fillColor=#fa6800;" parent="1" source="JANOWUxKP03fAEAvI6Rn-3" target="JANOWUxKP03fAEAvI6Rn-55" edge="1">
                    <mxGeometry relative="1" as="geometry"/>
                </mxCell>
                <mxCell id="JANOWUxKP03fAEAvI6Rn-59" style="edgeStyle=none;rounded=1;orthogonalLoop=1;jettySize=auto;html=1;exitX=1;exitY=1;exitDx=0;exitDy=0;entryX=0;entryY=0;entryDx=0;entryDy=0;fontSize=24;endArrow=none;endFill=0;strokeColor=#000000;strokeWidth=7;" parent="1" source="JANOWUxKP03fAEAvI6Rn-3" target="JANOWUxKP03fAEAvI6Rn-56" edge="1">
                    <mxGeometry relative="1" as="geometry"/>
                </mxCell>
                <mxCell id="JANOWUxKP03fAEAvI6Rn-3" value="1,0" style="ellipse;whiteSpace=wrap;html=1;aspect=fixed;fontSize=24;fillColor=#fff2cc;strokeColor=#d6b656;" parent="1" vertex="1">
                    <mxGeometry x="80" y="150" width="80" height="80" as="geometry"/>
                </mxCell>
                <mxCell id="JANOWUxKP03fAEAvI6Rn-18" style="edgeStyle=none;rounded=1;orthogonalLoop=1;jettySize=auto;html=1;exitX=1;exitY=1;exitDx=0;exitDy=0;entryX=0.5;entryY=0;entryDx=0;entryDy=0;fontSize=24;endArrow=none;endFill=0;strokeColor=#d6b656;strokeWidth=7;fillColor=#fff2cc;" parent="1" source="JANOWUxKP03fAEAvI6Rn-4" target="JANOWUxKP03fAEAvI6Rn-10" edge="1">
                    <mxGeometry relative="1" as="geometry"/>
                </mxCell>
                <mxCell id="JANOWUxKP03fAEAvI6Rn-19" style="edgeStyle=none;rounded=1;orthogonalLoop=1;jettySize=auto;html=1;exitX=0;exitY=1;exitDx=0;exitDy=0;fontSize=24;endArrow=none;endFill=0;strokeColor=default;strokeWidth=7;" parent="1" source="JANOWUxKP03fAEAvI6Rn-4" target="JANOWUxKP03fAEAvI6Rn-17" edge="1">
                    <mxGeometry relative="1" as="geometry"/>
                </mxCell>
                <mxCell id="JANOWUxKP03fAEAvI6Rn-4" value="0,1" style="ellipse;whiteSpace=wrap;html=1;aspect=fixed;fontSize=24;fillColor=#fff2cc;strokeColor=#d6b656;" parent="1" vertex="1">
                    <mxGeometry x="465" y="160" width="80" height="80" as="geometry"/>
                </mxCell>
                <mxCell id="JANOWUxKP03fAEAvI6Rn-23" style="edgeStyle=none;rounded=1;orthogonalLoop=1;jettySize=auto;html=1;exitX=0.5;exitY=1;exitDx=0;exitDy=0;entryX=0.5;entryY=0;entryDx=0;entryDy=0;fontSize=24;endArrow=none;endFill=0;strokeColor=#d6b656;strokeWidth=7;fillColor=#fff2cc;" parent="1" source="JANOWUxKP03fAEAvI6Rn-10" target="JANOWUxKP03fAEAvI6Rn-12" edge="1">
                    <mxGeometry relative="1" as="geometry"/>
                </mxCell>
                <mxCell id="JANOWUxKP03fAEAvI6Rn-10" value="0,2" style="ellipse;whiteSpace=wrap;html=1;aspect=fixed;fontSize=24;fillColor=#fff2cc;strokeColor=#d6b656;" parent="1" vertex="1">
                    <mxGeometry x="545" y="280" width="80" height="80" as="geometry"/>
                </mxCell>
                <mxCell id="JANOWUxKP03fAEAvI6Rn-30" style="edgeStyle=none;rounded=1;orthogonalLoop=1;jettySize=auto;html=1;exitX=0;exitY=1;exitDx=0;exitDy=0;entryX=0.5;entryY=0;entryDx=0;entryDy=0;fontSize=24;endArrow=none;endFill=0;strokeColor=#000000;strokeWidth=7;fillColor=#fff2cc;" parent="1" source="JANOWUxKP03fAEAvI6Rn-12" target="JANOWUxKP03fAEAvI6Rn-29" edge="1">
                    <mxGeometry relative="1" as="geometry"/>
                </mxCell>
                <mxCell id="JANOWUxKP03fAEAvI6Rn-12" value="0,3" style="ellipse;whiteSpace=wrap;html=1;aspect=fixed;fontSize=24;fillColor=#fff2cc;strokeColor=#d6b656;" parent="1" vertex="1">
                    <mxGeometry x="545" y="400" width="80" height="80" as="geometry"/>
                </mxCell>
                <mxCell id="JANOWUxKP03fAEAvI6Rn-15" value="4.8" style="text;html=1;align=center;verticalAlign=middle;resizable=0;points=[];autosize=1;strokeColor=none;fillColor=none;fontSize=24;" parent="1" vertex="1">
                    <mxGeometry x="30" y="175" width="50" height="30" as="geometry"/>
                </mxCell>
                <mxCell id="JANOWUxKP03fAEAvI6Rn-16" value="0.8" style="text;html=1;align=center;verticalAlign=middle;resizable=0;points=[];autosize=1;strokeColor=none;fillColor=none;fontSize=24;" parent="1" vertex="1">
                    <mxGeometry x="545" y="185" width="50" height="30" as="geometry"/>
                </mxCell>
                <mxCell id="JANOWUxKP03fAEAvI6Rn-17" value="1,1" style="ellipse;whiteSpace=wrap;html=1;aspect=fixed;fontSize=24;fillColor=#fff2cc;strokeColor=#d6b656;" parent="1" vertex="1">
                    <mxGeometry x="385" y="270" width="80" height="80" as="geometry"/>
                </mxCell>
                <mxCell id="JANOWUxKP03fAEAvI6Rn-21" value="4.8" style="text;html=1;align=center;verticalAlign=middle;resizable=0;points=[];autosize=1;strokeColor=none;fillColor=none;fontSize=24;" parent="1" vertex="1">
                    <mxGeometry x="340" y="295" width="50" height="30" as="geometry"/>
                </mxCell>
                <mxCell id="JANOWUxKP03fAEAvI6Rn-22" value="0.8" style="text;html=1;align=center;verticalAlign=middle;resizable=0;points=[];autosize=1;strokeColor=none;fillColor=none;fontSize=24;" parent="1" vertex="1">
                    <mxGeometry x="620" y="305" width="50" height="30" as="geometry"/>
                </mxCell>
                <mxCell id="JANOWUxKP03fAEAvI6Rn-24" value="&lt;b&gt;SIN SUMAR CAMINO RECORRIDO&lt;/b&gt;" style="text;html=1;align=center;verticalAlign=middle;resizable=0;points=[];autosize=1;strokeColor=none;fillColor=none;fontSize=24;" parent="1" vertex="1">
                    <mxGeometry x="105" y="20" width="410" height="30" as="geometry"/>
                </mxCell>
                <mxCell id="JANOWUxKP03fAEAvI6Rn-25" value="0.8" style="text;html=1;align=center;verticalAlign=middle;resizable=0;points=[];autosize=1;strokeColor=none;fillColor=none;fontSize=24;" parent="1" vertex="1">
                    <mxGeometry x="625" y="425" width="50" height="30" as="geometry"/>
                </mxCell>
                <mxCell id="JANOWUxKP03fAEAvI6Rn-34" style="edgeStyle=none;rounded=1;orthogonalLoop=1;jettySize=auto;html=1;exitX=0;exitY=1;exitDx=0;exitDy=0;entryX=0.5;entryY=0;entryDx=0;entryDy=0;fontSize=24;endArrow=none;endFill=0;strokeColor=#000000;strokeWidth=7;" parent="1" source="JANOWUxKP03fAEAvI6Rn-26" target="JANOWUxKP03fAEAvI6Rn-33" edge="1">
                    <mxGeometry relative="1" as="geometry"/>
                </mxCell>
                <mxCell id="JANOWUxKP03fAEAvI6Rn-26" value="0,4" style="ellipse;whiteSpace=wrap;html=1;aspect=fixed;fontSize=24;fillColor=#fff2cc;strokeColor=#d6b656;" parent="1" vertex="1">
                    <mxGeometry x="640" y="500" width="80" height="80" as="geometry"/>
                </mxCell>
                <mxCell id="JANOWUxKP03fAEAvI6Rn-27" style="edgeStyle=none;rounded=1;orthogonalLoop=1;jettySize=auto;html=1;exitX=1;exitY=1;exitDx=0;exitDy=0;entryX=0;entryY=0;entryDx=0;entryDy=0;fontSize=24;endArrow=none;endFill=0;strokeColor=#d6b656;strokeWidth=7;fillColor=#fff2cc;" parent="1" source="JANOWUxKP03fAEAvI6Rn-12" target="JANOWUxKP03fAEAvI6Rn-26" edge="1">
                    <mxGeometry relative="1" as="geometry">
                        <mxPoint x="595" y="370" as="sourcePoint"/>
                        <mxPoint x="595" y="410" as="targetPoint"/>
                    </mxGeometry>
                </mxCell>
                <mxCell id="JANOWUxKP03fAEAvI6Rn-28" value="0.8" style="text;html=1;align=center;verticalAlign=middle;resizable=0;points=[];autosize=1;strokeColor=none;fillColor=none;fontSize=24;" parent="1" vertex="1">
                    <mxGeometry x="720" y="525" width="50" height="30" as="geometry"/>
                </mxCell>
                <mxCell id="JANOWUxKP03fAEAvI6Rn-29" value="1,3" style="ellipse;whiteSpace=wrap;html=1;aspect=fixed;fontSize=24;fillColor=#f8cecc;strokeColor=#b85450;" parent="1" vertex="1">
                    <mxGeometry x="490" y="500" width="80" height="80" as="geometry"/>
                </mxCell>
                <mxCell id="JANOWUxKP03fAEAvI6Rn-31" value="6" style="text;html=1;align=center;verticalAlign=middle;resizable=0;points=[];autosize=1;strokeColor=none;fillColor=none;fontSize=24;" parent="1" vertex="1">
                    <mxGeometry x="460" y="520" width="30" height="30" as="geometry"/>
                </mxCell>
                <mxCell id="JANOWUxKP03fAEAvI6Rn-40" style="edgeStyle=none;rounded=1;orthogonalLoop=1;jettySize=auto;html=1;exitX=0;exitY=1;exitDx=0;exitDy=0;entryX=0.5;entryY=0;entryDx=0;entryDy=0;fontSize=24;endArrow=none;endFill=0;strokeColor=#000000;strokeWidth=7;" parent="1" source="JANOWUxKP03fAEAvI6Rn-32" target="JANOWUxKP03fAEAvI6Rn-39" edge="1">
                    <mxGeometry relative="1" as="geometry"/>
                </mxCell>
                <mxCell id="JANOWUxKP03fAEAvI6Rn-32" value="0,5" style="ellipse;whiteSpace=wrap;html=1;aspect=fixed;fontSize=24;fillColor=#fff2cc;strokeColor=#d6b656;" parent="1" vertex="1">
                    <mxGeometry x="695" y="600" width="80" height="80" as="geometry"/>
                </mxCell>
                <mxCell id="JANOWUxKP03fAEAvI6Rn-33" value="1,4" style="ellipse;whiteSpace=wrap;html=1;aspect=fixed;fontSize=24;fillColor=#fff2cc;strokeColor=#d6b656;" parent="1" vertex="1">
                    <mxGeometry x="580" y="600" width="80" height="80" as="geometry"/>
                </mxCell>
                <mxCell id="JANOWUxKP03fAEAvI6Rn-35" style="edgeStyle=none;rounded=1;orthogonalLoop=1;jettySize=auto;html=1;exitX=1;exitY=1;exitDx=0;exitDy=0;entryX=0.5;entryY=0;entryDx=0;entryDy=0;fontSize=24;endArrow=none;endFill=0;strokeColor=#d6b656;strokeWidth=7;fillColor=#fff2cc;" parent="1" source="JANOWUxKP03fAEAvI6Rn-26" target="JANOWUxKP03fAEAvI6Rn-32" edge="1">
                    <mxGeometry relative="1" as="geometry">
                        <mxPoint x="623.2842712474621" y="478.28427124746213" as="sourcePoint"/>
                        <mxPoint x="651.7157287525379" y="521.7157287525379" as="targetPoint"/>
                    </mxGeometry>
                </mxCell>
                <mxCell id="JANOWUxKP03fAEAvI6Rn-36" value="0.8" style="text;html=1;align=center;verticalAlign=middle;resizable=0;points=[];autosize=1;strokeColor=none;fillColor=none;fontSize=24;" parent="1" vertex="1">
                    <mxGeometry x="775" y="610" width="50" height="30" as="geometry"/>
                </mxCell>
                <mxCell id="JANOWUxKP03fAEAvI6Rn-37" value="4.8" style="text;html=1;align=center;verticalAlign=middle;resizable=0;points=[];autosize=1;strokeColor=none;fillColor=none;fontSize=24;" parent="1" vertex="1">
                    <mxGeometry x="525" y="605" width="50" height="30" as="geometry"/>
                </mxCell>
                <mxCell id="JANOWUxKP03fAEAvI6Rn-45" style="edgeStyle=none;rounded=1;orthogonalLoop=1;jettySize=auto;html=1;exitX=1;exitY=1;exitDx=0;exitDy=0;fontSize=24;endArrow=none;endFill=0;strokeColor=#d6b656;strokeWidth=7;fillColor=#fff2cc;" parent="1" source="JANOWUxKP03fAEAvI6Rn-38" target="JANOWUxKP03fAEAvI6Rn-44" edge="1">
                    <mxGeometry relative="1" as="geometry"/>
                </mxCell>
                <mxCell id="JANOWUxKP03fAEAvI6Rn-47" style="edgeStyle=none;rounded=1;orthogonalLoop=1;jettySize=auto;html=1;exitX=0;exitY=1;exitDx=0;exitDy=0;entryX=0.5;entryY=0;entryDx=0;entryDy=0;fontSize=24;endArrow=none;endFill=0;strokeColor=#000000;strokeWidth=7;fillColor=#fff2cc;" parent="1" source="JANOWUxKP03fAEAvI6Rn-38" target="JANOWUxKP03fAEAvI6Rn-46" edge="1">
                    <mxGeometry relative="1" as="geometry"/>
                </mxCell>
                <mxCell id="JANOWUxKP03fAEAvI6Rn-38" value="0,6" style="ellipse;whiteSpace=wrap;html=1;aspect=fixed;fontSize=24;fillColor=#fff2cc;strokeColor=#d6b656;" parent="1" vertex="1">
                    <mxGeometry x="750" y="700" width="80" height="80" as="geometry"/>
                </mxCell>
                <mxCell id="JANOWUxKP03fAEAvI6Rn-39" value="1,5" style="ellipse;whiteSpace=wrap;html=1;aspect=fixed;fontSize=24;fillColor=#f8cecc;strokeColor=#b85450;" parent="1" vertex="1">
                    <mxGeometry x="640" y="700" width="80" height="80" as="geometry"/>
                </mxCell>
                <mxCell id="JANOWUxKP03fAEAvI6Rn-41" style="edgeStyle=none;rounded=1;orthogonalLoop=1;jettySize=auto;html=1;exitX=1;exitY=1;exitDx=0;exitDy=0;entryX=0.5;entryY=0;entryDx=0;entryDy=0;fontSize=24;endArrow=none;endFill=0;strokeColor=#d6b656;strokeWidth=7;fillColor=#fff2cc;" parent="1" source="JANOWUxKP03fAEAvI6Rn-32" target="JANOWUxKP03fAEAvI6Rn-38" edge="1">
                    <mxGeometry relative="1" as="geometry">
                        <mxPoint x="718.2842712474621" y="578.2842712474621" as="sourcePoint"/>
                        <mxPoint x="745" y="610" as="targetPoint"/>
                    </mxGeometry>
                </mxCell>
                <mxCell id="JANOWUxKP03fAEAvI6Rn-42" value="0.8" style="text;html=1;align=center;verticalAlign=middle;resizable=0;points=[];autosize=1;strokeColor=none;fillColor=none;fontSize=24;" parent="1" vertex="1">
                    <mxGeometry x="840" y="700" width="50" height="30" as="geometry"/>
                </mxCell>
                <mxCell id="JANOWUxKP03fAEAvI6Rn-43" value="6" style="text;html=1;align=center;verticalAlign=middle;resizable=0;points=[];autosize=1;strokeColor=none;fillColor=none;fontSize=24;" parent="1" vertex="1">
                    <mxGeometry x="610" y="700" width="30" height="30" as="geometry"/>
                </mxCell>
                <mxCell id="JANOWUxKP03fAEAvI6Rn-44" value="0,7" style="ellipse;whiteSpace=wrap;html=1;aspect=fixed;fontSize=24;fillColor=#f8cecc;strokeColor=#b85450;" parent="1" vertex="1">
                    <mxGeometry x="825" y="800" width="80" height="80" as="geometry"/>
                </mxCell>
                <mxCell id="JANOWUxKP03fAEAvI6Rn-46" value="1,6" style="ellipse;whiteSpace=wrap;html=1;aspect=fixed;fontSize=24;fillColor=#fff2cc;strokeColor=#d6b656;" parent="1" vertex="1">
                    <mxGeometry x="690" y="810" width="80" height="80" as="geometry"/>
                </mxCell>
                <mxCell id="JANOWUxKP03fAEAvI6Rn-48" value="4.8" style="text;html=1;align=center;verticalAlign=middle;resizable=0;points=[];autosize=1;strokeColor=none;fillColor=none;fontSize=24;" parent="1" vertex="1">
                    <mxGeometry x="640" y="835" width="50" height="30" as="geometry"/>
                </mxCell>
                <mxCell id="JANOWUxKP03fAEAvI6Rn-49" value="2" style="text;html=1;align=center;verticalAlign=middle;resizable=0;points=[];autosize=1;strokeColor=none;fillColor=none;fontSize=24;" parent="1" vertex="1">
                    <mxGeometry x="910" y="825" width="30" height="30" as="geometry"/>
                </mxCell>
                <mxCell id="JANOWUxKP03fAEAvI6Rn-54" value="" style="shape=image;verticalLabelPosition=bottom;labelBackgroundColor=default;verticalAlign=top;aspect=fixed;imageAspect=0;image=data:image/png,iVBORw0KGgoAAAANSUhEUgAAAiMAAAFpCAYAAABOASgmAAAAAXNSR0IArs4c6QAAAARnQU1BAACxjwv8YQUAAAAJcEhZcwAADsMAAA7DAcdvqGQAAP+lSURBVHhe7P0Jk23JcR4I+t1vrm+v96rq1YrCvgOFHYQINBdRpCRClPVIJjWl7hlSkqnN+i9outXWI5lRbT0acdTq0YxJ3S3JKJLiAhIgQYAiQRAbsRYKhSqg9npVr+rtud79zve5h8eJc/JkvnxAERmZBb/5ZUR4LDfcj0eEnzjLbcxB8kP6If2Qfkg/pB/SD+mHdEAUnJEZoiNlTAcDpPCZNUXdlPlMGjJHQZEmkuAqyMc/Vnl5qJGG/GcM+3Z8E5LuNqE3sfx8Rx/YV6vPDyuy316e+UWAf/hrIK/JfOdpEEJWZAEQ+5I0dCSJx3YGRJ1BD7MZlYS8ZlPjM9oEdNJqd2U2nZrGVC2FbmgdzEh1r4GrNSNSc2FoAQdFIkmwd6cZJFN7aMgMoefEGuBRZvJzlNeOb5m0i9HGSXrUIjV8DkCRpk0KASBWY6UGbEMT1s5Rpai/2VSaLeiJSlFVzGU6pW0gGnkIVR1JGEjbQJmoaS8S1JobcYzU9Tl2OAQtTqQtRCZTGQ2n0l3qIo6axeSNdvAP9mINaCNHlmytRKQBpYzHWGanlnFkKRzPVggpO+dMJx73NnTBsbO8gng7ZCBLnZHhukyGa6gzluForMYyh/XZvGOGRGeEE1KLmE+lw8GIkqWJ+nsgdnOKfk8wgOH/aGs2/QdhdJLENzOIX4VEyE6YINZCek5Dh8AMUVGLxvI2ZWoxyEU0IVyTgwi8GeTSxVfLNaFT9AWKs5ZZMzZ0JMmks8WHWpxOJxhDUzgeTel0uphjqB8ce+il3e0jPwwuVV+hHz0q+KcpY4Go9BDNhtC52L9AtPfQUVilxgnaymg4Uqes2WphfmmD5/KyHdiaerXahHJDM9mQ9zYlTeni4DmpQhDHeKf8nF8aiGspTDC0Ay7Aposuhloybo8ouf5mkzHmUYyBZkvnC34Gw6Ee/xb1oSWhU85fCtay2kyonvHPORYBww5ARhR6qP0H7ehzMZ+SKDsTQ5zUbm9ty8kTx2QKO2EZjok57YaFm1iE1OZia0eSuG62OZ9c35DtS1dleGNd2hhC/U5bmggbXKipDuhBHT4C9cK0EqnJMgEkrpnTqD7+Y4aHpIPh0cbZtzEmiwbmyS6E6WP9aEJOlph1OzLqdWWj35Xb3/pWOCSr0SFRZ2Tr8gW5culZGQ4HcuLEKUwuaFR9EFTXyUcL4msMLcTbKEDFUNnfD7H6FA1N8J1U7s2ao9hEPWmnAQ4IClhj7Ox3iM60LEthQIVFZDIeQQ+YVDCBdNodLMA9+DRckkDqGGkEYE89JB0hnuoIaRjQCLoYjUbSgwH1FpZ0J2TGAaQLMnRMHQYyHbl260hLgG6hL3/uvJr+QiaVX8mdEfZ9LuvX11Tubq8vrS7O+kJ9nZKjfTjlKG+I4y+OA/4rHTeWCUT+bIIInRHw5xaf4yxvDLsYT2Ab/QVpdBfQIMcdaY/vPSq8yQQLL05XoJPZlK7ITNbXNzCvdjBWeuqwqu4SmzBrQHqHnTgdkvGRUjKfkuiYzqCbrc0N2dzclDNnTkENWGqhiznKzid0RkB0Wqgjpf325RDy4FX0YB/P/OmfyXNff1jWnn8Ja6fIEk7sZILIZKoOGpXCzZMZ9DTzyxBJew20oc5I4HHBn/lwy4h4bNm3bcqAk/g+hOrjmDfhsNOTmPY6sg2HZGtlUf763//70rv7fngrfa2rzsj2pedlfe0lObG6Kk0UVHnZrC7WbIJfQSBLdUEtYMDpfpwW/j6Iw5hHYojjRleR3xmylJKELnyeroZG2puwM2Ln9mFnxAkDIiVOI+qdmmAyH2zJ5samnvF0Fhek1V9EU8wLZzPamJUtQtIR4XEniTqirrHQbK9tyHB7Gw7ssrSOnVBd0Umls6YmwTCdXMOi5t9Qogb1rBGg8r0HxdPdM4uSmGN2Fuwk2ostODeef0G6XHCWoY8F2gbGi5LWVN3QidNtSNqysmu+96B4POXi8dO4cozicWOO5irRSZ/DAVVnjMd5MraMyVCGGxtwVgeydPyYNBaWITPPdpnJf/voy2Hk6Skr4tOJ6kZPZREn7+pLl6Tf7cnCygqcM86jdasFykOP/g0lynV8aGgBibmRKvOp0niIeWNdNmAfp+48J802Fl7VFRqZ6r47bAW6UYeNFWq+94jw9JaB0Uwu/O4fyjOf+bxcf+aCdLA2LeFEZj7CuNL5gjttU+iJjghGGqqomQXSaQQwZ8RoClvRMkm5HIhS0xnZ5G5qpy09rqOjibTR0TFkG8EZWW835OpCV/7qL/4DOfvWd4ocO6Z11RkZXn5B1q69JIsouLC0AIFhYGpk6ssA/AqDzmVQ51wWUCrdfWC+h6T98kBwQpp6zwqdEZxj6mLAUmHS9LIa8J/X9ZClrKSxkjQDL6ZE2ULUiWd+3P0Afwpv/vq1azjDacsCnLM+Fh1vil4rie6NOjEhPEo8lZDHHgvqbDyStavX4ZxtyIlTJ6V/6rQ09bIMFMKJZEy9IYzOCMIYTyjq78+nz98PT880GLWkUXRGPDTimd0LTz4lPUwky8eOS28pLMBKFNLO/ng/Aa+L+oSy3778IHh2fBFn0lggdDQ9hinh+M5xpqvjksd6NITMDZkOh7J5/bpsbW3K6bNnpQVdzINjtt++HEae6o9xjgPOB3Q8qR/wnnv2WVmEg3rsxEmcxOBsj/ripBKJuqWuLVUi8LIdHyQfBkxaViBklNJzGQ22ZYO2gXnjjrvukmaPzkjQFe+rYRzO+itiPmUAp+MinJGn//CzcvWJZ6Tf6sIZ6clsNNZFmrcCTGFDDdVJ2IOFnn3+aILBKM2DVyWo4ykSc208N7LLNEPMF9xBpnyNwUjakAszh4z6Pdla6svmiWX5ib/zf5UTb3uXyPHjVpPOyPjyRbl26Xn4a1PwVxHSwDjAuPAQEBp2o6JTSbrr0MOc5jsjBHM9JO2Xh4Z1EPIgMrRtcU+zpC0OCZXSLJHCiZNFOIpa3OsgjNVDhIsHDQGFJxvr8tJLL0kHzsjKiROyeGwVxViOSvbBYzVj06CjwqOEtjMCZwSD5dqVK7K+tianz5yRRaDBm7CgB94vISM4kJxY4kLGeIhGwlEMvGKy3V9ffhA8PaKawKBxph5vnRJCaMTt1GefeEL6vZ6swjb6vAFL91ZRjjqAXlh1zt1E2FPhjFhL6fceFM+OL1JkxHHkx43/NFIQkpwoGbZ449lwoI7WZLgta5dhGxgvd9x1t7QXF+GMtNEsp+Kd33tUeGovSDXojPgCq2OiIU88/rgsLS3JydNnpMNdM9oE8yNZbW0wkiVoK9mODxI6qN2LmV4CoUdDZAAH9QZO6LZxYnf3PXfDGemhHipSFwTtCGOFzghr1H3vUeHx8gSdkUu/95/lyT/4jFx98mlZ7i7IQrsjk8FQenDgOxg3E5zYNejkozIthvbg8wedEfod1L9pjLbCnZHUtnIh29mZ4ni3mm1pTecy2x5IF+vpFo79AI7pYHVJxudOyUf+9t+Vxbc9CGfkhNZUW9NrefBYdRHiIONOQQTTAWGRaiDenA2kPdsK2KyEt8ZrTYc440a7OBKNaQvxpqLBm0h4dBToqIMXy2ZYDBU4G1PA+1bA8DWNOjQEBfod44BOxpTF4wCUyEsPhN3EGrYT07JsB6FuxSfhkeIFGUmcP5AIcSQ0n9c4eRDIBJK6ih16Nuh3BN6++/ID4lnaj3GRF6HyWD4HjNoJFyIS66l9MR8gUVeJDnb73gPhaV8RL8nJvntYAcqzzjwtT/nx4byhNzPzkhT5Ocr7cvNcf64fPd4A7IFzRpw34txRgx36D9+Rqf4sTXkRat+DDkpyhPwwX6j4DHUOATGf8wZDnzfYDsLdvvfo8Cgn7QLy8yoAli3Gp7MxwglMB/lNrDmIz+cAw13Bpxc5/xY8j+fCa0CG1nQi3clUuvAniD7mjC6OdwsnNk3e/A216JN5+HPSGXWESpxUFnp9dfZtRyGA90voWR4yeBbYxIKv1/vQjl7EoiK/T+B7aJ98ekUfjOT3KOgH8swauRHsoGHewJlYowN0US6AcfJwxOcQRutSqBQuS8C8CUCmRqcjzU4Pk2sHRShjgPaOd8jww/Dogk/JRP3AY2/Cg28RvOHKdc881Q1GFcOoS+QFHZvug/4BLuDcjqz7zoMEP/YwLi+rWL9N/gQqk8nchI20aSe8JBFtDGOBddkO0rQdIkt5/TgpiuNmxyroQEOPsxydL4xD6oFjH/MBb1TkNmwTZ7kcN4KxyG/Q70g+6XcfBXB88GZM2ku0ddjCHOODu4WqEx0X1bFBUJehDoE4xweR8/jgR22ENoB+utwRKleQkeMCZ8G0C73BvcVLNCGPZeO9Imz1lTGf0l44frjzYeOGuoSjgo+6rg2EUCvdEXM1GPJOSuZbyHtECOcx32obLw0Pnge/gPcG8UQFTlgXx74LW+jguOtTNfQ34KDoffEJwSpgFxoF0VPpkAUHgVvwI5SmQWGymWLGHcMhG0PF80YPXwej0ur7gBtqHUIZO/ui54w+sEM822I/ZujHFIAXafuElIA30TH0w8aS7i96jtbW5qibWjgxPqbMrAlCv/hoPHQGQj8YeoMeP+qgAnDWMwXGUyoIBwUGoAutxqGrqh5JgedOr4J6c9R910Ej7S//RYKcvl+qmbSJOcwE5zDcQdSysF3AxWN9nvBlLa92FEgJ6dIxA/zEt6GOaAvDEMe8icUGgW6g6kDF+KAteJv6HYgQfFpA44Gfqz6+F7isDCHXdHuINZgnRE0MEzBceXUEdlXXqpuM9aMn96HfpY7XYIbjzrnT9hFBtAHKpmsGMEKaU23G8r6sgKehJ/y8iZePtoI1giK7S0t6EryF8cOQa+0M4QyLtgJODDH1dAI6c5qv6UYlPEBecK65iUFz0MOO/CH8Cc4jrV5fnVVzUJlZULAWrwbN0erIpd2Qp04JfJ4pFuh5FwOtK4NZV4azFtAE8EV7YHQzYKKnbW7hYDEc4/u3R0NZ31hDuC3TNjrTx0FC/8fjLfSUTgkOXnMCwRECs8YYB2yimDXgWwLmoVEhDUgFZUVAYSpgoQktV2jODrTySWHCjXWOOgpZOZkYLE6eevk0OKQ417raDIWeXfdEbJuLeprODPO5OxYG67vrw+Q3+dw2SGZTUV5mRAemaDs/FGTH0I9XIkuA7gTgmOvayokm8E1uIH3iIpUfZSzOzIR3qFHYggIyqf5w4H2Xw/IKutn4ILyt2G6G8L5yPi3m1Lr5tJDXdOWU6O2VBH1ij3HKz/GCJNINOPjcHaOudFyFcWZhGi/qImGh8oNzlxPQL8rE+yuncEL4/rAJnBRuH6jT0mIeHC6CV10SonRoQGcQAGqZDBGFU2I5PBUEG5WafTSyAK+O6KPhBZm3e3uDL0ICZvtAo78gs25XJvAcZ922NHo4A+vgbKwxg4MyhiMNp6hF52OM7owAPgpMDIDtEDrGAN0RCA9llAe/2YXzHaYBhOArEOeBT+tpxVcAdLBQZo27/MiLugjlwCnrtkDUbWij+h25gX30RUNtgTpQPRgoe1V+A9mBz3Y0BE+RlssHflx5bAr7NyivAj1+yFMyZaiMXodI2+fjjI6Uf3TAP9NLqoM6HKnxQew1n/o4cL4i5ZVR/Y6jC1NS3biIPKyxRJNh4O0okwALsNWpyTto0Plyh2RSgTopOPYTtQEQijupy6FXeXTxxmI/HsAB4UYSpmV4MjrgGh3k9GR72pW1YVvWJx3Fxri9J9aBNYaj1h6wMluNntyYNuT6ZI44HJL+EpySvgy4UzIewiFB93v0trjdRYfEHBFRbKG/xLZhbg4Vbx7yRcV3TY3nsDy9yUiJCQtS6M17EeAdaSRyUkf+UR1Z6OrSSQXxFF69ytdt3tL35AHvl/XT5SsD/wJQR6NhMiXFMp6kTkLd5HtyAW3Z+odkAhXB+x3TBpOZ2Mk0eW3SLGDZBZK8mj4dLkAg6lCVhnQFhZ48vhOFvhOg7fzHRxkmh9uM2Y3JbWllKIxfigc91n3n0QNmi+BoOLDcxngLjoWBcYPl8R6LIizyWdfr5AXraxMi89nc4Hw0A2Landoy6aO9ay8+JeuXnpbjiy1ZaNFD4QU9TBzNLuynK9Pucbm21ZTnb4zk2vZcmv0FmUzgBKD51LOpkhlkSOxBWqTB64y8I2UmC3A6Vpbasoyw15lIFw5Ivz2XfhffONyWJl+ogra5JLC3ShDetpiRRryhTzgzzg6ynHXEu8uSzuPEAvPACW5DpujDCy+8oHfFHzt5Uo6dOAHfZow8eKKx9tEmTCX6nzc1X7l6RdbW1uT222+XhaUlKwCiLvRNrFCJbU2TTKtlgt7A5FGy3zjJi1RSdErP9oIcalfaV7Mxchny6ZGnnnxKur2eHD95QpaWVjR3wklVK6qUqGt3VJmN5kUuL4mPB5J0zCiZpN5pH798xTdln/Jtq7y2DSZfdnb96lV9B81dd90lrU4fY4RjsJ44tpTY5hGgGecgTKrUFW/Gm0wm8vzzz5tt8JUAfLQXxLFUTLqm57IGjNcCM9fxQeKjmsU4J9dynOPzKe8po01cv3ZVRoOh3HvvvaanSIhrVZ1xlXOkifY+msnFj39KnvvsF2Ttuef1RWB8bqPPm5wnOGmezvTNvaQx1lTaC8eoj1N9xgPNEBxhZKu29YpGXsQewV+SETcyMB/q29p5DxV6Pe12ZLPdkhu9jkzuOCv/xd/6W3Ky+mgvSYcMJ6cuReVdN8HR6HThmnTkxWub8tB3npPPff0J+cKjl+SRa0vyzfWT8tD6qZuAZfbCCXl4bVUevtSVZzaW5em1nnzjmU359Jefks8/8rxcXIcn1T0pMzhENzZmet/KDP3R61Povj7QowdpKu35WDpzvu1tok6Ny+F3ABC2yci89EAWZYtTASLwFCxDsN5RhstJmeGU8n0z1AXzXC90QnRRIcyI7Dl4dwdd19YerzBbe14nP1hfrZ/sL23GbMX7HnQQ+KmN8PdadCFxxDrl78gDlMPgx42P2Pkxqy8PWbgzWRoPBE9agn0QSdu7o+47DhNcjkQPLr9D72AuKB0f6Rg5rONj7/mUIdMJXC+aDjYT84vvONpIdWD6TFGnjyIvTR9+ojT+P6XWPwINtuDFbl2TBTginS58r/EAaw381hbvfF2UaXNFnr60KQ8//qI89tx1WZ8tSeP4edlsrcjmfEG25v1dYHlWph7bAcPposzQ3mDWk+sbU3nh0g25fn1bplN4V62edNp96ba7GNToFwc0Qtu64iAP0DiGvpbhTobncZHAgYwIi0aATR7go/B8OpGN9TUkp9Jb6Emfb1KcYSKOXijDowzqghOsTbLbW1s4C96W1ZUlaXe448TJJ5SdceHmACFYj7p2HSOfYeCx3XRg5YYoh/adfaVthDhtROWZyY3r1/QRtX4fNtnFmQ3sgr8bEWVN2wK8/ZzgC4jLSfJjVuiA8HHBfMSnU3vIDXn8obgRbGM8HMgqf0aCOyYop7spyXcdPVAnhNm+2gXGwRxzxMb6DelAQQsLfel0uDOLctRxqmfUcf2WbEbL+HfkiaLvlMnjnjaw3GQ4lOH2lu6k8SWaJlfQAcpre6+k+RTjZuO7T8jaM8/JaH1D2txlh64Ycu3h7pm/t4iP9upH9WNgXPWMOO2FRLeQOxDpN+UAtQD0i31jZ/VEJ8yPfCniuNmQQRtu7Mqy3P+Wt8jCuTtE+gsoHJyRIZyRIZyRPu8ZhUMyH48gPJTT7MmsCWekdUwuXB3Jt5+5Ik+9uCmj1qpMu8dkbSSyvg1Fb2Mg7oLNLebvjs3tmWxsiaxtdWR90EbYkBubM1nbnMj62lC2tsb6tuVeuyfLCyvSQr9akFZDSKwvR5sRcEBCSE3wQ9JJtxZ+cKmokMZBpzOyCWeExtLDpMJFh789QUXbAHKVH2GEiYXY3sLx5oID42nxlyZdZwxdb55WkGdgW5qHctquXhbIENq/0H+VKZyl6gRQLrd+/arw11r7cFQ7fL8G6+hlGqtvxIUK5TOW145V2m/mWTwePy0H6GSIEONA50xOLHBGhgNzRo4dw4LTxkkMhhxyQlspwDtSY4f6KBxxOiMET2LojPAEpo2xYuVM1xpXBJ2GtmIbdP5ztRfCF0O3iR0I+bCByWgoIzgjdFiPHT9WmTMsztTRsond0ZhiPXv8Sbn+3AXZXl/HGKJGsEgjnEGf+qgFedAdnRG+6j0sY9HhgNIMSDCtb2plXmbw/hKUkpcfW3obBAgnLPw13yHGyAwnt/e9+a2yeHvVGdmkM3JVFrpwRtqoBk8Oyz0a78p41pVZZ1VeWpvId5+/Js9e3pZJZ0W2xg04DCMMwC1ZBzbWNxXrxAawZukNeBobG9shrMNA1tYncn29IVduTBFOZXvI91vAixrPZWubv6I70Rek0JNcWVoVvvHed0YIv7OYIY+/3tXLCRTK0IGCQU5lxAGjqgJgCAzjhIE6dEa2YDDk0RnpcWeEL1VAA1S2qfloQ3VEnWCC5KudU2fEVFDo0XaMGC/rV8+mQ1wPCkJ7fXH5u3KA910nzWALPsFq39VOLFznzggGVR+20e52rC7OblxW1Q/L0paCbnKD9jM4WkW/C8RyrgseS+oAY0Ov/yNOZ4QLju6M0BkJOyMqt9anzhiCBZ7ayY68wws95nqwkaae6Iys0RmBbeAExp0RsxvqlephGECdJmn9ZDo+CI4NHR9qM8EuknkgHlPIZc7Itv621eqxY4WeCNRhWXtqMeEfYdBWrj/xlFxLnBHyW3RAYDt8LJy/S8P5Ql823kSIIqYj2gWNBW2pvkxvzOdyx3iWoHzoK9+0SoClzgjvJYnOyFvKzgi1goV9Bg9mqiFmG9Th2wQ7qqTREB7ucBMN8jpfQ7ahgfWRyMbmRLY3xsBINje3ZXNrS7G+vR6wIRvbcEZglJvbAzgVQ5xlEyMLmVY+HJWtARyQCcpNZH2LOypzfE9PZPE2mS+elSvDrnz18Rfl4599SC5ut2RdlmW7sSLj5iLMuocDCsdJNQCp9SVLdqaCCEC1WJZCOQ5+6JdyIKEsz3Ygp94gC55OwApIToN5BYFkNzAiTQUg5MCJpHHjW16KyAag35Co+54cUPS76CtFs9DjJjMHlQ6smG98i1jc26v7rlxQyGYodGDpalnLMxFtgfXxgaSGXo9jZSd0iAGW9rY9XsfLGy5vCSok+s9/yiv0kuo3sAJoL1au7ntywc6+e9z4IVHAxwNDla/QBVl135Ev9rLTm/OiKkiahs70E5KArUIFn+R5JFQxtTqXbcR28vqYHLGn1m/8oz64S2JPA0FHYKcUnBF4vXyfiL6FlIJ2sC43pTGZySJOeLrj69KdXUfloUzh3Uw7izKBs9Btr8K7W8AXwoHpdaWz2tWfhpl20cZCQyYdhB14Qerh4UyhzVet99GLjvBnpVtdvioYXzfZksXGliw31mW1M8DZxUiu37iM+k3Z6nRle/GYbC2flqfHHfk/PvUF+dMnX5SX8EVb3eNyfYwuj/myMwpC52Mbcmzi6A5pEfDG8AUN3t4abpviy1aavMUVxfSVtdQUCSHf8gpHRN+AT1Uxy/wZm2dYVsOjDMio1kNVMGxIk6/d93w3IY3z4CFwkDwe22MaDCLlZQUMHgXi3n8nT0c+h0yQ28un5OVK7ecEdM6Psfc1BcqU1g3yeDc8HXwlyK7jxtJNnrWxXa9/M2gfDjMgBEFyeVw2tw0FyOvE/EBeLwKMrMfHLnC5qlDSCdlC57OOk8pLIH7UgaHiv3xiacjNBYhDiGnqBvE531jsZQBulO26WeZUl5cBKJqLqCzIofKBSZm4vtrzQwXpqFFnhKDwuj9kRkRzaqFmZ74FbEuDbzrFAj/RR/hQBhORvZ2xiSoN6Nivf2EBw4rOrVne7NcGtzGGczDYkun2mgw3LsvW9YsyWLso8+E1dGpN5oOXUOaKtObr0muPZXGZ7zaZycZoKtfgIN2Y92TUOymXhm35wrefkT956Al56vKGdI6flebiqv7qIW+cUtF76BMdC74vBd87Rzid8N6TqYwBfZU3pPPtsui+hgHCxxAV4JLNshpq/IiTy0ldgKiF4rFMA7P0bEgp5JG4O5WmnUK9rCn0sZCL5PIwgwHi0IVGbS+SEfxjGIDypSZyo333LciO8jqREKmslFMTgQ996OVRziEeVyCtPINWAt/g8SoPyJXq+oe0qQb9D/ah8Sq5jDsoyH2oqE4OJ+YBnDe4Prh8qqSQp2kgV9L+sZ/e1zS8VR4l9k8g5QV+KKNUKWv/EaItwsnHk5XJB07sqr5LxOdL5Gq+95vyMJ0QLSU2ZEqxlL3MiDw+xsVLOHy0D84GCukr11t8K+pA+AIy+Cb4DjgpcByQBcelJd1ZUzqTmfQmE+mNB7Iw3pSV2aac6Q7l/MoMmMgdyyO5Y2UodxyfyrEF/pzytkzHN+A/8K70uUxHcCLgRQ6HDRmM+PrYFRnLslx4aSDf/M4L8o3vviDPXduWLb4Rtr0Ih6gHX4LX4VRmaANu2BROCdDEmVwD6fl0pNe7eW8Ir4GqC6rQGkrKZRtBF6l+iu23ow7Kj6OaQBWjISOBlGd6iXkKrl5wTRH1/FzhfVYZnRJ+SW7ChfYY2Rp3PdV/Tx4ojkWUJ6A4zg4VMRBHQCDyFQkP5CnOE+l3Ks9RyTvMiHpyUp3Q7pM8BeWu8orxQVTbzg3s5E77SOHyp7xEF04aZ5v5y/zywHSgulMFxFFSUgt1EvMQZd6e0PJVZh6wT1hVIRLjRCofdaPOR0LltNbCPyI04QaYGiF/D2beGsqksQnHZBvOLzyQGRwVOCOtSVO6Uzgj44b0hljwNzZkEc7Ibb25PHC6Jw++6ph8+G1n5cfecbuGH3jTaXn3G07JG19zUu68fVmWeL8oHJfpcAsY2lMz847Mxi04KS0ZjXvo9apc32yoQ/KZL39bnry0KdudVZktnpBxqy9jXm3xXY9wLwx/4qYNB6dFp4o/vjcZYqzAkeL9Iei7PmJF2VBLX3tMY1Gk8lu5I41wjAmXuyR/OsEkPLvuXYbfgxHr131fDmDf9MgHqFwJSnksn8L5BKKxHFD3XQeN5JhYn3fGFShbvocmQZBRP0hbGWtbnQ3wSwh5+wfa0y18xHOD60BBNVjc9AB9aZlqOdNlIZ/h0IwPIvaT8RSFjJ6OMiV1I0gMPJ1+R04oyfj9wuQ2kaEXVUHyMYbm8T5N/Z0jLRc+nk7g5XIF/ihSEUaZizQ0Y5FA0RnRsxaNIVdbCIoMaRs4cDoIXvhpT3RnZMJXr4u9RQ4+inRmbelMGtIeotz2UEbXL8uphaa85YHb5SPvfa38zEdeK3/tJx6Qv/aTr0H4Rvm5n3iLfPTH3ig//uE3yIc++GZ5+1tfLedvP4mecgdjAuehId1mFx3ty9aWyHDclYXV26W9eEZevDaCM/KofO6bT8rTNyay1jkug8WTstVegJPURp/Qb7TB69vcLWy30BYckk5jpjs99mvACE0tLioCm0adePA1gwWOPMLgcXmr8RDa67CZTinkK5yo22BHmcLPYqLNEzopBXtXkM8yFWiZIl1qp+a7skDS3wjwafUMDQxCnsoTdKDyBvkUXmafKH3HYQRk1jHCZOBV5WPo40N5Tow7nEJ7pbz8wNOzop9OaZlAKjP1w7LKCLwKSnVfGeB/1SLkj1z8Y8o+XrIMp7q8LIF/hUzpp+DXUXlnRIktaWuBGEmNMKR5qUbGiNliz5+c51soOgBvfJXRUBYac7nn3Cl57zvvkw+97w5565v6cuqECN8pdvHiRJ6/OJVL1+CzwCc4tSryhgea8iPvPyEf/MB5OXfqpN5Iur0Jh2cMR0IWMB/28Z0LcuUqHI/ttjRWzkn7+F3ytaevyCe/8pj82ZOX5ZIsi5y4U6a8bMPHk9G1GV9UMuI9JEiAeCmTbdcIfxOi7EcdBdnipMOnFI/QSWVvokuXuHWZIqEalvHwL12Eox6cWIhpllMGSCseAjilDolTkKlKabGoF2fuhVuhuvoHjZScRx050nS1/E46TOOj3NfdqFze0ql+UqTfkRteTtq9veq37l5yJ9XVzQEkP7rVI70X7eGMoAmAL3TSsz1vFjx78gBxgDenKXvKN8q19bEdGY905+H08UV517vulze94aScPdeV4WQoX3noKfn9//xF+Z0/+Lx87JNfAr4qH//0I/KFr1yQZ54fynDclna7jV7ge2HN3N3Qm13Q9hQ+xWTSks3hTDaGDRk3lqWxdJusyZI88vyafO6xC/Jnj1+SZ9amMmytyKx/TBr9FZHOokzRxhRO0gxQmdBN3VLWLTnKC4aLjn8G5gUBVchY4AijLG+cgGJ+GkcZ6M+2pp1nMN2FMhHlMvmg6KPuALr8qoMUKEtiyDNfPfsFX+UP+c7z9GGBywPE3R3VASmkXU4e85jPOPOtXDF2ysC/fSJ8h6Iu/6CR9q/oo48T0x11AQrlj9L4YFrHSKW/lLGQs1y+Fm5vdXlHEHr5QmcW6AqmAc0omGK6oKJcRKhb+njTWiM/kDwkWX8LjslWpooz4k2FStqCGZQNMufjD4u6vo59br8oyGd4WnyqZjbFoj+UVnsmZ+9YldfDETlztieb46F868mX5I/+7Nvy2a9/R7707Yvy5ceuyhcfvi5/+vUr8oeff1L+5ItPyle+/rw8/uQ1fXEav60Dx8TfVDeFN8InYkQfzW3JxkhkfQLHpX9Krk8X5LGLm/KlRy/KV+GQXNwQ2ZgvyKR7TKS/KrMW4jO2Y6Aocbss/jNSNcXt+ak6LRZneNRBQ4ephHg1T0NoKJ5B76oX5qWoK3PwcFmjvCQGO/pPhHoue4DVL/NK5TNFKrtPd8jAH8c7HHUNgyxKnp+2E3g6ZphXzU/5dXlV7KfMQcL6F+2lFAaoLm4G1klRV+bg4ba906GsK+9zQTV/Zz2ztbTMEYfKGwjLpcrfiCMuIHygJ0KdkBDnh1pznmkw5GUGP7p7oY7UGdEzXy/GBmMVwhVqeQTvhJ5N+DhwK7wNtSX8fQ7+dN1sNsaiP5B2by5n7zwhJ0/jK7oiF65uyNe+84I89ORz8tz6TK7Nj8mNxlm5MjkjL24sy2NPXZevPPS4fP6Lj8k3vnlB1ja30VpTur2uNJpzOCED9AaODtpvtvmuEDojE7m2OZQRX37WPSlrkwV5/MVt+TM4JN98+po8d20ia9O+jNvHZNpZlUmzL9NGR+YKtBFuVHUyZZq8dmOrQa+T+1lhSTdHEKVjXT7u+JekU32EeFrW80s8IP2unBD6FhffXfpbOGGJfJG3S5gTavvkxynIVM3XvCSOkHpwZ8WeSmMeR1Mok8B4ib72RKWMt50LSv0LceXXINark72OB8Q6OSHtZ7XfIc0yteUDb9d6IT83pP3/fqFt2n9DscL68pOxJr430OEKUBlDXJ/G1RI7Ke6MsDyNwxfjnV5uCLkwI84bQ5uo1cSiTueEeQzn0zEW+Yn0ei05eeoYHImmbCH72nAIx2FDtiZTmfdWRHrHZdI6LsPGcRk1Tkh/5Q6ZzBflytpArlzfkmZnQV8xPW/NZQxHZDTehGOCia87l63hpgzHA82ftTpy6cZQtsYdafXPoN3T8uzlsXz+4efka09dlaeuTeXGpC/D9jK+bxnlF9EmfwAQaPJyEHdJCGqLckAXkM/ODCkrH2kG/PUtqocjDMhosuNYu0IcIb9aR/VVGU66WIFXIORV6h40Yt8pL2D277ZfBepABi6+UR46rMhjO8y3reqADOXFP5O5BDs+ux0j1wnzufPJqdTPgsC8NTlZ9lZQ18ZBIvRLx8du+RWe6vgwjw+i0tfY39BnL6f1lIq8iCQd55c0Pyd4/2+Gurp10NK2EHNnAwoAO4AfLj9J2nYXkk9aVtOh6aIn+QD/vL9xZyfEY1pLlsl2RhpNOBW8H2OCyVVbKuBfwQmaExGBcizLeUjjo6HGO22+V812SHiD6Hg0Qgz+AbDQbku/15UWvyg4NE6c3idT3lPSRWeWpd1bxcFow1doy2C4BayjzAAOxAjhprQQSgvfO+eLzPg0TEPvTx0MGmhnUZr9s/L0tZl84dGL8qXvXJQnrgxlE+3yks7GuCFj9HAGDEZTiEsVsPdGFuNAYbsAn7ohqINXBJws7ROPTT7UC2F2EBfcm8KpLi8H4D+C+IRQitK1bU7EKYHH/8jT7WzVDcspG8TIYYJTma/3AyCqsnO88WVGmsWRG0idMNrETVBpeydSqss/aARS+0/l8rHh5aiPgFL93UCq4+cAp73ySEiHMRJnVeomfWKRoaa9btrWYQTl2gssY8Q5YjrF3BlYXLvGXD+5piI9nk5kyrnEsktE3mECR8QE8lI2Aist+JghMU/w5ags06YvkEyowRnhDaJYbnRQkSpNU3scVA40zV8u5RtWeemE9XSxUsMDb8pfex3KpRevyo018GB7d5xakde96k656+wZOCcjmW5cBl6UxvAK/IotdKwFZ2YJjgafgmnLcMjLPVNuXkiHPkprDOfhhkxn2zJvwvlp0NGZ4Lv5vZgcp004P004JS0ZzxdkunBGXhp05JtPX5E/e+QZefrFG9JYWJFGd1EGY/4Y30g6C0tow89zDZSVHj7fTcIdEXNGKBfSkC2eKRxZFIPIzvgJxMGxyYXZbgtuGwB1U6sfbyO0kxms7+hbaQKpA8qRWN5Jo8hTXQBcoTU/X3nZr9jfAPL1mNYdV4LyBJl0LKghIA40MQfoTeBBPzoeK5TydvanCted9Ss/BD2o/JTL4OPDQB7zA6FeHB87xkju8hJ79c/yUrtRHu0CUJ4pAUh0FurVt3mIAGn2Bstg8YUu+H5yP2XhVKFxtGEaMb6Ta8sRtBbTRvXfmAUoV0Aho4H/VF4vHkh/tXe2eVXGcA74Cy6ddlfz/SxRf3sC4aX1sTz8/IY8fgUOwMKq9Pod/dVBejozvmME5doNtDAZwfEdSRNeXrc5k3vO3ybHFtuystCRxW5XOrOO9FpNadM7Hm/Bn9iQ9nxs34n/9or2me6qtOCIzBsT8KD+Jl/lzlfS87sAlkYl1tPX5HKHA+EcElIB/pPmw+FQtjbX9SVqq+jzQpuuDr5vOoZDBScM/Y9ndxgcPOMfbG5IE/3r9tpAB92hk2ZOi1Gq2qOIQPDih4MBjsVYlpboKLb1ONtEQv1THzSrpB74eyKWzQgeBVEiQ8Ikaf9nsrG2DrtpwS74y6ywDfI5VkDq1LMo7JdhvvJaaA6YHT0j5oWoRgIgtx5zpHTc8acfxiMZwzb4M/FLy0s4WaBtcAxW6hrD9AFSx+RWsKOtTIC+uUzaT9jAxvq63nDPX/rmWPH+l8ZHqLsrYtnMEKOMV4CMOF4wBiaY/2kbPPNf4S86MyuS14kBiJHMEKOM741irqgBg+lcbjz1rFx99oJs34CN4MSbtsMrCLrOgpr8zTesM/YLveATmqMqjeRR5nExZ5gb2C/vWxP/+ON4agNY20fgDzB/yvFVefU73i7dc8Wv9qozMg/OCF/73ukUzggXHN4XQoVfXp/IIy/AGbk6lllvFZMxfyl3ZgrEF7GOfiEXd/AaY5QbDeXO0yfk+FJPVlD+WK8rt588KXeePS4nFprSa27Bx8DCLzDeMbdz2IY2gvYmmODsxtXpHI4JHBI6D3M6MVqG7gHLw4HhkeO8qsBSAIxQrtNp2eWirTW5dvE5GW1ckZVuQ04sduEYNWU83NTf0TNnBFMG2qUzsg3nhVuJhTPChvXbtKSp+YiCunVAF8PBtjqGS0uL0upgwdHLbNAH7SM4IwVIaTp/6EejnFSMGJYmmEQn/Jn4sjPCIvyHOtE8grOctpELtK8G7a4nlUKiUsbuGYFMSOj4LDkjE3NGmu6osl6VXLfltg8l2P+AeHypH4yJjQ2cWJWcEeotlFGQ0vQhAgOlCj8g6gIHeoK5n/MGnZHVVTojXo4BQk2GtJLnZwQGShV+HVSmPQAzuE5n5JkLsnUdJzPBGeGKYif9iGOh5m+m0RlxR4ShkiYMXGM9iWbTrGxAR2Qa+s7fvFNnhBJDxiHkG6ozsiIPvP1t0kucEVuHQayrzgQnHTSgBpQCovsbWOfziUxhaKPxECfPI1QED/l8j8gcrlCr28PE1JZrVzfl05/8M/nWN67I5vW5LPfmcseZlrztNSflpz78Jvm5n3q3/NSH3iBvedVxOXeiI/0m2huuATek15pJtwGHBO1P4dTw+7pdOko4WNolOg5cSAjuXPAeFl62mWBeQP8g2uaA1+TY95asYRH50he/KF/9sy/JpYvP88eEpQ9PhJdjdOuZ8ukHScfOiMWPMkCcWHRyCTxfjGIZ5wWdxPL7QdJGDlBbj/0KthCRpsvyK3Qi4XihLjg+oBflBWQoL0nHusaYTo9dwo91XAcuZ8oDOCWmMt8M8bv2ibo2DhKB7Ck76sHz0ngCyHCYx0dEXV8dpbJ1eqjyaDcISSV+RqjK+DLAb+B08P4Qu4ThHysJbSnSNEOS87IG/ql8SBH+MTnCJ8iOaKTojETSTP6rqiSphWici8L0xathEz7Wy0z+EEyvIxOcLV2+sSWf/eLX5WMf/7L88WcvyMUXURb1ujipPHduRR585/3y0Z95p/zMT7xT3o/4vef6siAbIoOrIqNNWUBb/TYKo85gc4iQZxx8syrOzsDTnRl8q96Y0pxIszWGI8RXyeOMfntDttevy8b1y7J944pMt65LY7wtzRlfyjbW36nRHwBM5GTMZSrCVypRJ6YRJZ1UXFd1ZDos45BRtctRDP6j7FU4JfnVNrKlKNzedNNilJsFXCd7wRvbDYeJKn328aFjpI5SOSt1s6e6vhN7EfJLumB56sdSeZPL93Jhd9pfqTIVZblG5Qgj9rM6GnaTc6czgqK222CwqoB6MXb2p/tHU+4q8OXvHWk0eX/GTMb8wBEYwykYt7DEd9qyhRIvXN+Sb3znefnUZx+R3/j4F+STf/yYPPYMHIVJWxZWFuT4mRV502tX5Effc1Y++OB5ef39t8nqAlyMzesyHw2lja9sztsyH6O7+M75rI2TEgLnG8jjC9H0h3HohPCpmzkdkTWZDDdk68ZlWbv8AtrZkAfuul1ef995OXN8Cf0fqGPSmMIZwRkO4TIjBd8H/dd96UK5HjvagEJ94QjHOwX+UeEIUaRC9e0RfnZYl3ewUKL9qKyF3CpnKbS41qHsLr/nUScEMsyCiPrvPGgUMjEBMiYAHsJYNpTz42dyBnkdvjtAYqB1dkds+6bI016sX5A56Mrlqh8jAYHq23PkKu9+UMhoMgf9uPwRVsR053ZV194hAuS6KWALuouP8iY5ZwhL83+0neSjZcDTnZMU8UOVmuazA/6ZfEwZuczKD7Ik2UrBGdEmLApKhce/BMzEAZg1sYh3pDXr6i/q8uZR/ZLGVCZwCAYCwCEZdZsy6S/ImrTl+Y2pPPLcDfmTbzwrH//TJ+QTf/qkfOZrL8g3n1yHszKRRf6q7/lFec9bzsp733a3vOr8aek2xnAiBnBC4BrgO/ljefMZnRFzSPT9IDAJfDMcBz6mO5TpbEumkw3U2ZLJ1g0Zb1yXHpykV50/K+9/55vldffeKcd6qDfagvQYENwZ4VaNyweydQXt6sW7YHYqOwfYKwHUBcJInlYlFOlSeeNxQTcUNlTYUlonJ6R9c1kCnPYoo7JBJzq5lvK8fI5I+5mifPzI07h+mLR88iNIMZ3GU16ADa79Qb8nR6BvJaFSIN/jXjbC6h++8VHfX7MDIJUf/BKiHkK5yEv4OaLOHuuQyroXILPqTD9GHo9g/m7wT8LDUckS9qE8hUwlpyrkQ8sl0htYp5tXZLx5Gc4FH9nlZRD8hTOeVrgp7dL6RL7Fp2kuT0S6J+GELEgLyzzv4eDOBH8wj5dJZi3G8IFzMG3CaWn1ZDjj3RxtmbQWZNToyQvXtuS7z1+Rp17clJduzGQwmMlKryGr/aacOtaVYyt9mcLJufjiFc0bT/kK9560OosynvDGWe6QmJPAt7M2uCsCB2g2G8gUTshssimNIcKNK3KsOZI33HVSPvLuN8l7Xn+XnOjPpTnehHwjafa7cKogp940ZM4Hxd7a2lSZe72e9AHGSRrw3xFGsZjiD8rg0zQTfZpmUVrtFlRFezDb8BsWWdzqFHDezsU5TecCHl11OXUjzCwrMJmvcQOfmKAeur2+3cBK4qQEMn0gjG3mJ2/5eBjwv4gz4SFyqAtddEJcZfIbWIdDmU2n+qRVo9VR+bWMVY5EtVgEgK44IWmZmyFr/VEnQTDGMVZoG3YDK+Yqf5qG0DJez1HHy09eA/vqcJ5hhz2hEG9gHQ14P2F4moYVow0gomX1L8RzA/vlcN4uALlotcQiOKzXn7ogV555XrZu8AZWXlXgTgA0A7uhSppNe5qGCX+ixilt3+McjbYEprkHTxRXRdYbUPkkDTAND8JAxhH6yxtYG6ur8sA73i4Lt99ZvoGVw8qq8j/vobD3hqgRRdKvMB4PwnQMwAmYTGQ+4b0cI+FNstzC5FtY+Ygv/aQB8ibUFwfo0rI0FlYRPw7XYVGeu7wtf/LlR+RXf/P35ctffVguX1nXJleWevK615yT++87L8ePow6qc+LjD91pZ2fo9gyDnS9G0w9oPsb30hG5IbPBJVl//puyMr0kD776tPylH3mbvPvN90lzuo38LZEe6qE/sraGdtigNmAIE++uFIodXXhkD0qzk0Gp5NUjPBL0XMrLBEUkUDVezSelvGqeGqlFvVhOqJLavJMX8HGQVIhjwxyTOA1qkUrZHeT5+wW+q46dE/ZFKKhORkWeUoKgbkM0O9QyQ+CyMR1kiMQCe1BoJj/UMvfA/iiOFxA1dSstpGX3U/7AqdTJVHKjqqWQdGdkvH1dJny0d7whnTYflYVHAC+NXi9f586WL29M5VsX1uSJSwOZ95ak123imPFZ8k3kD6XfgZtCJwROA72+frMDV4HvHiHYxAzOxFgm4embJsq34LzwAk9jOpALTz6qNrCyuiTLJ5ZlG/EbmzN5/JkLsrk9wtnGkozGEEEv0aBuoym9Vls6qD/evIaz9xvwh67JaPNFmVx9Qt56uikfeu1p+cAb7pDX3bkqxzoTac+24TDBS2uFMzj+RzsTOiSUFZwZzvgGmzj7hdj9Xke67CQV6ygljh7M2bSkPqK3TQdvIsvLSzhWzLdhRF15XKGTUYhHsnIxTycrL5MTzBpIdOjV7pVPuwh9Zv959gsHtgWb4JNdbdoGzvT5nh0929c6LBr0k6G88WSiCpLGtZjpIORRDn25GevPeLJi42Q8GujOyOLCAk7QMGC0mdBACurBUZdfi/x0R5hdAK4rzh08/rSNjU17z0ivp49q6pkV5Ih1lEI86LYA9YMwls0MO/oLgF+aA3S8zDEX22PffFR1ZSU82hvm2Gr9Qw+VhbLVQ+cA2MeNp56Xq9wZ4aO9DcwbStyJZztYiPU9I6wDa+GWR2haQwsUKBHAHU3uMnLuyQv4p7s7WGqBhnS44UNZMUfwPSPDTltaJ47Ja9/5DunveLRXlUMF8N4JDCDeR6FgWgtYoP9nUOBYRnz/Bx+95YvDuG07gYMx45MvC9Jr9OCUzGTrxpZMBnwJGtqholWN9mjwHI4JeZzQu70FWdsYyo31oWyPkI9e8WkbbvWM8V18ZHgMJ4YT4hzpDpyJTgOCD7dkur0u3flQcJRlsvai9MbX5TXn+vIjbzwnH3jdGXnDHQtyZnmGPm3BgeFbW1EP38sDzR/b05tUNQHDwUTLl501Ibe+gVWNgzKb9K8MsmOsCIZFFamhqLEhjSK2UIXisU4ded5u+RmQymngbl7RX4JyBpA8Hnl6q7ONECYV1laexA6m8rHvPJ6cOG2xtQUmzTdoWsdE4GudIv3yInPy+wVSCjZBfSppmqEDcgWd7UQokxmpbRCUq6bfhWz4F0NGrF4tabmAbImdS+3x+4DqjqBO/FKmshH4iDOQPD9SiDNIW06L5EU44UfnGljICUpkMto9JQT9Lb2sbSIrmTOiFaksKi5AxTWBTWHg4B+5fIfHgK9fb3ThNSzLvL0sm0OkpzgjaCEtCzKZ8CVIPYRNGY5mMhxOEWfb3NVo4bvQ5gSdGqNr4PNiS7fdQf22drANaTY24Wyg3AR9G8J5acAJ4WO8DRlJY7otMr4h863LMt94SRobL8rqfFNec2ZRPvimV8m73nCfvPr8KTm93IEjwvLDRD4IAlAupZDGP3DCQFNJjef5PgCPMqIuVN4ibggqiRHTUVHO9Gvesceh55Bf9315wPsfQIppFbFIg6w8Y4GnfNoO46ZDH0+5IfY3hR5Hg5VhmMigclFE/iNRVptHbJyEuqH+UYbbdVBIPZLypTp7IVP91fb1Zgg62MFz/ivVXviHMcRhRG3wf/WjCzU+obDC51DFYfmYgEqW5n+VKpJxClJnhLsg3Ang29J8NyAqTaFmo0BJGTc7MmktyVCWZNRYhlOyLFuTrmHcltEUDsDiMbnn/vtlZfWUtJpwSuB0DLf5ArOp8P1zvITTmExlDIdjsLYu/XZTji33ZbHPyzAio+Fcrlzb1BtZG+0uHBI6QehBa4a8GzIZXpXW5Jo0By/J9kvfkcXRZXnDbQvyo2+6D87Iq+Xe22+T1eVFvdwyHeF7x3Bm0Ia5VSZfMeEaLwqcxiMSwzryCDJHXbmDEXSleUV56lJ5IW28ApZXzs8KQU6C9hFlTOFlNE4Kcc/Tdirtpd+RFUK/a/LseBFFfnF8C9j84EA5zhu+a/IKRGkR8uOftQ38gFDVgaYdCf+IozRe0k/KQ+iP8+54+iRNJ0jL5wNMBYqEZ1IUH/CqZDsjyOSr4AmdUJHWv1CeHOZYCd7lIdLqdmQEZ2KARZ6vHeN716eziWxv80mUidxz13H56Z96vbzvXW+U1z9wt5w7tSj95kBmW5dkcP0FGd94QeZbL8GhuC5L7Ym85fWvlje+9gE5e+o4HA2Rp1+cyVNPw9HYxje2+sLXTY8nI+nxR/PmGzLZvijDtafRzhOyMLksb7pzUT7y5vvgjNwvr75tRfp8omc4RP1tGQ4H6CGcrRbq8nXmIP1NHb0MVVVKNf1KI8rvqNJuvCo/5TGkxRC5UrqAhL7SLlQE55M8DBSzAj8E1lau8nqnQ2dJKSuy2X9PBJ1o2uMp74f0fVNJ968QeoWbjo+e3Q59yq/LPyzkcjh85qiS3sAqG7zUcVFa400s2PoQDhZr7oS0ZNbqwNloy8WNqXzzwoZ858pYZt0V6XTbMhquwTUZSLc1lg7CTpNvNt2U5e5MHrh7RT7y/jvl1Xd25NX3rsp9d5yQ86ePyW2rbTm1ONfXvz9w/oS84/V3ywfe+Tr58Q+9Qc7DgZnO2/LkhTX5zOcfla9/8wnZHKLbLd4Q1pLJaBs92pb29IZM1y/I5PpTcqy5Lh96y93ykbc/IG9Ce7f1Z7IsI/TY3CcuDLyZrKOPpTZlPp3KbDpR0GPlo8t6ZgehVW44PNvbW3qfRBcOV7cTHtF7BRJ1xN+Y4I3HfLQXBxtKsmue5tkGkKFkaVuMje0g2Q5UjhQFQB8NNlwYCUMnnOFs3FiTVrspXXjF7Y7diOZevsrKf0ib3LnK6+Qyuvyhv/EGhoAoH0LufsChn+EkZMzHNycTWVxckEbLxtcrhmgPFrE4bWPDfkSRj/byh88wgEy1rt5XCOmjvTgB1Ed7+ds0iQ0paRx4JeiFomItvf7UC3L52Rdk88aGrkdUAYcZ5w6uuC2cbPOGX308nmtSNJwEgV+blwmK2R9zAWWhfOEmXd7UqjewYow0j63Ka/ho77nKo73c6+CP2/HGTR9Y3EkotlsIOicIkUMFNuZjaTf59pCRtGZDDdt0TOZDaYzXZePqFXn2u5dkud+Qe88tyDted1I+/N7z8pf/i9fJz/3U2+Sv//Q75Gd/4i3yFz/0Onnfg/fKHedPyrUbY/nGIy/IF7/8uDz88OMyHPJ70HH2cTaGlW/I+uWnZHDjaenPL8vdp0UefN0Z+eCbzsub7j4hd6w0ZXEGh2Wwoa965yWaFiZOPtGjCyFknHGCgHxUGTdJdCEJMhuYTnmIq3oRJ0pljyj8SCOujpqTGlWRr2pRFv7F+oynaSDrLfxyX1VmlU8FM37Sd80LcQXTWcu3F9JjVRcPqMrGtOrIdUW+132FQO3DZeacSB4pxCNeYXpxqF3UyV7obGfeUYTJaXNpSMZF229/MG1xMff1luU87vkOsIq2MgUfPuGHZLEwU2h+4DOwqJLujDQ2LomsXZAW38GBsz6e+/LGUe6IzFtdlG/KS+sTefjCmjx+eSTzzqp0wedNp3zTRwfl+fiSvsgFE9V8PJHx9hhe4Bi5DRlujkTGM1nqduX0sWNy+9njcvb0STm+vKKPOW0PRnLh8pp8+RtPy1cfflYee/wFeeHF6zjzXJRet8/eyHy0KfPBVRndeFb6s6ty98mmvPO1t8n73ny3vPbcspzuiyzwt2noUHHXAw4Ip0r6a2oM7BeNI/Ca8ESaKKPEx5jtdFgfY9WdEeTz8c1upwuuaw0IijSz8PBo8nRnhGc40Al3Rtxrp9bo3FF95gcXCBoPVPB16AX9G+3+vT94ng0WJdiByqdpB8ryuKP/G2s4+4WXq7/ay99MYn7Qhf1j0pxdm2ZYn1T3vQfJYzyBdh0hkzsoyMd6HF9w8meTcXj3z9h2RnBmp3fHxwZ2+14PDznP5wEGiPMnwTb1V3tb+mgvH9WEkpBJneyjvRgedl4j7IzwpWdTWTm2YieCLGLDA3HYkNJ+2vPwkPLIRvT60xfDzghfG6F7AKoO/WFNUItPdvJEmRT05C2S0m8geZxhbiDZU6qYKgg9eTHeCKKPO/AadGfkHbJY3RmhqLwbJPppXDTQCJvggm4TNRkEuAjnk4a0Zj18UQ/xDr60J41pD45AT2bjjly7si1f/cqj8rHf/or87scekk9/6nH53Oeel69+/bJ8+9Er8p3vXJWHH74sX/jiBfnkp78tv/WJr8kn/ujL8uWHHpUXLl3HAenIQq+vv6zbGm3JlE/MbL6ol2XuOj6Tt77quLz/rXfJO15zmxzvT6Q9XheZDFAPfaTxYzBgVEAUXpaZ6pYhQ74rg7bAXRF1QlRWg9+AVo2XoLqohkeMp3KG0ONpWnkoG+Kqq9gGwwrSOrFMGh40r0DhRIQyuugUdWKeyuT5admQ77ykbj68GoRjpHMAwwriMSTQjjqjLKt103b3+t4jxIu6CCjpx0MvxzCN1/DqviMn3i3JEaC8gDS923ccYR53A1JOWuJ7xcvRxp83btbHlIIzQqrLdrKJpykTvfzBcDIZATg7wlnzFAbW7sIx4SuQgc7CovSXVlhannj2onzzsSfls1/+uvzG731K/td/++/ln/7zfyf/7Jd/Rf7V//6b8u9/6/fkY5/6E/nc178lz7x4TQYznHUurMjCwoJMhtsy4wvZ1l6U8dVnpLFxQe6/rS0fets98r43n5d7TrelPbkqS/CB2j2Igr7Ixrbu0jhRQH3xGiIEd0TUaYNjMsZZfzE4nBL16eBK8UqgqswpqJtUX9V8OvW0lZ08j+dH1rdynxMbiHDyOMNQLk6ylj4M8t46Ep1EWZ33SibXDalOF680/VBelzmV3fl1eUeZTM46aVPebtogf7e8w0L7lQEnOFhxLz4ks2e/JLJ1RRrLy3xBqkwbfRk1+zKYNKTT6ck3n12T//TFp+VTj23K5Nhd0ugdk3mDr2Tn5Q7ef6GbTvjDZAxwB4Lb/PMZXBJkcSeCDg13Kki8l4MfPvZDZ6bZ68lwwMdv27LQ7kuv0ZTx+poMbryoT9ys9gdy1+mWfPBd98m957py5/G2nF4SWcZ3t9DHxhjfPYG3wdfE0ylqzGTKn/vVbyEFdYTLMdrVGb633dJ+8uY7vm12OhrKtavXhG9pXVxaloXFJS1XkLV2dCnop2W64GWJ4XAkt912m4muxxnLLYrZtrwmA9H1M9JWlI9/LKwxnknnRewZf+vIjzBFou06xTN/7gbCTi+99KJ0YKtLy6twmvuapfbBd+fo41rQDRxdMFGbjklupBJrzPtmHD925FZ6jbFksqAkL4HSNnCisLVutnHqzG3SaPd0/OyoW6FgCoefIIjaP483jj/x4osvSr/fl+Vjx6TT7drJkdLuOonq2FttB0/o6L66CNsYDAayuYa5eziU2++6y7bpeeCpKy3kUucu9P6IZrArUdRJR578k2/II3/6DXnxmeelw3dpgfgWcXvHluibe0ejcThZLjfIJmaV72AyR+2xrwSfsOXKyyW4y5eeIpzCNrawrm5h3uzdd7f8lb/3C3LqzQ+KHDuhdePqwYjeWKKXNHjzqg02TsxdZPIXdPnysH5jWzqzLXzJlrQANI/1fRuDkT8+t4U2tlF3AAdjKPMmOgG9z1pzGTdndr0Iiz8xwMRFDFstmbQ6MsJk3+zw6RU4BbOBjDavyPD689IaXJazi1N5272n5C+89V550/lVuedYR071ZrLU4A20vNQSBj3fJNvsqJOkPzYU1GJnLgGUkUBc506W0TRDLJYYOLY1Dfm5oKTQ9hgeZZgeuOj4k0d0IOdzgI4kJxaGTOu1X+rECXE6ewDvweHUkyJfSvu4F+yipV0Dpx4MdsOi6YS6UT2pveQI9j30P0XM5zGtIC2nC0sBHSthzMRxdFOg7KEH5SAh5FwRQtVJzE/DmyDoszbvMIG6UDmoE5LxmDaQEAZd7ah/6JDKVgeSzRv8P4XcU6x1fA28IvD0XRwYR5GfIOaHNmKdmrL5gLLsAhx36oOflKIzQs9LzUcbQhzlOOnyTahtLPZ8SqYPJ6MHp6M9uC798br0xhsItxBuSXe8HTCAJzSUdsRIWljQWrxfgze5BjSm+ALAQnQQXnRrSsCxGVyT0fULcEReknPLU3nj3cfk3a+7Xd71mtvl/EoLjojIUmsmHRozO8s+82kfOCMGnOmqL8KBgfZZTkNLFwiTqeY7OAGnPDo75XtL4kCK4dHi6cIMvfoZnzoiAdQNCkW4k2JlPR6AY65IeLxJKydE+RiPciYyaxnnQ34tb/lqK1qm4BVlUxuq1/NB8ao272njoWxyfBVa32COF0OLa1ptwtry7yiH1XiVV1fuEPCizB5nXoq0fBoveHEeUl3vXu7w8KpxILGhoyfvfni27Bp0dg0o82yvA+CJNMATakXIr0OskxtUhgo7IcpdpfCekUsyXXtB5qOBNNv86bmmzH3LeTaR9nQkV65ekyeee0meu7ymr3VfbDali7wunA06Hww7Go4RIo46nSniQBvOiAITtcUZOsgH4Oh0ZgNpbN+QOfrT3L4kty+LvOX+0/Lga2+XN919Us6faMtKeyz9BtoMB5rrgczggEgbDgh3RVoAheVr43lTbvmQx3gwEpJuq4OoP/5mDt+twctKnU5H2vqeEXxXJKtTDo8WT/VEXUDu8Wioi/YyfyY+5IY/EPSPPHrtcXFSpySA6QS2ePsAZdzDg+Ox3+qpAwwtz2TROpBP30qsmMrW5qbwPQFd2gafmLDiCVldmyqY4ZlpeLA8dTpiuuDHEIHukgI6TsAwWUDUBwZH8TTNRBb5pBXni2AVRqG8hkk8tFfixfAQ8fCn0gY98ZhvhKdp+KQV34ukl7S0HOsRpDQ8RDz87UsOTKK8l3CkP5Q3kZWVFbDBBwrroP2RKnVjeLh4e+qFwawp1565JJewfm7e2JBWy548a/IyDfJ5iwDfS8Onj3ipUy936mKOlgG/HMgwInzIzwl6RYLzg/44TUPfts6ZgTSHXCPkTbod6Zw8Lq9/8EFZOHuHSK/0NA2JKmWDvPaNEFriY3syHgAb0pNtOdGfyR1wEG7rjWV1/JIcGzwPXAh4Xo4rLgDPFXnD52W1hBcSPC8rw4to66KcaW3ICbkhx+W6nOlsygO3deTdr79NPvCWO+Ut9x6X25ZgwJvXpKH9Qb9GWEz4QjS+J54HHEQnBEsjgHzdYg4ZJUKdOBk7MV7wfCK2BYz8APKUqiHpiPBcZrMtu98nZBmhLPLphFAfHDh81LWNgi1Fq4ImUORx0PHFeuXw4Hjsl/7wIuK8bsvFpEVoGUwMvOu5Q2BIwQExoj24zoJtlIh5iU5jPANeas9p3/W4sxxBnofkh10hQnmMkx/y6ajFsUHy+FHnOagHEsM6nhP5aUgKcZ1vLLpnuUPBS8GA9hFAfWgW/oXsIhIZoMPCu9nxDTKDR67FCm5KaZpl0tZ2Q46U9utW+ogTH1jFxW/J6LmvyHTzinS6PV71wBoP7wZhcz6WfmsiN25syrcuAC+NZXOCs0Lw4cuFZkjFksUO6G05WMiUTw+Qzg7SxY1yRuRP503ZDrd9cF9msT2XE0stufvMipw/vSynlzqy2MTZ5nSIMw6EcfJDmzwDwYI4RcjnmNlnLpQttExoF0pkhzz2AnX1F4TpgCHOy0XXrl3TBXYBZ3y9xcVoJTzfDUIdYaJeISUW6OmYN7CuhRtYzynfvF9GqGge10DgWbxyfFkWGao5nYzyo7naJwiyaT8VJo1uKaut2dnvSy+9qO+fWVpekW5/ATzaHORSJ95k506Syox6bCsvMlns1MNk5Ji0G+RcepKF+j/I3+AvZeNstwFnjU+68QbWkd7Aehq8PgrzxjyvX0/q6B8BUk3RW8ef7QJiGr14UW9gXTl2TNrJDaxmVfVkms2fVF6L7k2YN3kDq84bo5Hcfv58nK+pLz1zRvyImIGS2sFuRDmnHfnOZ78lD//pQ3Lx6Rf0B2FJ3DVQRx5hFydCQ6w93C3hzmtKaiPVAwCmP4uRE2mX0M9pY8rpVNoQr6s/kDvHGh1uYF3sS//+e+Rnf/HvyW1vfVe8gTU4I4/I8Lmvwhm5jLPCri66vEGGi3pHJtJrjWQynsrFjYY8vwmlTXHmOF3HF/GlZlSmNhXC0CGmA8scE88PIdpnjBMhX642mtvL1XiPyiLGMd/cenyhJUuI91G9o0bMikjoV7I24upEgAUnhbsiei8AYuihvnClmAj8yFmIKkZolxMsHRHuCPEJkutXr+mZ8cLSkvThjPiLaV4pzohKCQVNxyNZx6QyGo/hjJw1Jo8DdR5KzsKd0qohZbt+bKnj+YDe0xo5+RHl0J4FueiauH3ESxocD4hfunRJt+HVGenZ0zRqHtCLP03C99mYfecor/XLYT30UWxc/oV/4b+XD85Iqx2cEdgGFpxTp8+oM6InBqHGbnTUnBFdYLGg8MY8f5qm6ozcjFwjOWtG5bXo3tRqyfBmzgjSlPVoWILZwa4EIRvTrnznc4/AGfmmOSPp0zTQBWvTQYnOSKU9PYkPLA/5gFu5VB7kx3TKTQN0cE9n5O/9otz25qoz8uIjMnjua7ozYj/h35IpDQjORnc2lE5zWxeUzfmirE2XZTRrSme2KZ35KE5j1ovUvIq4xqKCA59nnJqyPYxGexmTOheBCb4P4A2qkIRvVNXFbM4DCI+ywTeyYtLDWTknUYHQ0pjgIE3Qk5GCU2xzjrJz+p7pISv6FM/p0S8uHnatjs7IQB/t5SWFxeiMmIzqVL0CSBce3RkZmzOCSeW2s7chh/oOoPqoO51ogmbjMS50rsXCAsR2cyRdgAntv6cYsr+UjyGdkbm8dPFF6fW6sghnpKfOCHSgQladEdp3nvLSqXA5rYfWU+VADuNRFitjIccmFl3IxjmCzsimOiNDOf1DZ+R7dkZSbeSsGZXXonvTfpwRxGkHR8MSzA52JQhJZ+S7n39UHv78w+qM6KO94OubWPkwB4rVOSPRAeE/qo3xwNNlz6JZkR/TaYuCY8VGP+uckQU6I7/wC3I6ebQ3OCPflu3nvg5n5KpOqLyWrpMGb0id8hHedXUIxq1VGQKjWUuW2nNpwwGIW9Esr8SQSCdjTn4gTVZ4nPTIasJ5mI6BIbIGpm3d9aXjgf5MkJiiTHsVBx8DnTx+M/oggjoNPko8QP/H4KPBaQ//2QAn1YKKvoZ+Q15zRpAHI+Av/V6/fk23yuiMLISdEes1v09rZUmu2ZeDGq1m3BnhIDl9hs4IM1RR9mUM2zg+nk51neqpZBs5kveVYdpHxjmQaKs2gV5+/nn9kbzlpWU4IwtahA+EUd6SM4IMvn8n0UJGxA47SDZSrbdcMMijLMXYZpg6I+NR6oyEyzRwRsrO/07SeeUwU+w+dMJjHs5u6YxchKPqzkgHNsKfxTBthEpI7JA+nupacBP1/eDJO4wwdq3UR2SkQiXOyADzxx1wRuzauenLiGMJQW6yVigVazdSEdK5rkJcNwXOyGOfe1QecmeEl2nA57u2zBnhZZrCGYl6CoH2A3GG3ifb9c+PvH/ujNh7RjB/wgZmWFM2Ma0MFswZ+egv/oLc9qZ3iRyvcUYmcEZI7XZbBeU9GvqEy3RNnY45HJEpnIEh5tp2YwQnBYs4v76kmOCE0Pi0a4y742F8I/BYSYvg3wiOCBc2dUC4AIzYO6Rx4AQDm44IHZImfyOlBx4dJrbCm1XhjDSHWEDHWBCmcEog8biNPHNG/GtUJsD6ECbaI+SMuJbZQ5fX+n3rPOplOB7LtRvrsj0YyqmTp7Ho8py6gfHD3QDqBB9WIFkljbIV/W2CEGfPmuG4OzcX0l7hX6G7sJzqP+Yyh/bI+wImMtzYkKWFnhxbWtTfWuJtU9SF3vSNxZj64KVCVrd3reRIlMtBspFqIaCdLpwRPeFAAb1kRUeLL2gab8v6xppsY8E5fea0tJs9afG+Ga2xOx0dZwQjQRcOOiP2OoSLL7wkPTgjq8dX4Yx0zBlhBu2HCoRKWZ335zSgZNOtjRltVhmMZEQuL8LYtVIfOTZClMR5g84IX1ipzsjdKIICtCGfExCP8mZMPHIkdpP99ZDkcR0lQa66cnQaZNaTr3z22/KVz31TLjxzUZ/SZAG+4GwOZ4Q19uOMlAjMKisHcrmnLdg3OtjCse7yIROuoVjeB1DYqN+TlXvvkb/2f/tFufft75JmyRm58LDceOarMhttSBeN6BtV6WjwLIg3qsIxoODzRhcDqSt82SmWJJTjGSAz7KAY+SEkedd8UkbaWSRtVDuBUCOhIV5TZDtMg6G7IHAsZojzJjm9ZMPKBPuAstwhIZqsi4OMMrz8Y5dz0E6g2A+AOXqzEJL+fbwH4saN6ywkC8vLsgjMsSjbS2dA1kCWVEi5O9E1o4ZU3Ui73VM+cviDTdLqyBZ8wWZnQda2hvLo40/JH3/28/LsC5dlpJNrS3cDeC9Ji44rG1EdEuaw8H0vbI9p/qc98cyaOs+JtM9YGCYaY19h/4xqr3HM6dwilw4yL+0twNH46E9+WD70rrfLqeUlOMiwvwmUxd1EyDeb8VIhLA92xXGUI1mv7H+5izxusAUeThxTaoD2wFcf8ocuG0PISWek15YBTlRujLZkazaW5dVVWWx0cMpgjv9edBScEZ03IGmDiyzmo1mri5OYqVy9ckNveO8vLWihHnU3wtyJOVRasKPO1F4SzfqYl1qY15rTME54IBT8kozID9eU9kC7wD8bICCEvBzJZFgKeGmKzvj2CA7JeCgrJ0/AR+9Iu9vRc8wp5pM2F2HAHv8M9TIkl3IvUtkhC50ITqp8m7g6X+BxXsRRxuzRl4/97pfkE5/8vHz7saeRpgUZoRi+p6Frag9zhjq2cYyoxi0W9RTyQpCb+tgtyjNExxpYA/qttiy0mrIx2OJNFjjuKAFbOH33XfKPf+mfyWvf8S7prB7TuuaMPPuQXH7mazCkLemicGNGjx7OCKGLCIWm2DAgWKP6tTgK8+QumkIpQUslYvdI/M98DxlUeHp0SR6S+J1+AHnQGbI8waHNKENrx2py6SgOuhNr6EqMXJUE8TDMFLxJ8cb1GzCKmSyurMjS0pK+a4Nb8O4B50om9x6E7mOJxDHkWb7JzTHEivpECNItTBzcct+cYBDB8by+MZKvfetR+Xf/8Tfkm49dwJnwGHqgbql56st0UmiQzghD6ouN83gxZZf0dh6Rgyf2V61IhaAzYjak4FuEg52z77f1RP7B3/ir8tEPf0DOYxFu8UksogPnt816cGs60DJ329gqG4na8ZB0cDxd+ALPhk1RjpOFOiOcJcmDE9LEpNLk1dBxWHHgjGyON+X6aFM2W3NZOXFM+rOWXh++2fE9Ks4IXU/qZYbY9pSXNOeytTWW/sKSdBd4iXgmq3TUN7awAg9E2hg3vYlgWCGHNsaHANrQK6doECdpXppWKo6HhaQD4oXxTWdEiQG34JlP4+HCy267MzLlD5KOZYtP4iFcOHEc9tTQe2habGt7gqGCkxnY4DRZP3KkoIG9ifMoTzwwXmjaU6yZ1Al3Ssnn/Y1DOCO/+rufl1/73c/K1x9+UvfyvW0+KMF1ZRsnNV2uMdARVUpKVZPMSJp2yk191kOc3DUxH8Lh5oMnXcyLg9G2PojC/nI38dz52+WX/9d/JW9993tl6cRJrRuckW/KS3BImrMhDGYsDRgRHRFYlVXWBvCfk7ROJgCMaRaNif/I95B0UDxbKI3IryEU4MHVDxcNyKYImdevXdNrwMvLy/rT+dvcPvMdAKW67z04HuXYTzkeMw4Oe0Mo+RgsnFkRpTNCDfAsRnCmd+nGQJ578Zq8gLO9R5+4IB/7/T+S7z57VQeNT5ltGNlkUv52wvN12uYX6HeZLfHrciOfR10I6oE9VuLCTT6I57B39EX+zk//qPyV975D7ltZljbOAOc4+53DGZl1MJGgUKMLW+FlR+pUG3LteEg6QJ52KvA4hDGuzYrwP3FG9MgOsHjgGLZnsBWeHbfhzHZasjZcl3XeMH58Sc7dex5zB2wnri3+fR6SLK6mUOHVlcuWp4szNMX75TDhXl3bkif5MqutkYwHc+l1FqSD49+Gjk/jDPAM9Nafwz5ayO+NZczhgFHQgqG04Yy0x7z/DX+tGWzHR84++/KD4IXLSOq0gnTnTO8HCMA8yeNOn53ERXg8Gcn2HE7JUl9O3X1ehiyDM+QOnLcW5gu+LHCCUcdHDvSr9tuXHyCPY2Ff5ZCkzLzp1BwJ/nxG4OkYojPSlV/7vc/Lf/ztP5EvP/xEnG/YkjkjHGZ+7Ll/7LGUrEfF9xe0e+8Ohqf9xwktN9H1NRuwE/5kC39WhjJBM3LnnWfl//XLvyzvev+PyOrJU6yBMqDJc4/IlecfkR6MTC+/zIIzoguUFgsLMZTLL+BXqyPiatutWwfDY8xS4DOL5NlFRIn3MuiP9qkzYu3cCM7I4vKSvl2Sz83roqorN6n+ew+Kx+Oxr8FDo4Ah6PHTVQESc8DwmOr9P/hg0uBbbL/wZw/JH37mC/LYk8/JxWub8shjL8g2ynEg8ah76ySG/k1uEV4GitXvMiMsl/WQdJA8lckPLTJ4kupldO0BMeiBwaubP/Oe18tH3ni/3NvvS2drSybb26q/UYOAPbU7GEOQGZXZVm7kMpG4kIR7zVRengDrpYSgj660Ve4ur4BiwuTkOYJDch0nLpNjWGxee7+87n0Poh4mUR5rbdtb85Bk8cPujHAEcfyM4YyMcMy//q3H5Lc+/il59plLMlofQ58NPRtc7jTlXswdHzp3Xs7CeZs1R7LeHcsIBtFAGe6K9CdtWeB9cGhzgtV8grz02ORBNivSTuiI0DZGMBjGmcEfwdMnJnSFhc13OrKF0T9b6cuZ19wvr33vg7yjDz4NHNrgjHDCoZ3N1KFhPf4r6/mgebby7aMuk9EZQRI2oQcx8HglYTxvy3/63T+W//Abfyhf/sZ3dGeExDmSQ4ZN6T2eiLI5hiSfkpxYtI5CT+p6dyA8lQsntPobNXBCeMME+TyZo0wdzB/333On/LP/5f8pD77vg7J88jS4qKPOyMXH5frlx2W5B+/1xCqYOBR0awgaTLqU6LfyHxCdkbxo54Amg332kIQQ1qPXwUm0CqT1JkU4I5S9vbwCLIuMUYZPTqgzsqPxA6dbmsCCnJF0NIB4rElwRnhN87f+z/8o//rf/KZ8FZ48f8RwxButeLsOVMDbJHjrAGsmlhG1S7A1QvsGRnqXT07EvuoCHDpHc+cJauxniHAguTPyvvtOy7vPn5X7+guyyPtmxryGMdPFaYgW6dB1MFvn6oxE4dA39s/l5fGa8vgC6oyA2cOR6/COf961PoScUMQA/I02nPXzZ+S+D7xbHvjZn5FGv4eDjEpuT7tRanuHkLT31E17LtvjoXzyD/+z/NL//K/kkYcvy3wIRxQF+sg+2WnIm0725SfO3yu38yclYBlbnQn0iwUbBteatswZGfNhASxYrTydEXNFCvtQZwSyM04mnRG+S6ITDitn00045f07zshr/sIH5NV/9Wd4X7eStsVrELQjrDV6P2CmdKtzKk9mdbfZ51FeoiGP8qKx/+Pf/Kr8h1/9mHz564/BbjCMIPoYRak2Pc/F9+m8arVLxK54d26lWwdBlIcaoPPp974scMd4ZHph/xf7HXk9TmL+0f/wP8q7P/AXys7I8KWnZP3qs7Lcx1nQ4gKYMBYqNU4cNJpgOMriP0AdlQwpHjHvHxmMe0hiCMBbNzbikJnXOzevXtV499gx6a2uwkpgPT47F43nQ7fSJVp9uiAwDfJ3qXAhHWHw/Mav/Lr8v/8/vyJffeg7OjBHVBVUQDUcg17O3nZWVleWZLC5ASYfYbRzRife7skfLLT3CtB6kI/vvZWu/iCIPeYCQWeEcuqNhXAk/CkHluDGKX8LqQc5z7Vact9iV161sCB3tTqyAq9sAXK2IOcY9emMUNo2GtNLF9SbaoayW0g6UJ6OW+PazgiPip0Nqi70OFMhOIpYONuYUDuYJdXBgsOxBj1cm25L745Tcs+H3it3/5cfRU2Qnvq43nah1PYOIWnvIeKoK7IN/fzO7/2B/A//4y/Jdx+7Lm1Mm7wDhM/6nYSe3nFqWT56/+vlnl4X+hnJdmeExQYOC3WpzkgnOCNYmNQZ4V1YL8PxfRl5vMfMibshtI0xbIR2QmJAZ5aPcJLGWGWvz0bSPndKHvjIB+Xej/5l2FdYTzB2YEAoxPnU5ptsSQ16n8Q5juXV8aAikOA4QMCnZWbAr/3678gnP/3H8t0nnoLTAWe005HtAewBauAtAPwNNN6SVauVOG9yLnIKCs+M2CvKMMFkwGmFPxOy0GnJeLCNiXaiNy8vYO48f/4u+fn/+h/Iez74IVk+nTgjmy89DWfkOTgjfJnTAgyMWnHFajGAMw216zyGgGkpQ2Lf0v4z7iEpzcPgw8TCt0tOxiO5fuUysueyePy4LB87DiVCvVycdOHOVmCjm3VPnQOXHaQygVVxRn7tV35Nfvl/+3fytW88qkbFu70Z9hZ68pa3vFk+9MH3y/k7bpfR5hpshXspWMq0XWtbl3As0gRZnN44kG7WvR80sbe8mW6iW890HuBIYKHgrob1Fv3GeGgD/clIGpcvSePSJVld35LTo6ksDoayhFM/bsly+3WEkJps80kJtGFztrVThKQD5LkzguOliwn6ycWnzhlpTOb6lEyPaLQxcbbk+mQol0Yb0j57XO7+kffI3X/j54SviNfTPWIvSm3vEJL2HqoZdRu6Q/Rbn/ik/N//+38iTz5+ifeo6g4B/BQ5AX2859Qp+eh9r5V7sfDQGRm0R7CxKZwROHiwMV6i6Y87Oi7GLe6amDNSHC8PSQfDo2NCop1wSJgzYmPG+dwZ4Y4Ql8xJtyVX4YzI2ZNy/4ffL/dy12yKRZdrCuaWRhvamfGhCIyNMPdkTfvposvBNZN6Yzo45fPJVKbjiXzly1+Tx777uFxfW4NP1pVOvydbW0M4IBhj0AvffM543CbRLzYdm2YZcA4tePvq2w+YggbUGaHzylsgesBkuIW+Yw7t8gdGu3C+evLgez4kr3nT26R3PLmBde3i07J2Bc7IAs70VpdVYF2cdOJwxbgzgiBSrgrhclDfN2MFISCfLqBkQt7ZZKJvG71y5RKy5rJ64oQcO34CuuBUza1WN5SM6WbdY//1uAYK8qTOCB2PX/vVX5d/8S//rXzlG4+oNjGVqNZOnDouf/mnf1p+/m//TbnvrjtlMtiQRvhZAF7e88HChU2dEepMkbMzMtNJlpOtOSNYdIMzov8hVxtnd304qhcfekhe+OrXZfrsBVndGEhvc1uWGnz8lQPQzgypK/4cAabb7ORNieuJOSOmBz3O0AN1wVDHx2SGs31zRrrcRYR8N6ZDuTzewtnvcbkHzsh9/yWckW5P5jjDmx9xZ0QJB3XKJwSgsN/+xO/LP/rH/1SeevKCtNQZaejuyAno4kfO3Sk/fed9cncLtjAfyrBjzkhzRhvDJE1nZELt0gkMzkhuBoPDxS61p5gDKTcOL50RLjTkR2cEDI75AabJaxgrjTtOy70/+n6572f/EkrxdlXIhrmFN7JyPuWvGuvjsLnTfo5HmFO5ZlgS8wacER1TcET4Vu8Xn39BBoNtLMId6fcXpdXryWg4VgeEJ0GNRkfGdNKacNhqdhd5usDvKHKg9P307QdMlJmuE+8h4y4grYL3jMxxIseruAtwwqawpRvX1+X4qdvl9rtfI81VnPCDojNy/RKckcWOrC7ydetULIwHRsMJ1RZhc0bU+QuUoS7YcwwanmGgo2kHQ9JYlMsE4R3PfNcI03zHyHg8lstwRngD6+rx47J6zJwR/nyN6qHU6MFTcjj2RfHaZiCmSZSXxLfvcnD8+sd+R/75L///5Etf+2Z0REhnz94mP/9f/S35h3//F3DysyrDzTU98+GPJuq7aUJJNUN1RoITq//z0h2JdsLfNZqE+590oZhx8bBjzSdN1KWCbF3Yxgtf/7o89kefka3vPCHH+Sjn9khW21iIITYvYU0x2fCSj0vssVxIj453CQl1RsK8Rg24M6LOGT8jnONwgYUR8KZcLkIbMpZrONPv3XlG7vvQe+RVP8fLNLAALDD2SvjdKbW9w0ix95gzhlhoPvaJT8o//if/TJ6AM0Id9uCK8MHe452mfPjuB+QvnrtL7tL5ZSiDzhDLsimbzkgXTm8XDgmWZegVUzdt0I9NLhRspBPmB79UwxSCaD8tvYwtchWLzhqYnbvPyd0ffr/c89GfkmaPdsG6WKBhSzrX8B4CXV/you/FOn1OddvmekIwPcGcMRptyeWLF6TX7cjJkyfhjPA9NMxvyoRrC+roZW2U57s5djgjaJaLOqnQ1/fS0z9/Yq+0ZzgpmeA429M0emqqN3bzSbPt4UguXbwMe1iWex54o7TSl55tvfiMrF29IIsLHX2UVX06GgyVq94rdwVsUVGF67dpyiIZEXvEa+L8VJ/24f/SwaTDxbN5nSwgMjy2KQYTfwyNz4uvHj8WnRG+aI3PR+d26qJH4Fa6pDKolphw1egEQb+EZy68P+Tf/odfkX/5r/93+dpDtjPi5c6cOS3/zd/9efnv/tt/IEvdpvTbvGmP7xAhWJLtkmAdajs+sNgAkRvBUuiMcF8DXed9Hnzs0l6sZ8dbJwLKNhnLi1/6M/nWpz4NZ+RJOY0JdQnKWmx19Hd8RtDrmI87Q0y+Tl8VmiN5tygvsJszwgK8TMNHe7uqG5QBfwO6utoYS/vcSbnnfe+Q1/+VvyyN3jJU1qPgrLg7qXnov8NJPv5xrAeDkXziD/5Q/un//C/k8Sef1d9i6fCGX8i3gnHxI2fvkZ8+f5/c3eYu2UC220MZtXhWQxtrwsFzZwR6zdQZ8d0z7n5wXXBnhEfQbacNJvPZ+U3Y/Docsdb5M3L7Bx+Ue376x6TZb+uO4Rh5PCtmuR7shE4Y28iJYnf2fRy4q0FzgG64TqAF7vpw/KszMsK8MNyUS88/Iysri3KKP6vBG5p5gwjHCh0PjC/MovqdfPqmSpx/lIvmi1xVeHZEDdBG6Izo79vhJI73jZCa+uv4LRlgnNy4el3mrQW5/e43iKyYM6JTDp+cmU/HMAyc2eoLzwjGoYSYLvi6pa+AQhUeP3ie9ZmhlylALy2FloXB8F4RW4zpmaIo8rSOKgd/fBeJ8xT768sPglfIa16oweM7eayb8vTJKTV2onDYmuHn4PFNxkjCCYxqNBxIl/cJcMuI76WZjoBhAOMjacZ4eHdNroA8bRzjNnTSJBBvwtYdriPOzE0OrCZSGDkzxDkxj8GftloyhT4YztptW9SxwPCRzak+tlmEB80bo1+KhFdXjjdUzrCoxjrkt+BwEeS1yINeaCq0H+jObbEcFvHCls0Wy+Fh4VEWzLeYeVtcgJCe4CQGEZzlcu/D3rHJ+yQ4p2jhcP4bVxQUoBPMd4tQz7xEU9Z93fE4GJ4ea8Usgn02wD4gIx/T5eXOFp+cmI+xEI0xP0BIPnanSxRCnLA0UadFD4TO/U31/IPn3ep8SnC9YBr/FOSl39EED+coOpfwt9d0HaVt8ASOPKZ5PxoBvTGdovjOlJ9+R16g/vSX8NFPuJ/qV8h4ENN0UHhLBG9m9TWFxDGDf0ExoaAKi7SGNKY0zQYZV4TyGcIOdoKgJEXgQRjIjAUYBmN8hEQop4p1HsuTxzBTRFn3BI8fQpWNxxN1GQ+htsXJgwtu7Zk9JlDYAJ864rrMttQhCbZh7QXb8HgM8wRlj86HypL0m2NCgYkG0EuAkJu6mQLmjAB0TDD5MuTvMnBytjNdDMxKeNC8eSks86p1oRzN4zJLQEG2iJLXgB0gDsWZjnjMjzxgF4TbA4AlWcbgUUPcYWOMO7P2UkgsRgTy6NByYdI484LuCt0The7rjsdB8HTnEE4TnVC+Y2SscXdGzJEi+Hp3vjQPbgwcMYwr3SRDO5DX9aY6AM9OfJG3Q7/5oDxv7gLOH5gzqnybQxi3PNqAOh7cHVCdFN9j4HyDsizDnw/gy0e1bgiZ5+UU1fr5IK4tKiOPPUI6Wc7j6KCTRkc9IXVG7IyYC27wWB00opLSjG8Kp3IY93Qa5sDjwMeZrCJMAhUUdQwu8w5eQMG/1b78YHiFbB7fybPyAI6rTggIU7ixKGgPpJAk6J7QTvQ7g83Y94fye8DK5grIoIPIj3el/0EB5ojYmSC3I4kp4E4JL9HwTJGXCuPikxHicXNU0nV1CDvGSdkkbfOE643wuaKYMzy+m+0eGp6PEyzUXHxtIeZL0HD8oQWfbmkT9gi12Ze+XBH1FZiIGZKnJ0LaLtKE8vMB+09QFn3qDLLS1h329JXlOeiEqRNDp0Ztg8eeOqzRZymd8g+eV+hhj/k02IOlAw+hgzyze4PpguPBwfklxGkr0JeXLb6rSO+ct/IHZfQwhd7ykVBwRoJDQmFrvVUMscBPFV14aXlBvUguLLrjYTIVfQYoiyLUCYPF5eOvEXOyUONReH75e7IB5XDU5Vfg3rqlC7mjfjxN49hBNCDTjekn1FH7qBobAtbQOIEJKkvgDBB2ggiQHm/EfTJVMA45wge1DJyEMSFzcdL7+BBSN/zFSl5T51Z+OTxYnj39YGE5buUY70zBg8h8isLeMYKQ5RhnHssi5MKqd7Wr/nba2lEDX4qo4HtBoCy+AGyoOwZ8rBvA4bdzX1gIdxcQ4yLiTghfIGegXh3UM/Orx8vDg+RZvzk26GAVcMeEtl/sjvCyDj/cIyIov88nxYLNtM1DdTrOAvucT4t5syaf8iM0eQs9FPMLEPRjIfVczK32sx02R5FfnrMyh84LDs4PnFsd4HEuZTwhdUYKYmZArEh4XmhEwXRQoqbT8KB5VbCvSf+pjCgXyfOdl6Rj+YA9vzcDnho54qUwxDXfZUI8lc/DCObVERbaVD9ad7eyh4UoQxWUKY172uNVKvPpyPHEEHN2dohddQQx2V+sJxaCr4sRwwTMj0A6nvy6DdXZ5JHiQWgAbicW5LDkqsLABliSyxBDlopE3RGIBn/V9Bl4emxQqXqsckAqBslZlJGgVmzpDc554FFHRSmr4TvqNv84vBUPM+KV5lEPKzwtS1BG8DQ0cB4o8r2M6SItF7FjXUK50nc4YqF8Ke0i4zfpMsdBQqa6SKqYOkAZtQrKAehfHZHNPfbS3cpg7vDaMIUERJ5Wrvuuw4gwmDytceeFMID3ePvkycu/GkIftl2IMtxxMsUGFGQcuwBY5KT9yAkkLh1lGQq5AtQWSAyhA8C3UX0R58/KN3C2awuLPRqcG/jEED823i0ePyHfwfdH8C2sDqYdykNo6qF+XJ+vAGCV5mUIv0wD1RkwSFhCRxPKME71aDaLaVXTmaqM+eQnxyc38N07zWnAzBC2ANH/MMYbBo4K3znB+bFJTwExLpoYF3w8XMeI5gVdHmqE+VKPONIxXvDVPUPcnLCgDyWLx0sY3oa242VZjhT4hwLodEyarRtMHhdXRU6IFhXKBqMCSgt2rGClLIowWwRlAIVT4SxXTKqgBAy0joeMGD8Wssy8EAW4Caplk8FRyEuebRPqNT+UVOCfxZPBsysY2MRkYNrytM2MwD6p7KoRfOKpYEAok8LqcgEx6FkuhDRHzfJoY3yPQJbAsJ8hhAulqOZLAk1zmkCo714JPOdjqUJIyyBB8KCjowtuQyfpaCugOFgiJ+TSxhCWxkS424A3Qoc0j4vrNi/QKQmOiDokSLtDwsVG+17I5RpxHZC0FBjpuMsaJSl2h80diGs9znRke5r5Zi90zLRcLJtAeTYXl2wrItRG3PWXM9jnZCggrf8RFvBoSpxJwITB4dzX3guBikklJf0Choy6Sj1M45nw2EckuOFBJN03VHkh7UqjSdkCqslQyNIW9e/z8IB5iLjM5fg+eJUPuACN36fHYFRgawieefj1g4e1aYr2c9oFtPVQPkfEG1Ktp5UPhaJ8JrM5IBgxBAzM7qsI91ggTeeEOuDeEh/yzBl8dy7Bvu6FGeYHOi5lPnm+Z5aSaiwJSRZ3fRo8fnh4Zgc4ujAF3jPDY09HNBYIsICLczGfmPNBvfNmZ+i92ZRRwLjBn9XfeXwOGn7sG7MWZG1JZ9LSH/nju3i4O0Y+nRKOd3O2TFabA2AXqggqJGgRf75gaZbC4xnx2D9EDB6v4fFT5WkYYK2F/5anZAURobMCjRGYO0p1I1imjp8zEhE9hE2oEkgIaScp6SxivyFiS00kr2xFQGR4Swk5Oxtw4UsGBMC4ee083hbuSmFQReUpSOELQpAVApmce6M8QQb5VGcuazKBIMKj78sN4RrlFGVbkdZqJNRTJxA8a6bQp3I0khP0L/Q5gCrRT5CC5VgAf9xmJnQnRG86JMgzR4Q3efJV8nMsLnznyCRDjJsVJLxJymeacqQAr4S6E5ijDMiqIwXHmc5nF54Fb0DlUIgGBGJRvlFTQ+5+wOEgJi3+Qm9LRsBQAWekDfAYAHXH60CBY0xnhM5HB06How2Q15zzbcUFbKxzDiFoF3W2cQjsBeSHcy+ovDFtc2uorhTnVTA5jShpJMCjtZRkap3km5nOEqGvMQ7wn4aBNJkyjDiTVKhSa09ivpdJw4Pm7U00j72JB5zE9naa187wsPFINkzK+QWFIbQHeb26ut52HXn5NDxoHvuMHhdJkLkjdvzDSoOk33iol2JQRycgVk0E9iiLZAl00BwuIwvZaztyKbiQThDykWX+Jklxc+ZuVG7VwqPGI7mGgi0k2aZJ06Yz+d/2GrFgY9oNRUHlMvmBktQRc8u0k1Mm10tB/i2kNDxMPI+7bEV6b6ovt1PbwcZCWJB/t7eThgfLK/RQ8PZD6ozoi1amY+GLrObTKU52+UjRVOxNpMjTMPAT2OOcGQL9skd708fHwotkxKDTapDbzvAhE+P6Mi9OF5g6mM+X1OQsK+H9C9DHs5MwxlHW9II4X2bn2MHjtOn3Axi5ScUBAc+X9uLtGkyn5PEtpi2geJtp0YecwEtOTURbWG3bk6Y09UUhEAN5M8gz58t61C5oCxPdBeHiwwV51GjKsNmQbVTZbkxlAPBH4vnmTY6f4nvoyKRhBjx1sAIinztBfKEZnxRBDjwvfdtqayb21tYJ+BPkozygG/lRP+W5YTcU/TicsEc5YQvzETQ1gr7Ihzp03rWfleCo0d1Ebpch32yJW+2qVKAFm2vo+GhxvgGox2J87HHcDoBHm5iG4z9qTjQcI5zwx/0aY7UJ5vvL8Sgz3zyrLhdlgpyE3tgNaDx3W2D/ArSvSViKQz9mEwbWZZ4ixO2xd8gN8BKGxv2xV08rpXoPbUVwPUqQlMkJ3l99nJlrgc4NfHEb8oMdqNwg/gxLSuaMwGjsPgAUpEIUVBANEUbmPBomyug1Ls138ngePPMiccB2gPIBKqsDSgvluZBSPr4ZTl/jTF7UCdPV7yt/bzkk/WB5nAgJj9fzKEsVHCRpmnVoGl6zTHpFD0x9lpztJvo0PfO7DHTq1LELaaNqSDoYHq9f64vxcJj9iRFODsWuSABlBfwGVUozgSJGCnvHhL70TEtbfZYzeDwTnvYNCYQmCcnTRoxRFdxB0XdKwEHRRzf1cZBwnDlWOD58jKgNsWY1rMadPH6YeJSD4JGmRni0eYMn87i/Zg6J2brNn1beaK73WRjscp85dPqEGltCtV2P20HwVA477moDcDgYMk0HhI7rjpecoaL/tIbahDrwgMpn4BjTppU8Ehmgg+fZcSzidTzVT5CtxEuhMnu9KlkZdVICeRvWDijqysqWQaqGpIPkUV6bH3RuAKJOVBYC9s9LvGokRuaaIK3Cq9K8MBuDIcU04A3C4OzLijr5gH3GwGDIgaH9LPeXssTyqiArZ5NGiJdAhSZ1cgaP425AvsljOjBZE/kdKKs3IeFTS1o9lEF51XUJ/K6y3gt+XtB+qaOBOAITmZJzIQkfLxdlwZ8FmIh5PwAWbALjyGp5vsayg018AMLycUzTJQ1ATkvz5ef87/pIUdXtUYTJypBOBkFd2vJhjkgzuCMsRl3ZyZtW4c6IXs8LzktsF7qjTrWtzKAymMNRgnE1rpahMhKsQ5hWrB0G1lZBkJuIOsgU3s9d4Lbv8rEOZVMEnqd9XBk/geYzWuEn8P6k3xf7mBWoA++fxdP8qkwaD2TOSEKceKxwIbRxnZ/Cy+QJPfjhjNYWmwDN5yRBuIFU6pV4jDuKclkiyrs31BBCWGcoBrOJOlKLQBnTUxXBI56l+nXg+7NDXf9CWpVAMEhkSeSfMjSO8fyDOG9izBkuw57AJ6VqPv4BqT6POuzkRNWSqIbuCBfglO36i/rCR3Vf4dGGqscmF6h9RwSZdsQNgamopiFmJV2n28xQmTeriHNnyk9ktHk1rClmEAFVXRjMoXMHttCrA/8q4PfliKKP2nddC8CH5ad5Ke1wRiLFcqEB014lnjlVhDXy/qe0H3mCEn9Iu5OrsaQmJlIbypG8X955QI+181Oq45W5XrO+5OEiHrUf0vdHqT3kPApeFnJBo7Sk1IpigRi8oigRPyY0iMyEQr7SYbOcpL87uk3GTnl2OiPuvQDRI4s7CvD0EBLaUMkTygjou22jpVuFxi8o8LQ840wiVG/XQHmjDrQI/vl35IQo2z6R1kvbSUCZdyNoI+qFKQPqlWB8OzPwJOPWfl5glxHqWQ1BRgiC3UeQj4+eNYZQeQhD1OL6KbSRE26VrF6QSeU02Siw2QAptL5Dt0cVkFtl5zzD69820zjpsYc9uXZKugOi/QRo+UxhUpZhBJn10lNIglIZCfzbHWy9VrcZYIcWdkG1fNpGHVRZjFd04XANI673mTDppFnMq7SZHbSjCAikd+jK1mYrV5A5I5FHQQ0WBIPSAt4oeEm5vGF9Lg8KU4jzVFk7kJZ37MY/hNDjaXHbDjSkOtBjb0d6J2k9A+MR3i6BtG9hptcNS+VzgPYXMnu4Iz/oxMuA57L7Nran46eazvCDI1z+7CVHAqtHTRRtIOMVCdOJnfCkrghYBZJyxuMnDdMyxs3yE/ufQPvM0OMsmeYxlo6pMJYinH94YYttwtN4IWN5fg35sUy5rKWrSPJ9Dkq/7xCgmP9dRurDbCcldUb0RpyAaERa0lA0EnhMV66N5QLvv8nAPjq8zE14Kl8BVSKMQG8wK9XJA2V5vweEY1wG/mu+Rktkk25SNm1Ld5YSgOdOTmlAZgce99A3lcn6HG8qTMqYHJBL5TdSXWkYxA5xPy65wZ2oFKWP8yqI5VHG6gRCHIx4zI8yUn0oL+hrJ5me0vIKzUnDSrxa/qCRftBRBYaC28JuHyUVjBVioozYYD5IZXfenriZHNV8HSc2vxiQTvThVx7sxC0tl8LK5gjTHfpYkjHtcxFnoKIHqrlnhLmoIHwcp5iQ07PawnlhXoZQgcOd7ipxmh94QUm1jlYsyzbCzZhep9RWJgiyfE/9C/VSh9R0Uabq2Z9eBkM5tYvYnrfhaeqvjp8RVH70TeVgSD4GCj/g6aSkfAJR/RfKhHwtoSHTVqIolTec6vJS1FFJPwpK/EpAKnM9qR2oTZRLF6Czsnur2QD/dP1EPO2j/aukA48hZY9rhjFqkEqfGcK8WJuXYh9l/PUGcT1xfVT1ktQpUCkT++VtpWXzgvoP2t+k36kslC2hXZwRI7vvwiv5F6S83Kmun3vxqvyU9so7asRjvV+6mV72o9uDJu8f5fZ+pryb68NrHQbaq68u9f7lufUah5++N3lTTVWRP9npiM3+1VOTm1EyrlRgpHVBfaVQeqQdJIaui930UVfvMNBu/WacspoVpWSXaZpNaTQaMuHbRlPPxbeMwpZL6Q1w5Onb5fJDfANegiKf/Q79dyPwwQGZ1Zv3PIeeGjAk0raOAurkgn5gD+mUAw1EmkEfvDmPZbgVXd+GweykPi8foH9+rEv2AGgeZAzp4jINkgG6HY+Pbl3zfRwokz0g157QciYX3yjLOI1hMpnocfddEcajJlAHlW+COv0fJhSyTKGL6RRx2gBkp65INnIQBt2YvZQ/rMUaCn+Hix+b7IC+6ZgPQDo+igw9GN/VwvLQk0po+jAK9qFgHKjV72EDhS7S8+kkIuarvLAHAMoxHsDXTjj4tvPq24odujOPsG4dK9J5oLzuUnaAthCPPdNwPDA22i2MDxsqStEZaTaxsLABKsyNBfCBhAQAxUExeV//T8ADX8dXuHIYD+IFGc33R+hlY4FDIPM+oe9f0bjpoXgfCwCijbhDUke0C5hMaCOEVaNT2PdljXh8La3HPvJISX6gdIHRdAJIrUh5uYFUTVcp5qusCGEPXGzUGQl5nDvKFGvVw3V+qOGiQC9AOkoY1zR05K+7DsUNrKNxq+swx69SNnfgn8cLMo5/NK0FHcncsCPv8EFHQogXc2oKrpUIvVzUCcrG8h5iQY+zRwLVVQh3gPVyBdfQ0MfYf9MZ1w4dHskCE2YSFmZlBtaIIiqjhhf5GcLlUZmq2Ef/kRcdEQXLHlZ5d4GXTesmKCaTOgI/tsUAJWPa9VToq6zLzKAClI9tlEc1kMoW0vox0lKe7XHlZ/4JsmCqLH/ID9C8JK1wmfHxush45YFygziXVt0xJy+V6srTRV4CtJvvh33EMoJIYQ/VdAGtQNI4EcZYaEkR8zLE99LHPcpzUdZX/qseAK4xKM90PPFFaOVDGeYFVNuL+swYpZM68kr68f6DHUjHkQ8owgypQFRG2GXwtCkInlzGsF2cKjAt6A4AZXG4LEFByDMvN+EpnJcn6uWtB2XxsAQdEMzjpIIobSKgIOMUE0+oWzozYLrcvyxR6qPpxPRS8PBP/yhX1EuIc5Hhb3/BipD2yZkh8gBuZ+cG7Ts/Hge8r/FTylOrAJfwjxHz8S8g1dvRhdkIhQ9IqMTCxEr7IKI+03gjIHzQ6o5jlQPMNiAL4PKBpX2OsiRQYuhxJcY5P6RzRL1+c4HPBTeDHmWGYf6w0UI5La4LcpSZcD24Lrie8qoEQs5HOuAwo4RQy3hYQviObJH2tZomoJ6Eapx6CKilHE6VmjlTXfd3MBinrC4vaS8eQ+dlRt61l6N7lTZu3jR0Ew2L/1L9efowkPc5oUqySqlkLu1NqmRDu/XzZnLslfdDqqdUp0Q6Qjye2lKuVCdHNV6ilFGKo7QipHMk9u1l6x+1U6eh8CX+XY5YPtTh/FriBb4VzphCH/1Y36S7u+0wmjenOwgVREMC4jfkA/a7BBxIA2RygK/ldRFlnLK4XEyTAt95zva6mWB3eXeHH8s0HkEeoGc5+imIO2h6iU+LJGdB/N44QFLi99kumkLzM0SQ2Wy6BhW+nevyLMj1xFZCW7GEpXIE+5aS83enIOcuwD8gZ4lfXhR2HMbDHmSlSPW6c+BfbDU3+JE18llgd8kLuVAzRWWOwb/sUJpLCfTzZogyIYzpEsBj8/zH/ICoI9dwjO8kn3cjIqXMvJDatskFBFtAjrETSpyR0IhXDiXtZtWQp40pM2uUlLAHrFyQr4Zn/CC6KrEod5gRp5KaPJdbwTK15GWCTphmacYVxteBmaSzhUpKFP0s9EBbAF8HU8pLygQ+uIrIy/WT9v37gN90aWR6e6Vg96W4TFFfjANqHxoveBbP+KMyUJYCZucpz8ulTI4ng+V5GnmoryiVP7wo5roEJIQ7dZKGKfQvpot6qc4QJ2rr54i0rxZ3OyErpcrOiBcqKjhfoQHDfFEIWg/8i+UQCXJVUXewkaaXW+IdPOpkuyW4Dnagnuy7NIaQdpLYiusowPlhiUY2y+QMimX91rQxDIEXZdJ8I5PRisSnIkKZLMEPQu3rHijyVUqNO8U8Skv+Kwiuh6pDwsm0ynM9Kkxb+p9hoUPEQ9kswQ9Cl0OHuebt7HNgWpwUx7wlIyVlc0KdLDcFhauGlbjPlbqrRgVqXT3q9qfp9PtVyYpijmW9Kqxengj9MwHxByDFtMljWU47nBGvWIAsNmr56aeslNygHQ7EOHi7eJTm1dqlBLvjGZNKADISeP2M4XLuF6GeDhJC0wwDjFuC/k/LJGULYjpA88vflw2iLpL+lnTj/SfABjFQgKfjoBoPMW85N1gvjVQOIM1zpJTyi3z8L+kHLbxiQHlNB368NVkh58f8mMA/+4tAq1nC+ld8lMMgocCNiKQM7iQZ0k+9Xg8fuG5QU2lYxLm+sJzpgvOExTVRQJkpn45t4GvA0OMOpq0P+WFadJT9LHW8nnY4I/Y4DsE4if9Tf3/3xg4fQRYV52YyMf8oyX0zgjHJBCjLTK4T7aMFDl9zbPaSUmozrEXkrj/2z/uZwCeAXWj3rLJGcibKMOM7RNDlKZAeZ5siHA2ZIvRphqSO/KE4vi8f6ZEN4tpR1qW1VgP6bpaoU5a2GqQilr/2KAN/oNfI14YyUYa62cDINURNHHF7SUULYu/USMio6IPlHEbGL8LDQ+ZDpPLtLUPijMxkNhlKYzYCxsBEGlM0NmkghGrQHrfZZ5iKZvOJQt8Olxn87W91eY70DXFU1mwCeXhpQdUAHtDGJNJimm9YVH1CkSyTtJML0sfMqm/vuxnwT6HxAMbpaLSC8aj4AHI1pKffgn20YSut6UiasBfWm2G24mIFy1GwHbOlYE+h/dwwR9/mtGn0etZgvLCR5gSYetkwzepwmHMkyAS6QA5iNvTsZAWLE8MMoYdUV0cMfYDu5LjZkBGSxBjAkAffys21LC2hAz4w5/FllkqrO4kyxfGfcgztA9DtfpDaY06IcwfkbQKMUxemWtWa2QiI+uY4GDegM+h4ipBaa6CpFpTY5POyWtPKZgn0Tcd+A7aOjs/YeVoNMvXRU4x52tAE8yXtaIyQMnMuQBUURRmMIZmMcbI8RlnYAJH5+kGwf97HNKzjMYSBl/IJf2SXR16PflxDMGNQh1QwYI/x2vd6XZbRcgmMl5bJFLqm8BjzTbRqCCavywAbada9gZVvC6RG5nO+Dh4LBwzFhKaCCE5InGhZBot3XJaIoM0coaMJfVSEtOYlfScvKEhzGQevBZ1wwJniNKeokxtKsu0Pev0xhClcXzz/bdp1KqthJqBx/m9ikDVhK011XmEvrI8cDCcFW6elWEqnJ+WE1jKC94v9Rxjk98Gvl+1oAzrxUh4bP2lNxjmG4mGI5KXzBKdHHmkuIHRC1BlBFndJ7IBj+uS4V7cU7mmjhSNpziaztQUdI5x8bAIybRxh+EGGzLpwUG6uulQpiIHDFmpzSNwRYU4TOm2FamWDSWvnAfaZPaQzQsy00yFX+08ZMcIhX3REQj2dPnT9QEHoiguTOyPmuGkDhx9uEzp3lHk+r6Ya9bwIaox1qadSXjVdw0v7kQXQPwdlV5kI/KG/8TIVbKVR64yAVFEoSE9OB1icgJHBmScKzobJ9zBPmCwGTpgOpncrq2nTWpCVcGXmLa8f6P0ClWJYhV56gQ0EX6RE0JTyfZE2eyl0w3wbcqG9qLs89VfSCftI2VV+OiKJbbgzouUASghF6Adp06WRFQl5uX20rzg+AUFaPb3AcoHFhsuElbN5guXCeZ2WD6og8DGOM7z9lw/4lyncpoP8yaTKqE2sfhHTrIraInSEoIqqjQHai8j0o646nRHGQl/BAmgfOkuqjGo/HBcUUPNdT0yznrZU4uWKdM1IwyovnROcV22LRz6mNe46CHoAz8t4m4a0XCjrSNvMCqGv7J8i9Dv0t2Q/CUVnxAnFQsGK8NpQkgbM68MUlhnsLC2ksWDatnnSV3e0fFZVrYQ4ZdQBZzCeIUd5XdYobxLfjWdxysY4wwSUXeVXS0C6IJtvySt0YgjtqhdMPYGn+i3rME/9Ff2r0wMSJZldL8rhPw0DP8BNy58+yA3V/taCnxpekDjy2B4iQTd2fM2+ivBWeSmcnxsKuwkqqSHXkRNjTFJn+tZeRdAlPmpxiOeI2M8UlU8syw9lw8cFL1yxYqHNcT74XsC5wuw12L/OGwXPZCXf0sqnUlRJKZhHWNz0o9q0T6lMfV8OHqHPASaHp9Fv1YvJq/kJ7XBGdlJoIBIbYJphubFsyLsWu1fX15Tn8VROp5AXFJg1ha7uipTStMfrylXIHBK3CYcTKzsvNKRtIp2t/tI+g7S/CcqJW6PvoUoOVCftvjXgBb9f5E4vYz+T0XKoyFWwP1WwhI8zx81rHUlSsV1rgC/SSuS5bjyephOqJPMg72e1vy6f087OB2eEGUHoqJgQ5wISznLdy7GFJVSL6YyQyhNlqeYnZcjzXRKVuQZanoGXywjoW3rm4emUr3GUJUwe89h3yElAF1Wv1anYYmZdL6OMGNV8TaMtRUJeLxu4TIgEG9c+J7qIZTVOGZh0bx9ng2DYWaEVMXLN5wgT46ZUkVNlJZClMocyyDAg4a2n4a3w0rzYbk6IfeNc6GAa7Boq6S3Ay6oeEVc9gnZq4eARRkeBOUMnCsLeF8K7vK6b0jhKwSoKxg85wo4wwziPOFIdEHbUrbxD1WA6i/mpXhmEqEU8D0jbyQKhaySXmXrQdFGO8sbygWp2RooKFg+Ca8MWupHp1WaG4JfDg+PFfifgx2XScjyYXg5pHTjKY9y3mpjmtprDvzP9vr378oPgUY4qb6+6Vt7A+E2RkE1D5AWE9lIU3+Hfy7Sh4Hl+Wu5geNbv0Odoz17G8wJUbtqKDSazE/JS4iTOkmp11nxOSPqmVg8mP0EqlCkQef4hz/NDGv8idurXw/3zrC3jWVhf7mB5Jq/Pg7WkRfCPUS0bgI/qPdxbYVYFmwn3XuSI6DuEMNqAg/IoEotx3ShYkUh50CXK763nw8GDMAmCvJ5GnGtKoQNHWRcFr1qO31N8b5m/sy/58AyUyXluL6oj6MbiBSU7IwEsoI1U4pqHhrUh+5I84f32vgMYTaaQhBf4pXJRNvA8HvVC/lGAyWyGEuTy4xlkdyOi5DtJpxoUo3EZrJ3DqSMfNIU+IH84w1GeHvuybD7Rmh6CPpKPnwFn+2HfIMIM9u99TeGThkkIUe2wK3ke/jTXSmgOG0TwMkGPQQ3/wEHBC/Cj8wo89XTPwMl1hBIRaAV6DiBP4ygT2svpQxtQhP6pjQRezFc+XBEi5Kqk4Efs4FGXRw1BLsqqIeUminzqMJZXnXge48xLkeSVsFdehoj68Dj1wHiZ1BnhILJNuTAxayXeZEOEeGyMb5KwBzjtRhwvm4YHzAu7GfZESOhrCu23I60XFiHE7T54HPTUoGL5anjAPB4blTUcvxiv8FCesikCzx7R5QOeoVxs1+WuUKoS/tOBwT6wTYOnC1j/dvbfwwPmaf+gg9ICSH5YaKKcBchlmLSyo+UsgY6rD474bsQ8Bcsl8hJVYpuWU7arcnjrvB3HqBQeNA9AP6NtK5/EucOQkuku6BD/IKVCS3JHJNTwlnJCWZKCTKbdgE/DJObH9MVja+PJ5li0Tv3pt1TDw8QDUlsoIdgyUapXKQu+WoTqhmGKUH5XeJtpeNA8IOoDx1/D8JoEptUmiDLt4wZWUjAo/bLdG8uD0v6l/bwZj+RhldIyh51SOUJcDSSQGo9GNFlH5TNAlktBqtZN83Ij75v1j/e7pM55YfOkolwd7Z6TG9Wdw5epTpa9JT880n9/dDNZb11LN2sxZ6rr+06ec6o4CpTKwbmClMqX5jt/N1TX15shR6r2r9pXxtM5taDojHDLdjqdylRfTpN6NoDzAH0BFHj2yKzxc4K+gKkGRRnru/EZOpJ0lNv4c+jF66XflQNcPu3nPpDKR89bL7VUysw0hLHgzxZmEG1H7Qd1CdaLbyYtkL7BsPo2wer35AH2y1B7vKcGy5vhD3rjS8FAHC9OU+iD29RU1pTloKssgb4awhZ7wG4fCkSZOS8oQXbKR2gudYE4YTpLdXvrKOylPj8bUGs83uGY+yCxCxX8QAR8aBcK6EYvYzDEgbBLGwTKMdTyjOcJPUchgsgE+20f2gLQsBC50EcAdEXYXpAtOHxrzctlLwcNmyshIxVC2RF6HuVmPk9smhBedcA5Y8qXioY6oTzfTqz6wLobAX4BKryA6a74rnxQ9A3/DIwjb8a3NEN+fds5bEeHTEKle0ZYyIypUBRm4gJosEhbHTAPGdBnH1VMR9kYh/yatoU6yhzeMGr1M4f2ey8E2au8YDB2jHlcizm2tH3GrNCGOiNpO/H7wRforGRHAdX+5gD2y2UPdmD6CPEITLxBNzGOxVhfUIx8Ts5Mq4q0kGswN3j/jLy/VTjprOByY1Zlmh+SthZXrKq+vg+kxycnUA+qC5OXNkB/jHBirqs6lNwBb7GsycOGVCb7FLYREI+p7TQ6TIeuhUOMYKsmF8WiTQS+zoMW13cdk6evR+fcGPIDdCGvzpcskyLNq8vPBjzudux1HQ1pd55sXnULKihZZ2gc3kiIJ4379Sw2pNeyAi+WzxoUPklHWck3mWK8BipvWj9T2DHaG1pWFw/IhFBRzSdURztJp6FYjvqxsjoYETddGap6jG1nBu+36aS4trlTFgwo1lGJCf+gqvOsyUMCk6eE9KNplANIGt9R1sn1+P0BDecN0wL6Go94gBPfsIrZEWVTHUVgAGmIf4S2wnjCyxNBnl2guyQh9Dg/iBiSOdZuXjwkx/tW4TNBmC8MQW7ooHBUvJzZkumCvARazseGpw256077G4954FPecNy5aVal0klvqgCr6OkAVVKSF+HplJ8jLyCVSVF4qDugOwVEKFtqb7/fmzsvTTNgfC9K6qlekCYrVNe9gWiAoVwJzk/zD4in/azyQjJFDVXZGGLeQtb48yP/BmomDY8aD4hzpKOeqqVoI2U6HDZTJ2Edr0yJ5NSX76ARO1pPw8PEK+frSbqmkzpx7XB+HbEMyyaIbXj93eDlkvIHzqsgyl/QLjsjLGQFo/fm29baGMOp8XWBDvmaRr0dYa48gv0uI91Ws8s0CU+3zhzeTjU8YJ4OcHjLcZfDPOciDHHNn0aeyureazymEyvLvBrjiQaE+mWwHdNTfCIi8tLQy6bhQfKsz3YpLsSBsgyA6ph5+GM9RPgfoyU05VNQMh0pPz9ACus3P2DoGS3i3CiOZ7VAKe2fJN/5iAAVWyuF3wNP7bFouxweJM/sQzWGtMoP0ss0erqHsoGnFJOFXZj+A8CITWeNcLyBuPuBzxRh0EYMLd/uj7F5BVAdQnK/THEo14/deB6HBiCrXopIeUEzZjsIVR9lXeg9diHf7xlhGeVpezXQdqp9YXiAPPbVEfiFPDa2EQl5iCZU2hnRhSZtWBsnwEu+gAu1/tQ30sWNK4cLJlNAkIkhZbZBF3h+wBG6oeWIkhHsB1HenaD8VUOJRN1AD3p/EXVTAvuS5vG7ijBP/YW+6zEubJ22zRsNlV9BtI2gJGMHu8GCpD8UFnJzhBMlKKTYjYJcDuUkdcHDPySQgs6+X/CYmO6rxyknUNZgyzXjhVECOUFHRKFDL2tlCjCdK/ZHLGlSm+QJgs6i3jT0+NFBKmcB6CXOJUhTHwzDPMJ6OmeGuNejfsivm2udl353Hgj9cllrQbd8J0VnJPrtKBwn2wj7kiIdEBVyWAA50O8SKHMtCmIZHWAsX9vuAaMq002ASnsgnTSD0VQsRzXEMjrAvB4GUQTS0HWE84Da/h8k2KcAMIJcLpPzPO52UOhIQZ5/SvxMP3V9THlVpPn+CWn8K+np+4W3FdurHq9MgH+hv5R/xxApEfWU7jh5Wtco5uvMm+mn0u/0Y7sj0EPpA6IyXCEMUU4lDcdV0xkf2+8LwS5SIGOH7OU41qWgn73qp/FYtq4PB4maPhZptQiELrczjCr3jMCYSspKQT7zQ3qXs8ZcUB04hVI8PygKeSY6+SGprCTBv0r9I49diLr0MjQ+s4XEGMlzfkDUtSL5jiwQ+lXqc5JXkifwqAXEd07QKJryM8VefbRFMuGptAmSPPwrckp6+94R280ahT2wv3bxpZ6oQVi/lnAwHU+WQ5lUr4cFZis4S1dYuuSIBOkinK/JQodHH8UcqMCBT+fEIs91W+Q5ijLVvLrvO0iEfumJKEOCfB5zK+MbH9FMAlWckb1IW7OoEr7kUCH0XYOqLLtRtRzjdW0fMErG+TJA292LUj1UdbQXZag/HSCI/pC+f6qzpe8VdccqG6QGw/juBrR37iGjl0kYXYS0Hf6r0+9Rw34pKe+63lPfOepvrw57f+vLqDPSnDekNW9Ja9KS9qQtzXFLZAKTmSBzgooM4eg0wGuNm1quNW1JM2Owfwb0d4p+zxrSVEBeyhIgyG8SkH8ubZk12jJpdWXU7Mqk2Ud6Afwu9NeSRmyjArS/L5TK83vr+37LmLFvOGa3Anx/igYR+E0c7xY8WqSgEZEuTAAaMMwm0p5O8J3QH8tDLxGoQVtqorzey6fPMaJ9/c6Gfkdt/w8SMw4BAscffSXQe+2vjhvooqHjIMTJg6evWSiC4SDjRgNZ9lSEjjMA5zcYMjMFP2l4kDz2nODGsHWVHyvjeV5+hgEyQczBD/NYiy+uakIPDb4QbqoCv7yE9mhDuWJO+4CtNGA/LeihDTW0wecocIviuZ/byAgDZsIPjGmMATZpAZiIJijFMjoVoeH0eHl4oDwY/BSYQAYF+mg57DntxYaJ9h9Sc/6cNbqo05Ux5lFpdqAmgDMJ5wPOuxhHTQjdRIO1Y/IQwdfBRpImGpCNaFFGnTd48+YUFgEF8LIMToJcd8gJcf4vuGUYeQn+S+0xJ7BvDCgXQTL7KEvEMik1oJS5vPSUDJ59WMaXX5ClDgxlDu3pdX40ZG0VISnyGEkzMiPtmqnFKMSdxbNiThtNDJReRwY4I7t27YpsgNvodGSxtyjL7R4W4Jl0p2NptGFkrDgJ7fG1er4FReIZXRPtpW9ASsnZWp6JXcr9IEhlB3lfY7olI0wcv/Hpz8q//o9/IA89+ox2k2JCMrnjREv++k//qPz83/hrcu7kqjTG2zAiLm2sG/+BqCN/IgVRXeQdORE6xy6jW7z5VEcTdcGRwz7TCWWIyXM+Frn62HfkK1/8sjz6+BOytrElrVZH+t0lLEZNOPJYoGEbvFQ1g0c2xQJE0dl8GpIOiqfaDw6X8vnWzNKbM8HVwshHuRkd50ZTuhgPzVZDNrc3YAtDyDeR0+dOyJsffIu87Sd+FNXGkBdK09nImtAovyQl8KyEZXmRKm9HvUzI+omFp70s17Zn8nt/8mX5l//nr8kjT12XETKpWToki62mvP70irz93Dk5iXhrMoJZ8eVXcFpgKxRPTQwRTiN0aPRJA/y5DjwkHSwPSyiOPZn8/aa2Lqrmxs5hLzPYxwzz3gxzx7zdlk2csKzecUbe8RfeK695+xuk05lLZzaULsZEtwsHZWsLDXOhgaZ2mysPC0EfqiVVFBTkiuNBZRLrxmy0JTfWLkpvqS395SUZj7GeLCzhPF9/zQk6hD2gPN/oTHXQ0depSBuyNvXdNcoxLm1Fx3JmZOKjry2c1MOmeaNtq9WytzaD3+z0MU5acmMwkzPnXy8rd79VZPmE1VJn5PmnZOPRr8vak49LH1Va8xGq2Wmgntxa+yAoDROUKkX1Yl+dE3lfY58R8Sf51ReFTOy2ndkDmBGm7a4M4YxcGm7Jo888KZu9nsw6XelKR5aguFWUv3d1UVZWFnj+LPMRdIOwCYXzLaQ26eIATHF+DJ5+r1LoQNER/Nd/yrPlIC9i/0aQ8k+/8S35zT/4nDz57EVpYzKlN8LenlppyYfe9w758Y/8qJw8cQynfENw6bi6f89yDKlchDGKNoDcJNZDga7hZAbd4+TKPqPDcCy4m9aCY9bi4gFHZDaeyvrFi/L0hQvy3JUrcn041EHXbfelN29LB6tRa4Txg4llhAoTdUb4DZQ6DUkHw1Obw6DGtKBxdUIwCOwsF2VYVIl5GOtwwloqY0c5W1vrqD8WJOXYiSW5+4G75Q0/8h40yTN9zhd2/NFqGBfWVgigWtNISGrcQ1Iaz5FMOthE74Rc25zIH3zmS/L//Xe/Lo88fUU4Eth/OiNLnba85e7b5T2ve0BO9nC2PB7gzBl6Yz4WHz4Kzp0ELkRNzB0tnUc4N6UaqdPMD55Hh2PMkyywWrOp9OBsNNFPfXIMtk4nZNbs4Jh35MKLV+TZa9dkhrnynre8Ru584C44sjNZhaN6+9KC3H3ylLQ34Yw0uzLTuZLfdYhJj1egNK76gn4mcNLHmzKc3ZCVs6uyeHxVhoOJLB47KYPpTEYcKHDKWhhQk7Gtu9QttcLQjgVVH9ZdtS7m2Q+c5qY99ljdpG5fxkjQwVJnBKGKipP7EdaBtcEUzsgb5MQ9cEZWEmdk/J1vy4XP/4m88PWvSm/tOrxYDBxuw3GSworNbUS4brqg8JIAlUIWH2HMjVQZ6BxO6PQ4sosYKuBPdRuUPF5GwPjAwMJZCgoOYQyXUObba1fljx97DHGRIeTlJZ5FLEKnUOkn3/iA3H/6mCxgYZ5N1J+VNrx7vm+fkwnPHhlvoC3mGbETjNMdsu/WA6XZ1CHz8yIe2yEml+fWN+U7zz4nG5g4eFbM7fgm9Met6HO3nZZ7zp+XhS6dMQ4Im0ihgdACgXgQT9WuOwz5yUviLsYQXWOoNo1JYD6ZwTFvSA/W04MdtOBvjTGgRp2WdM6cks7ZUzI9tqJnw3PuiMCOOmOUx2DpQS8DuHRTXeR5sCl3GpIOimf2x8uS0RnBQsFQ4yhqJVkHcnOLHU7ZfIpjimM8nY5wpouaPGGZjaS/2JHbH7hPJpgjp1yYtK5/lxPKszmQPi59yGkGl6LZW5W1ral86o8+L//q3/x7efipS4KpQokOx8mlRfnwe98pP/sXf0xuP74EZ2QLNkQ3H1qFnng5kCOGjg1/38e38HNzRnQRRHKKOYEROiNdLLA6p2KszND3Oea8aaOH0l35jd/6uPzxl78mz27ckMaxvvRXF6TTHMu5hZY8ePaM/Og998oyt4Q4d2KRym85vXXy36rieb3rrwlnhOkxdLU52ZTVO1fl/BtfJSfuvF13RHrLx2V7OFFnZA49tHDyO4OzijMeHWe68xFtgeOUtoKxG5wRc2VttOVFnEVsB4QX8rgbyJMZfVQf4jTgdA0wX15bG8jxMw/IuVe/XWQ1cUYGD31dvv37H5fv/ulnpHPjmnSnhTMyw9kORZ7DGLmg8Bo7F3FVERtnKxkRDx8v505pIDrIOaVySZjKuGUdJo8yMLnQWZBtlHt+MpKvXboqn3z4aXkBbQxRkId9CWXOthrysw+clTfAGVltd83o0AhMSB0Qnum0MCD56LBpBPlKHt/pjDCH8P+5EN2ICY41L9XwWi+9dl7vnMIB68IR4w89cbBwwm23uUj5JOrOiJMZCaUnaKA8w8pNXpWYxxOLJJ1KtR3IwicDePzb0AWsXrcZtyHnyl13ymt+/MNy5n3vFLnzLGxhYpftKC6cFt1i6WJixmLtOsiLwkHhfTzaOfSRl1f8SHl/NYQ8LcgyRj6Ov+4YsXwfR3+4KeNrl2S6eUMWTmAyWTqG4rAXtW+2lZAe90DVvENJkAdqWNvclk98+jPyv/zyv5avfPNpdUaoIY6N208dl7/+V/6S/Lf/3T+E434bdLgF+2CJoGPuFFJXLN2mzqBf3arNTT/h2GHuV+F4WQJjPiQgAvJ5mbvBO8ra8i/++38q/+m3Py7fuvC8Xu7meKJV3NEXee8dJ+QnH7hbTpGJ02aKG9s/pMS1wCVgXNOwd3dGRnBG1mZDue/db5b7P/x+Of3610FN0FV/WWRA5wMVW9AQnBF9AZoOSzB1rNEW0LraCjNCyC/klr7aC+JZEfsM6L1kmAMpB3fAlA/CejKA3Deu3IBDdsJ2RpZPapY6I/LQN+Rbn/yEPPKfPy2LWxvSxxlPE0OLN7Cp9wuJ9bqW7ozQGWnqGXKxTcT/QXH+pQfE42LPXRG9Oguj4EJDv5KO1ZhnvmSjKC/TtChPoy2bKPc8FPeVy1fkE996Sl5EOwO0wUG0grK3Y8D93L3n5C23nZQTfZ4v84soOxYvTNJ0RtrwbvWx1oS8lySNa0X8CxmaVGKMTA9JB8NT/SG9DTvq9haRhqsxoj3Y2VuvjTM5GhicsB68XHXAVBcsaaG1gxDNMsUzK97EZ84Iaef3HhiPZ3vof4u7G5pswPJ1Hw3mA/vgdit5KLMJ+YbLi/LWj/6U3P1jPyLT20/LcHsdkwssBU4Ld0ca0BsdU22fX5Mj8YBgUqP9cqRQ2sIhAbl65lxkuAjx2PLCDqtO1LfYhhOyfu0lGW6tycnTt8nC0mnITSeMpWooHPvqGDlsRLVQgtbigmxhXHzik38o/+SX/oV8+RuPYb5UIwfmctvpk/Lzf/P/Iv/wF35e7jl3UhpwRnRyphpUv9QTFxboGCc7cRfN1JQhoZ+0A4z3Fhcad57ojFAGsZ2RX/qf/pn8+m/+jjz89NMYLybmAorcvdSQD9xxSn7invvlxAgnNnBIeJ+MWYsqJAlJh4PHqVAXFKYQ550RmDWkQWcEn/F4ItdwYnLmnW+UV/3ER+Tc29+ulzDUyR/SOYUGOH8QdEbGQwu14UBuKyzL8UhqcW3mMbBkNgTbp14aeo8R5OD6oM5IsBU4roPtoay/dFU6i8fk+F2vrzgj3/qWPPUHvy8Pf/pTsri5Lt3pEKJjSk6cESqi2BnB4su2maPHwQ5MEZIOiodeIWlmDrNQZ4R3hcMw4Izw5JXF+WQMJw6W28QkcmE+li9fviQf/9Z3dWdkAPCwrwB3wrD+xj23yztuOyWnFxZQHfV4doCvnE0muvi0AW5FcQErFmR+kfXPd0bYJ49qUosyZuUCA3RQPDpzDRnAjnhPjL+FdGmhL9vrcFS7HdWsyQ1b0DqUlPU9ZAwhmmWKqrZjwu8h+fd5SDoYHo+l7upMALDdGeHTIw0M/EaLkwrmCBzBdWB0bEne/HM/I3fhLGdyckU2tm5IZxlnORhkvK+kOeKuEbXCXRY0yK/KiSgM7J77fvzPScIvx2qcZbTPOJJ6NswESquNQxczCImxsrFxXdZuXMFkuy3nbr9Tep3jKPbKcEZo2/NeW7aGQ/md3/+U/D9+6Z/Lww9/V+Z8eoTOCBbr03BG/qu/87flH/7dvyn3nD0hTd7oPcOsgmzOESynz6txIYdec3VGTF6aQVvXmTbmuLbujnIhRI8xaLhr7s7I//SPf0l+7Td/Wx6FM8J7aCjPAoJ7l5ryoTtuk5+899VyajyV/nSOtjDm2LgKzYiHpEPEs0Ww3hnByeplzB4Lb3q1vOqnflzuevBBKNF2kaZjrJ+YN5qdLvSI9WPCSzQTzsBojG2G76pxRuZwRrhZoN3IiXS9JWAjetkJfeTJGe2FEyxk3d4ayfUXL6szcvqe12GRxdwBCjNHQ7oQsgfYfRS7oxPAcqXHWzNCh9ftgT500R8ztHR30lR0gDbvA5i1pDPvSAeTaBto8g5vEE2AUybExKJEtZKJ8gH6PWAS/tiw2gUXNKSr/TmMWITTQUOaT0bSgZUswxnRZZkTCNTBSxq8dENf1oijwvZGbH/ErokTvD7ORyDrvicH0DGN/YVc3AXkPVJ0TPQ3Z7hwsAyMooOJpMnJBGnhjcy0A04UOO68d4Ry+s263Iab8x6rjGCPWTPOvjl2lpvP6IjSwUY+xsqMQJyhII/b9g1MqM0G9NHsQXeYXKGHKRYtuKklkKd5Hsc8Y/D4YeJBJ8AEC8kIx3+EhZULjpJeriCgP8oOu5nAjrg8YWoO4wKAXekTKMwL+TPok85f/bE4ONBWaAe8S2QMuUaUHZhigRkDoyQkBpCP+6hcUnX8QC2cIvgYb2vSxtrRkd68C0eEJ7b14/EwoYVjrE/SERjzbRxDg/F0vQBmBPRGxxMHHKDzCf3AZmgrMzhn9NPpoNLe9MkkB/Q6C4h2WBpL+7XdHxzPTmQAhpAdAgEMkYe5Yj6n3NwxKbwp5IKgBb0RkWfBfGcAgYnV0QzgYqvXx1FW35mvCswM7FPof3NMYIlRFHIw3qA8KNeCUngjarvZxdlf4YwYYUBxokBspmcyASgwRd0pv895gD7KRH7I24FqHuK1Mhwg2C++UbHZgWHBSx/N7EZM3tw5xhAYzia6czBrccKZ6Y7BCOlhCbznpkgzf4IZSdvODOwT+wZ/FRMtb1zmOyH49ACAOG/eZj6PLXenJ3TAeNfZEMvLCGeJnGxgS7INt3WAKQIV+A4FKEfB3ZKc4P3i+KDzxJ1U7SfHg4YBKNsiMIEwPYe8U8g4H6EceB2OGzom0MV4c4DFGZaAM7sZnNdqOE15KDcdg3dIwf4TvIdG5w9Mslx8sGrYhMtQ4wjGGCGYL9XWYEMMbfKA3slLwOPhes8OPP5AMbfpEmDjgmPHuq+gI9bAfNrAosSzee4ScFbtYJx0pi3pjnECyLudtT2goofDhgn04RgH/XCuSHkTKquNk54uxkubThp3ILFi4CyPvHkL9TDHTnGGz/e3TOcYIwB3IQvA9jgXB0ymKMOxVWOjBwmO8+mEt67C0Wp1ZN7uAV1zqgDdQQafJ3S8add3TEnRGZnSycCfPmYGb70NdAIY5418HRhXB0bGrSU2OmvDC+oQWLhK4cHxZohLG4MAiwmdUD6VykctNYTcLcqHDJWJjgY8VE4YfFrAttlSoqLoaGAwQtZ5uwODwZkAGhvDkCb4vnkPQ43PzgOzLvK1D6abFFqf5QnnI76bHAfHo1xNnOHA8WjDkcCh3oDxX968IdsYMEOkxxB52sMgWuzIuAd9YECNFDg76rZliHDYY9jW9Di27dhvX/78eRPEJ9rntgwWEC50ZNTv6KPeYz2eHRwnCAybUoPihKsGAfuCBS01etLF5MpduB7PhDj1Is4dM52Ac8UMZ6kK9JjORUAXeV0PISHOYfWxZcrGHVE+fcYzHPIXkd/HotIZTXTB6WJS7Tan0sOk2msh9DhC8rvKn0n/UGMOiCxgTlmEDpZxArPMyzO0CZz02POMiHMBGo6gO9GnsroAL99h9kGmL9KuYyA9NpmhDywBiwT6voD+9hQtADYEcC4l9IoFFmOGRI/1weoj3oWT3uLjZ9sYIJxbMQfuNi4PC09PWrCwKDA9aDqCafhdhJ628TRtgLljG3Feshsi3IbJ8NHfdZTYwmAaS7OHk0EYDq96Gpg2tMBvI+y162zz4NHD+MCSABvAuooxwN0eJdqFerE4mQPGyJ9w7bVcJaiJBK8Ni3OzyVZQD94u/rA4w7txOA+TMEPOSTxzzA88y+XjyFAEvc0A+pz2QXxuafVO4ZzQcUkcNCMw9J4BDDgqjJdr+KZNfscIChjR+wVvggVqCudEAR1aH4qysQ5Cg52BW16OoFwYKpOB8CVX3T6mSgy6IW9YXehLdwGjAw7ZBJ4b/d8y9IRH52JON75BwHTOMrNvusbieHI73eO8ZMOTXR5/pjlOmvTs6ZQgztssFNx5o3PSxJJDm8EixLNm7jTaY3oZAbOD9kvDANhzKe3A5KFPTzHOMvywDfJw1s98nPBJmy9E46O+02HAAOCjv54GYny74Gm5NDwMPPYfaZwFNnBmyveDdKEDOmO8uZPXxmkpvL+GdwbwJWGmR+iPYarfGXSIOqXjUT1eOQD9402rXZy0tQE9/kiTR/kUGCEE5ebJH0cIwfmWRPeri/Wlj7mjQ+ee8yLmjLrxeJjAl8H5/M/dYotj3tA01g6NY83kzTFYh+zaPnSFEz1MF9JAXPiKVsyUHSzk3Eeezbax5sJhiSGcFsVAeQzJ32mfqZ0eFI/9ogxYY+mNqiHgH2zCiOuurb9T3keClBOLamHeqGdFwgQM+I6jrdQpwgSNaG7gQqKOEg7yCGdn4wC+eplviCRmBLfKYBwNGAlBx2SuygkSQpGmNOOZLmBUcDgIvnGQizL1NcZgJHhtjzd08QbQKmxhcxT9rPb/oKHHG0Q7amMBIjoaYsKFbHxNvE9GfCLJgMmHoO0pQlp5bNAaZZTfkRM4FCgr5wS9LwrzAp+sgckAmDAI5PEdKfzw6Rq9ARETNGYEmWPc8BXZE+iGNqV7z5h8oCC07O5ZhojXY9I0+qz9tr6ri8ntYoyXOZTAuCqDfJTjy8zHM5zJQXl6QyMcVuGTALxxLUXK437/UQBk0hdPQaY5HJM2tMULl5wRWpxXUKYNu6DDwXdHKFivqgPlA6ibM5o4ts0Jgb4ixGktTCXw9fjCJvT4U3bAVghohR8QdcGBxgkCHB17yTg8rND5HvIQYRsefM75kJELMNPUBeYGlpQZnFjok5hj0SZoA80wX9Bu1EllCLuwEHqtgjqv42cB9JvzBWTmiT9tQm+Q57GnDTAONOF8pRSdES6uYyw6VKQuulCk3SntCyiVzIXYeDsdlEyAvzmkmtAZweoyasNRwEpKTIApFKDX5nSCxUAJE7CZEweRKYU6c54R28ZChFyCLznTRzgxovzeD12kNN8/HtcWS/BPlZ8D2GtekuNi3MKk08LZEM/y2lyYcUbMSYmLdQeyl4DR2UZI+BYv76ngTV6FU5If9CY0yNPFOIqgfACfGuOY8XGkO4SoRWJs1m7KCJkjFNLdOJ7v9eCUwsbmWODzBfpJ4KyMab7eXQGehQXmUILevY+zNj3wrAOFTZA3xBmbtsMJl5qBfjRMUeIdEYIxcHHle2YmEy4wtCRMsLABhphxwICudI8wBYwrQJ09BY8FwhwR+qh9p9OkzhWgi445XVw0maYueD/DjHHMmxwNtApqQWdSzLkcIxOdb2ELua4htwiat97Ij6StAUxrgLTl2xoMbeAkDosFQmgAc+l8Av1xl4llwefTn5xrHKxnPOO3QpzfnC+hj+wsj7raCeyDDogKhFDjcOR5EkMBA5nmINkMMfX0FHA6kKXDCvECTDOf/6ztHEHiFtEECwRfdDaGl8adEr6umuBvhujL3ACe9ekuiU4gUBIoNKEHHKZkcbYN4e07oB3GqQzVsS22BeCsKDweQijZdwuqfc4N3BHReLAhDVOoDjzNG4GT8kgXA8gR8hhmCDodZfDmRPTb+6xWEEhnFkwmtDGYgAIFJijIezpZQXcSsgUmiQS+U8jLmtEpQTkDJswAxn03Res4OHZ0SuBoIWz+KFDHO8yAPJRXdUbpqQObN0yH0IfGoTfOLSmQF5ZmAxdmPSY5w/rKfhsog9mBOSsuT9AH6nBngDpwd8wcdu5WYy7WNpGLPx1bhx6wCKiEKM13gPICeOM3lBNh64GDTxcRlraycFE0xGmr8+ctBVqE+nIGDy+FDvYyB9RuGCeP9sN8ljSCpEZazNbWIp7AqthkQ2JFvlKdZ5A5gWe47CEXBf21TBw3hvqLmLAODgI6KgpVFwcNpaPUhWJS4n3hlLWDbF2owvcw3q3RgT7+zPIsG+DplM9y1boHDfaJA6dOFcVODijkh1SkIs0CYRlClKDcdd95oAjHgvbMvnsYur8LMaNQkhd18D+XKN5VkyfSxQWTQjxj90WF8IXG+CYvYfU0jwspFx9VGDTXaCPdRSn7nRIHefqGTmDO9KEGL8jwyQBoA0bNHVg9yUFaL736XIO4/vg5ywD6o4mcmOnMcXFHWp9QYz60xEteRPk45YHCBth/gme6TJsjoh+kueOhux+Ul+slJk6+N4/3ZG3jpHAbE+gAGHKrkdkwp9oxecjQgXrSeJomuFa0+Dj8DGNgDsw6FgKNaYHmBDyEMkV+FazD+ppvdevt82DB8T7VMeLEGOcNt6Fi3ixCI869MKwAXTqsuFcrQl4HszSdHD37zRS84YpOhveXk6XFOXTKTohtu/vHZFVCeVcVoqoZLtKYezTEeNPvYppji/Dv1zNqXuJgnJc2GA+h3uylN3+FchnCnVW9ysndMJWeu2KWVltAPjXmenSdRr36B/rlPmXd9+QBSMdtU/RV++9OKo8/D3wkSsMck9yIsiGt29XWjt47oTcl5g29t4WYen/Z/6QM5aFcLEOEcipvzDfw+NI+incNHHVQVs4pYY5RBwTmwNlUJwaAJ7Vw1KwMQ4tDTQD0pXza2VSh96tRr7mB/QJsx4fOJ9IBjHv/CyRjR/Vh+uHTvLyUyZ0RXirnSOJN0fVj8nDB5/8U1TzuiOtuB700RRMqtF0OBXc9IkIZlq/UUYBn766ps82Dhl1BUQPg3AAbMkAJOleYPTFtawNsJBAkA4HBcRJGisJ+1IwgWWj1Qr7+5xSUG0Aqjx00vtBK37bKELz4QqoAfTrI5lMDqtvSVMQtjYk3pGx5LtLWQJm/O6yPVHy533mAxP8TGBRvytSngRhqnHwAnbczPo9jjIBvE+9OcIKyVuu/8yBBoqlTLl7S023kcLarl/cAXufGNIsPBhAHFZ0XIjiYvJfGwZtfjc8JKG9ALIVdctyZr4425YA8+kSFyk6QxzzwiMDTuQfRqpZjtZq8QwvYi00rtrBCtILAV6K8AdSPjnimGU/A+YnHgPquOw45QOXFOCeifIGYtHkWIeRzqFIoLwPVFddS0x25iTYPPYo1YCffwkIfqjGPo5oZSIAqpwaR72Wr35QHtJ96sJFKBr7ag8pKMD+kE6JpKVFMNyAL8S+k44BCI7p4I6pnj5mCpL+jo2gFmCNShTklpkAXWXXmOg1pQ/W76ni7AEqNZ92Zgx86F3Y/BJySGC9g+XBIgKrjkcoZd6ISXm5gvykHt8wdvr3u8vFYm3XQSAhMMhhkuvsFuDOiCzeBCgaPp+EB8tB1fUxXQyIsIqFMsQDZmR3jRb4avKpAz/piGbZnOolnPkcWlBGyOjHqSY1jYCgsrvp1mPdi+QjtbNnuIdObvKlHhR2LIjxoHroMmTlWCrcLIf7UhiCDO1J86k4vewJqK4x7uaAHys92quPwcMPFraaNV3BgQ0k8mSFDmTQ/BflJXq1t5gD2DXNjaY4pUIwJi0PoSIUz4hU4WCgvCyEsBlDgqSHZNr1O4JnBFg/2HQNkyidC4IgE8FdViWYAZTO4U2I33lB8J8YJlbe6SOFMmmBaF7FKP/iMgS9menU1xIm0bE5w/emh1mNt5KESEprWQvjTMEQCdHHCZMY4PxxyqpPsYLsgdiNiOi2g7ztAgjS+IIWBpwi1LM5ilFqDzBCcbp0I7EDX5wfEsx7L8ynD0hbhQsXt/NZsjPFG8P0bKZxfl3e40FTwaTLuCtGB4I2F3GaHLghuo+s8w50lzj98UqsZ440Ae3ScecZX0wk6zQt2/MNQxj/C7IZzJ3/+wmTh/RENoKkhHRJfP/U+OfAJ5mHYaTOcE+rH5OGDrwvVNKEnMzAIvkNEEjA9b4SwgrSc/vomgXgDob5wv2KX2WBGjGHPOOi0AfcdGKbgeouQHyebWUBkOZzKcatGqCEh4o805gRutXMMsKd8lXUK+z2EZKcEPHVEomR1ZI6X3wzr4JtIhzCyEfi8IYuIeZ5fRTUv9Dk38LKLSo4Dzddd+xNAyIrgGZBu4wOceDTEbOXg0zW8jYngdMadEbsMkhd4kyHHDMnP8uPjcwxD/83qUzIe52WOLdqIlnBTAphm29XwIHm7UVrGEdYSzdN8yhWIWvF7JzSXLz0T/sAmMK8AvKYD6cOM1sxg94GF37vCHNKFFmBKOhb0BnaohAtvB2hNYFu8R1jvE8bgCuC9rMyj40Jyvfux8PCgedq9lEkE42Df+W6eLmTrBfQxKPjWVf50nqOPOv0JfyMMZWFIbC7H+eDlwhAnOIQ9QcQbfOlQDGEIfPPqFsLtEAePkAHmEk8jj2UcfDOrgKdAGaAB1NlnPuD9Rui+ToSwdx5wjTu4yISFJpClWEkrFsBQST7khRj+dPJliNrZAf2irHWXZFwG3SZS0QkMDKT5Y2629Kg6TAm8EUcj1q7tagTZGaK6x/mdDNkHNFXixfIE69Bb5tk4y2UG9pkg2VYbwThmE8Tt9Iha4ce0E8Fy1XTgqW6Imu88UKBPenzQR5JaBhTgTphuU5vIahdazgUjB3pR3WBm5s4Id1jsMU5kAbQhfy9PfD/PAfLs8XzEg6Xzv+d52Sosz0trjRBDvoIJXrayGx5rwRc56cucavIOE3CcVWoI7ZcdaCN0RFrI8Q9nG/0BTdpPsCED/uk2Q6gf8qBo/CuOQRoeJM9sJcjE/rKPSoFPOSBPSU7LiTOs6gZ1VR9hLuZ3cOzVjskjhHR94LzAeUIV5Z6cPv4ND46eqaYdrlBH4OtTKRhHioptZgOfGexyDTpuYFSpmjaCukAwDBoHf9BnikmFP5TGH8KboiH9gSek+erWKXj6A3kAt6r5PXnCttIttP4jpfIQ9rCa3ZiolyWQZr59TFUaARhv4h9hNy0W18PsCQOmmYd2QjoC31uKxzQqIGD7aCo/oI88xtZJIMwwft8Hb+aknahzhrg/AMjSOGFUqIgBmkZm7XdlAO0j+s7hzV/n5eyhW9AhzvcUUT69pMOdFNoC6rCivrCIL4bjW2n1CQQUVtAWcgUmNH8ZkYbksc9cVIJCNM6XMNHJQBl/cyiPcnjTpjptXIJtpgWCXo48+A/2Dz1wTuTPJkArmsWZxmYb2j0f1/Vbn6HjYGVFGAD9z3ccozzgT9XwCUC1bdiDyuMLI20H8oRZQfim6xHGCS82wGLAM73wP+O834yXr21tAfeQQ4XbCySE6prNOXnQQwEPk6I6cRxf2hjLYf2hkuyMtYDOQ5Zf3JvhdXIE/lGQYBsKziEOjAs6UrqmJgRJQfR+AXU2kGR7FhYLNP/bgh3IC+UG66z21IaNDh2IzqHCMEAXUoPfdOnSpTpi3M960ATAQck9FMb5RTAo1GM5/vKxTuJgE1o+xNW5TePaVoZgvzkoYEx05FQw7TTYVAHipk/Tme72EChG1DVJKLHtusyDBPrEo4cpV4Gjq4LGe6VQhsUoGx1XXgOmHkjqlNIWcNwVnFi0hQDmKzyeAw9S6mQWJgUFeaEMhI1A2pwR5ls5UwjilBuKaGEk2E4jlYKRgDhaKUMVdjRgMtFmYPvQCZ0N/kAPbYQ8jg2dcWgryLO4wc5sgXCWa285tVmI/OIY1R23g+QBnNfCfOfyxDN9yEh5eF+E/gxHc5a8ucbGD6pRE+qMEOQhaZHDDDUGCGRGEeIF3FGPLyubhbMZ8lHfptZQTucbOh+El/W0lY/fE+wxT6CLPOCwm+BdGXTOCXEI06TwCemaGgnt+G5C8aEJ4eO8kE9DRSRLeB/ZcwcnhzStOz4ah1pQzdI71apAvg9OVFFi+8V3WVqnqcALzIg6Xq5goKIEOUvQLNOdmRRT9nHnTh2VBF4X/7KD981kKRZPZiNhaUBPUmAMPh/YfxawVznbPSZh8AUUb2PMCcFpUofEQTnYfwPLRXtXic1ZsYuYLE/RizpxciVUJxZE2D+jat4hhDlXjPJjI8DSxlPCpME5R7061eEuCPnuAOw8XgcLd0ZoM7RpPUlBf/lRG6C8SZ6+WyWspVxdKJ0TS+vOqY4xMlj3sMPlCAJW86EAO7GhMgBew1egrBIdETUXhbXBfB9TaRx/aLM8n3qdPODdKpi0Dc6uIe22Aj5hfCNIujuFpkpUVD08FNTw505l1R4Nupk8zKfcdXZyVHThstySPFohrZkL9ku3aM1RVpLHU55TNe8womrtNyPUsRn6JpR+R264Cd1KUegiOm2vEIIrYXRTHTHzVsaeN5gbKhSckNq8QCVnhMXcZ0k9sBJCPs9+9VNXJgNwp6OO76jm41/UgVJFZ1SjweQ3Xqgb0ml7ceclxPnxuLeh/MyQ9o/pKlXLHw1QMDuKO/L8k/DMEtKdBds5QCb+0n2hcr08gH4pKLDBXuRmYDzNi2UUkJHlgsw6C8S8pHyVkry0/GEF/lEoky1QXGwCWbFC5sBIM5M86tPtJy/gX0Bi724rtIHQb4ee4ZuUSIcwobrvOIpwimnAdhqVq2k95rMwHsN8YfwA3qOjYNp0nX5HjsC/ANqF2YbPKeAG2ckPNp9QdEZSNisxTTDucJ7S3Lba0vyc4bKUSDMLRaoyd6FQtB5o3OOuI0RLxLxIjIe0R3OBEiKpLGHuKQF/MXTE8glSSsvmBp0OEGGc/1KbqAL/UCGEKa8UZzvQQHZgx5yQLkE7XYbXKckWEKuwTECcQHdBWvbQgvJbqB+mqwQWFx/mGaptFAtLpJoyecD6SCej5HSRrXkoEwCJlJWKRTK+wW6OD9UPOXw+3AumDx5v1yfltwzXidqB8yNqyMtlDfbR5ULa7cPzIZvaEcslZM5IsDJVgTfCT2wQgMtb/nj5DBH7l3yQUfow7dAP61qYkg8+ZNXXcbBAmibwLyJN1+XnBP8gUQ8rR/I4kzcF/mUJ/TCspvEBow74F1HisabHDxOCxIqEXyevg3fTIII/m2x8wt0L+HdEQNGTtGkiUphSS/lF+bIedtNvzrCz/ISHOD+7Uixq5bza4Qf+UTyEHid5mh+k9D8YgC3GjGv5ErzMHgjt1eZlCtqKobB70w9ESah8mYYOSSwIhE/YkDW/F3x/5Dctk9VH+8aNdN/8Ch8wY98THqEV9iBm25QbAIa3w+9w3aSoXvKIH88vONl8tL+UlSqh3Ir0U02HT5CpCn+cOmt70Y/JRfm1v5FnKCjhopwvxAZuPQaebkN6mZzgfSv3T7dSy6dyCViHt/daaLIWfIsHpPGU56jmHVYEeXSSRaxKVqwoR4byNBdkBRjRcqp752UHHuewrR7i+sN+euyZRpm0/xUy/dhOus2bdiNrjvPfrX8gcgw9nn6MF3WjgM746DRCf/LO9FpTLo5VR125vGAnHSnYb893HssFpQWqvYHVy+wGp7q83ACxFZ5OqY63G92snLdVhZP3I+0PqVr+oFEl8qr9vlU41eXlAJft1om1q5S25vGcgD5H4evygThhMF0nY0JahqE1arsl5BWIOyg1eYcXO6nOKSnkJnaj3PWC/qULSeQhiH0P+bdIrH2YQfKQVJdvWkm4nrGDUDLql0gKxuqsn5bJEbGzAQzAVwRWYKdU64zsRXu0lRHVTwtVNaW0H3no4erOgcLqMHR4G95+mp/ynM8wN0r7Zk+TlXvJdHjKbF+k7QRkS0Gg6rGq7qyRbM3Fv7D4ao3krMXPdAxmiVkB/Y5nYyQVw/vqMiUUJz/Ix7M51osTC/moy/eQoJ6h8n0Ofq9+d03eIYOSHv+CduQ7BblDwuppOoDbBAml7eQDHje3mQLKU3mQTMUoi6REVqxVU+XQEhUESueIlMo8xl1/plPbTQ26RErJlaO69fJexscQQ4/nAxL7Ffsb5wmnIHOQJSVzRiA0twpnU76kx9Vqn7j4Mj/E7RNUhEh20L5V+s9UA6FDc+1D0jfO8i2aiLtSQxbKgscXw1F94BkbcbBMB9YK32Kr4X6Bf7X9P0CwT0qQJfKC7FMkZoDqQF+Sh3QoQz0g2BO52gv+AMoVED6kyFM+JODjAprHiknc04Q2SqB8dtjZN3+XRJw4KphjXPCtvEoTvsoKbLTB7Vhaho6mUh3/jp3fdRTg979QJ24bTj53WGjya36qh9RmtEy5/fxQ9DU6lVEmg8+oWp7l8N/JavqHxRGGqtWxeNjBOTGdF11OakCJgQL/UGCHbaSwGbPEK8bqHvUOELF/GBs2n6CPFDjkW9rGR6uyFRKTVIq+6p3xfYGLlflq+SEexhJq5YDcDFV2TLpUSBP/qCx9Mx44dDoa1FyDr31iDkIUmiFdGB0LWX4J4O+G+r4fPNg3dUYgmMpGuSirp1kGsHtBirTW3QPV78kB1jfKUAH+6UQROUyjBs1AHRJYVBhgdtTNynTR9kGXI0I/I2JfLV5MdgXsNc4cGyjHV8GrbdiCrK901jKEfUf5qIfvPWJQRwQ6USeMMoJ07nBAL+XXXUOX1Edsw/St9ZnOWk+hj/uB6oIwKqUQMUckzLnQyOEH5TDTd+iL3TytYtsHB9+VoNBjr2OGoUHHm7eqek/SKS+iaC8voG8uD5H0ncOihcHRanGQIBEoRlHdgIYKg6n5+M4CsPMJm0w+oW/mq9d8XDYNC3Id7CSbVrU9tp3oiLzq99hNWobIS+G6I3L8qO4SmwCsz4z7x4ZHkUadoJMqqrrI84NjXHIU6y1BZdK8BODZIlMedOTniaRvUYa0vx53OcLUm/D9Ta6aBx5HCBIh/2ijkJczg8HJuBbSVqp1FbGARWvLZAc7/gbqINhGEMR4jJep4BSaIk/nzFznv1v6BA24LKlMGk90EPSolynizagOliIvlNkB8hPoPFPhZYbCXQs8D0sygR0o8UvKxDKhmV3BfC+ThjnwPJ6iyvteyNupo73yquRlvU9pmAOvSuRXy9XB8+vKpbw0zIVH3JzSmgE60EgMPT9XeF9JKa/a97QcqJSslqmr/0pAQalDspOgG1fRbqQ2VPcdOcA7X5dH7CXYTqq25vHDykv5VV49eYmye3azWiXS6l4+V6TEtMmsgSMhc0aC06pnvhgU8cY9xB08s00f02ToHy2bhGn8QHjsW4o6HqAyJMA/VYdGC7UAocz/n73/4LYsyc7DwH39c+kzy/tqi250d6EbDTQAAg1QAkGCokgAiwYEQT8kNeKavzBLGokzS+IipZEZmaGGohEXJYJmJGBxSAIE0EA3GkCbalvV5TIrMyu9eeZ6M9/37djnxL3vvsysRqPfua+w7/texNkR59zY++zYsSOOuSwEMUcdcTsg1SPDfbUSgA2C9UKfBVjO4+mYzsvTPH8ovKz98XHxPCWVJfjksnDf2E55Hsf15Z84bn78w+Lp3FCsJFrw0GzxvQtxu4QKM4jPZVakmAztK68W0E4tCWMWJgGXINWjJopZHLYE7ofyQuYk9/y+7wRAHbQO6MlXSg6ipCt9qNOk+2Jm6FhmV9VBOs86v2y324DzkdflKoK8JPYSKopqaR0N9UMreZrnV4HneZePCB59X4wxrrP5865VJuhVP0KI/YIfOi3qF/01eImfHauaSG1U27GNrPiFpubpwJWRoHzXHFWmZe1dRJA6BFF85stFYHg912mUMyVPKSBdAwdSVFwBklwPAta9B1aD0iU4fUAQrLCLBeBfEo5pcgbOUNDq/ITErxZy2l9OGdJQkbGZT0gEbSilE5VuysrvAOA/ZS7kXkLSF6wq6nG74AcvOeu5Y1cdkaT8AsUE7p1C6XQ60vY+Pv7p/C8BP8gU297/3g6l/SuIObk1OiZ7J1/lYGW0LxjxSiU0y8WncNbi+/Hza+zVA0SP63fYUPvV9pJX5LVN2R3LKGb8PvkrvyNH6VZSeaQ5lvEqCZdDAe0B8PK4MlhCMubYd+yqIc4t7YDWQAq7mIcKlUbH0hzIwTx5Xgl/VUcpA85o0W6XE2cu6pGY6qQvQxxnWdkRhismwSkGY0fSZaLQa4lkL0B5P05VUbavsIsFqI8s6ONA0i6L/XAVUYifIbcCbpd9Skj9yPmZ3yjyWd0jhXkZycppfzCiSplzxmfuckbxKetWCdHuQFxWWlaXUL2QaUE5B1HsRyW4HhZ0gQ+PGW2I78+3c36VULQryZmTeOmj7bTPHPLPsvIKA//y1hcSO9CRFHCgJNUVRZ78VHeuTtWgyyqx1Fvy4w2s0fZchiJPHaR9fUByx8JLUwcNUEcT/l4VOs803Oj/cir3cx3up9DzaoDn3Jfdwy5KgK9+UlKpo3nCkZbsv4J4EFkosIg56if2inxGKsI/6NlTIvqq6z4wX6eKYPsoo7ez1EXoRtmCHugyTVDsW2U8CLEeVfS7QUn1b6stVcL9aLHOsn2ZDz3klNetGnJaxpunhdLocHHmoxNWEfeR7JsnHnfJ9x1JuMQPTrSJ++3EOsu+qyqI9uVyYPubtCfudRQQtKws8LboQXfQwfFv33mqEN4mlcGIhFuMYculpjK/WKdaNHcukzwSLYEqKvIo5vYiyogt9mA2ojkViBTnySBK3lGjkHlR9gelQqfaqiqxdTybXM9KLYXtcDVV944RwS+kIdNnJ7o4Rd2oKOqtDuUtnm89tVFoZOn5J0e24ZvvEKK0ONk493HaiVgXkBmkOvXp2GqEHDR40mGqRdtRWb4nEXWyuofGO4iinGD7ieXEoxEkz+ec1aYH8Yu5ppySFtK+AV+R5mdRO+U4ltO9v/WwiK1yaf2iPX1k2Heky8mDEexPx6tLGqirfoORGptK/dhMPe/lVN60ctD1qPhoQKFK2GyqJQG86D5exrwPRcwfRG40+B4MQnrhEZTl35dSQMohP8pWFJSRsrAbqCsgX0DaXbLPItInNLtYv0qgXP4iK55jtDZsR8ApZV9gh4Ak0oFeBEaMMKBAV0K+f9JBJcH2LYfeIMkU9Tx1eZLkquP9gDxerKB+fDs/zsFY1p7VAu1F55zL5dDJGG50RN1YQ6BOqK3abIRgZGiN6QD1h9iGvaTldS6zc7sG+2EdBiU6nvxKFQFJ2fWV0v5T+yUTpJcs3gdUh4opE9+1BnuqTaCvSaHHowBJiFPO/FQDr0sNa0f/wTaHzQb6CuuAxxLmmWM/c114/xiDN0ZJmZZ5v+WA6vW6uU1WC7AXjq6yiyEaDCQboc+UPUGexesyaTMN2BDQHQ32S/ACaTHloyzVBaNq8BNFeQgGH3WgDEByULRyG/silS8B/A2s3PBtHRuKDBSGCBSGmSF4QmrbXL7KoGNBjm+jJZgPhExudAv7rRjcoANu07IbnHC+czQgHv75/RGomxyy3khKpO0ioEGa20r1wPYl6FxmWOCxlyfBsQ2ZUS47SB/VYD3aw32wvC2rAx+YfQDmigbln9QaAAabehOdBajV5TXqcL4MROoEnLIGbtkcdAl9MfhgHQa0Dug28efTw+YRbHOAfOog9OCBiFZ4ZPsuIokJQRuBBuGHEYoAtCNYF7irD/YLvpVZ/pDCp74iH0l7Yb5JR0rdJX0iL/mTTVGv9BkMXqSnHOThWApcUNf7re8Xdlk1UMYZbGOmQIR2jyBEPLab4RV0xnElDa+kFIxkhEF7/13CVCzT4HO72vDAar79DEyUTx+aEtiCKkQ+KAUkTnMlIj+W7xrfmx9/jrfqCHkjH8jrrCySzeNcE5zdFoEIegzBl74zQKHMJSWvyz9PnOA0+HbSBjpe1VFP4EBC5Dwitr0cGkBK+Zj3OuO5ukcdoYt8kPZbWQH/rQCZAC2FNhB6LfVHQ+FgHiiPU02wjUghDz+0+Xk5op6D0geCuBd20KCMPVCNwzC8L+ofCSQZhSU89xOB0nYaCCoaGLgF6MTT0sbiLcfet9yfrEZfS5IzLUyknhDbAGrltD8Y+T36HVGY3KKilxHrrApIeT4or7PK8PMWqyFMGZRoSEng8vuy7pK73SwP5xEzx2qCMxbO1ofpUkICtgXM1Ik6U0OdVL/OfQ18pE2kLaTcf/l3HD3o0kuxzRkfLSWsiBQpKfFlCxk/seeqFpQXVgXh0QhS8BYoit8GxVFXGTkt45HTnCJon6CfEGkljNuNifezBvItpC1st8aeNsETom8iz30IXt5btM1qgD4PwZZMvgnJW5Af6Yz+swFmE9u8nLk4sVsSjDCq8xWDFOHtA+roi5aVrR4ka0qje0XXy2luP9X1+rokJE4qy6DVmfQpL4GtDvbJfQTh54/nPFY/fAVkOXi+0YkAEVXE/qAUvCKPGSI65fysuMqItnK5PS25K823s3pwhByUy3Lm4YhQp5zpL8f8964weKkKjpCpLrW4dYDnRkAL4Wp9uXqAVPskI0mgDSqvyxvztlk1UIbyXjhvMzKp3PlgxOLQHGl3wf0ld11Fn/jNAP9kJ2W/Qn/hL8TnfSvl6wICF21H30L5JK+bYZltHjogK/3hFJM4wKYIRGJlBP5VkzrlUSezlf3BSEqDuL2I+dlgdWl/u53y7X2GQ6J4QNQT8E9APvXBeX5CUJFlJpBlVwF0LTmW8fP6qwrdNwQP6pdkylURphhCXVZU5Pl1mdMGd9ZJJyecNGokp1xt5DRfxjlLDpd1CVAmXbwTAafrN3G68xU7lUlvyLLMgzAfvB3zedkK4KFuOnaVwPOcY1mdAgeTalBmfnSc+T1XGTxzgWXbFFf2ICYyZBSDSMo/MOLAyM+1oiIoZOIASnjgEYhL4nMDbKJ9wQij1uKDg/JD3hy/+OBY6eCVQrRNyD6UJ2F/VE7pnYp80icpjhc2wToC+crzexfaEbwFuOtZAUi+1Gbkc36B4K0w/JwkO6fMOG9FOU5ubiNMU2YB8BAZ9tlBVZHkLy9HZUBwJmibdShqvg/0k9UpOsx9sK8NK4RCjjTT9Wv4tBQqx889agq69q/VkAzYpwxIyPOgpuhJ4FUPkAcpGlwCbRXEZx7yUG4USRdLSHtR7pSX/RwFQJjcH0qujCeVJXnddlKqATryGdSXfPAuEPsWdZKVIV8l+Nlnmyk8sglaKQnbcWXEv4IopSjKiXikT4/1pU846yLPsqy8Kh+2LX8EqhxIvLz4qI6n/FBy5g+i0E3Au18O/yzTExH63NemVQFlzPOBvM6KQnYeoFRIC2gbZ5uDBtdJNNMlyHM+Z8B1DDp+s5nvI0dRIAbzSKvC8+u4fsOug4+pjlEegGTCtMa6TdTlfn45a5z24f5xT82Dfe8R4OFc+3n39bMGzjrPu3sGd6zzN6uWtuPBCAAn5Y/MEqjDoESIfAV4RV9weX21h+Vsc8qzPOSQDpaQirzMn3BcYV+4iBCPWOBBOwKthH2G90/wnglaiNsS89F/ltlalAWifLFeVXhJDtkF7x9x+GUl2lDYEVNqqKQiGAmaL/btUGrkg0LRVcJi+3OK9t+rzjdL+bHv9R3L6q0CSHk+KK+zqnBiDh0EboOPoRE+HLtlxQUbDsNuadymM3bUbKT6HLp5LNYYYYu3f3LQztOq8WJ7Hs0inRRg8EFn2oJ8LeWjPsvyY+XpYn6Rt6xelXk8yyQNzJBcef1/EA/EOkGxvQLg4KL2BrhNinzOe3DKj7iqyOkgHvsHB2oFIjU+/u03dnpgEgFJ3s98O4KQvB7B8kX7XLTTw+FxkkKZ2S/oEwdIh0JNIM99pfeZklKvSkgUCiVoXotml/OqRmzjnDD3oVyeXO6cvJwDzBIgumO6uA+JvMVjryox2s8pZgBHg9JZiqgd+QJx0ybK4rE6nx36QMQgxcsD3M8pf09NnlaHh/Onc8jtOJfMe7kvCdO2/aM9ap4TuG+xf+wZ+TI9WrwkPeTmFnUYl2m8pqeed5viSoMu13DlAH8+KwybU8VE6djkz6WHzcuQ2u7tR7lsAFlQroNlpCPSnmQzR4dCplyunBfaU3cqAD5SAaPwtAZvU4c1IT9DnvBypqxLXuyLf6KwSc9Ferg8nWUAYclsgABjAK6DeU7PGK4IC2YwtzLCFxzNkX/PAcTCKmOeQu4F+a1WnFhSKk0s2haNSZusV6O6CHLohriH51nuy1Qlgq+yJeXVhWuC+Wi/yxd8kHjQxUrJtR9B3PILEovw1RCCFyS0LK/laQYjCEMRrEzHA2yWqyh8CZrfCV9txF375Z37+7cJPY444SOtnANBfuRt7I8X8r0Ced2jDn/rLs59nUvTtBvMUxucrYLAqKM/FC8JZACiWrQT5AVYnVLaUPAcMchXCimQYt4v30CWhPJSTimDX4KSh5gjcha5i31xFRG3BLh85PFslyhlpp7S468pX6vxBWFDG08GMJyJjZBO0acW38MaK7V5nlhmn4eNeCu1VkIa4AGzWR/sXcjMoMRXRvjKAK775DQXjCiSW6gQJCWj5xX33nAQquBA5O7B28tsGU0uB4MR/GGDUSx3Io//PE9S+IGBt0D6nvg+fTcOlrejAPlRFjqrOOB6BN+G000IvpdBK3TIKiv3XUXwxOt+j0I6DLBI54IQ8ZGiOvbCPnS+7oxnGJgZjMhBk49tvQ8AHY7v4NifVoGX3gwKNCZ9gCnAbSG924B1xywH4ECbCEjqk57Vxj3Vb4Kn150jX+P7D5amZf7B21dlHgcMn/HSGupFMAI7QrdoAPQlfFOmBmbaBG0mAJ7fFMptlgEa3CuIsPMJZCHAK96yOXH7d6BeIeM85Rz3t+xB831wVaFbZSDXnD+kpyAfYN5HCQbt7AfoOxyUp334khHUhoGavDqCD6Qz1Il3AJkucfRxIKSox8E8UNpjbp8PYrvfDh4nZz1IjOCqTll6CEa6MHvkIfMMdWbwBw3e7ZwRx1mRAhEgXhE9IWCIgXHkU1nUqyKijfdrp8szQZ/yuh6MQReuEnQa7zwkvgrc9YD4FOBveNDY8htTWUdpQpSpfg4ei3VXBGjyUiyru4rw2RxvLGRAAadAMLhQgEF+AvIbG2vWbDWUtxFmAVQEiY6Z22POEHy1oBzYqwh3Hh5wMKgYAkiZB6+FlCC/rSCETiU5QwQmTThHlQMN5Pcf/6iCwRfsortn0+GIc1zMbN1vICpxn0AmiD5G9nEAGIzohmfh3nUPD9EuphAM0CoJeDFmsKzMc+A9iDCAa3Km3ef64KoiiLmQaz94nuEX2HemPRjMHoDU0OcQhDRrCPCR31xrWLuBbfbDhIaAPpryfPmgI5UttdHDhPuU4d5dG2zftAlSTkSaTQahDGiH8K1DjH/wsdBNTmUwAnAAXUoe2jkVlsYMd68qDu4SolRMmWNpkZ+DCDVgfAtGxm2AfPgjj5CXQJQ2tF+5WWnQWB4E+Ftp8J87U55BP4sIFx2Zo6WsO72eDXd2EezDmfDEd9atvnncautbZq0O7Iq2B5rA8dDhYEZwNEBZgKHna2PM7DD7aZA3onNdrH+UAdmbTetsbCIwXbcxzCD6Pk2CdsLLNZ21tWIyk0qRsGaGcCI5r0pQ+5DVvyTDHFT4wBRHOSrIx5tl5Q6urHK11S+v6FLNiP2p7xjsmnVvqx/VYF+LWG6DVUbfOsc3be3USWtuHTPbWDdrt6EFTMwRqVMnzWYLfQeZbJh2z5mcLaHOk1AsRWW8HPowrRDwT23O02V1CH4kPv8p69tB5Ed3izwVmud9u+RBhUI+WAtRntWpPtwmDkIQs6uMOI/5ueLyKt0HJ7kBXqipN9tWa2GQqXfgp9E3BmPr94bW6w+tP+LKWR39pYGeha6lazqrAHemwtJygGXQjRQGqkM+3itR5zUJupFl+xxhdBGMdvsDnPOxDQHaTaPdsVrDr4TThrjiWvSVAihZKUSbuSoS2wkUGrzUexCIoVzS7ydyQxdaVVDeD7PSoHC0idR/9tdRDelG2SZ8AwbmqKDL/ry8w3IARwAvjVXxoR9ZGV8CcIVwPLPhcGb9wdSGgxn6ysR6A94Xw3gCfQR+dMT7JFw9Ig9GQGEovBRR/GInlFPkF3i6xEFgu0pQ+xYQ/H3laH8enAggJQD1BK0Ug9McpU2vsxzLaFm930M1UN4tQnAuE4/QpXdqoBPpkbsmBp32BpzKJkYgBCV81LWGyB8ByqSxZmPwJszXnTfdlx4eb4b8TGnUKdvqaeRzOG8GGScE8lPIOG2uOyDztE7EMR+sLavKo/zG899C2sD0rh634sEppJUx+owIbn3ccf+q1TcBHgU+KJ7CgkMCmOb5CvDU1ki9/X7zKred5/DtkHMZedWkB24fGXhwlcM/UV6z4WTmA/GsBf+xbrx9czJrInjtWL21CbtC/6m10L/y/hf9sURphzke3HZ/93nezvG0DWC7hn5So3zrCMS24DePId3gBSrrDtFfYDZB6jlSHozLB+hMoRlyftVxv3bn5fgnReSUYhJQOkZsFQFI2j94gHj4aI6Qju11sk/aZp1V+FCueyGvu7of2D8GEAEzlAmhn4RPwQcGmjGcxLgOYLsPhzKc1G0E3oiBBzrWDEEJMUV+YG3bHTWsN2lbD52R6C+kh83rzxy9Oawp7aK8i3yA++yRp30hE+WaoL6tWxeOhujbWnk81ZtPjxqPeqhvnbBah8FoC39r6g+TEXo2x+00x6s1GaRwAIKdJXAQV54pBvsAB37lcYBKoWgjvGAB5+Ef6nCbcrlMYEj2fZTkLyeC2D4iHx9XfHJbIvwnVwLgSxBsDNFvhiP4DdjQHvsQ8oPZug3rW9avbcG+0KfA707Q9wC3OaTI9wnk3f7222SeVoHXm23AZ56wWes0/OJJTFhOIs/0GGSGjKOajfTjeVSSUw0GMpt87ev2lZ//BfvUz/2cdbp71poMNRec1aZQIpeosQMUWps2rT5FikOwy3laPcpbxRvEOM/lc90jyEKZKD6fca7N6tZApNpvtuzCqG+fu3ndPv3WNdtuGgYelE9rtobB52Hs9wefetLee+q4bWKwmvImRezfUB5zZRhcnYMZOpnsT//5XVlbUj4CGq9XTZLTZAoHw6X4VquFPlWzwWCgMi7RE5O4U6+qgjwAUVK4UOW4HKoPH/xPovFyy6Q+RQcaWhehxqnHz9nHfugT9shzT9qwgb06mAHgIApc0DdGoxkcztCObWCQ4kMWK6AbP9s+gLpzmG80Bx6oQSvFk+HAV4zhcIewh9FoZFtbW+gMTTndLJI/mpT8CR9/vr3Tt3/z2S/Z//RP/4197fx1yM6L4Pyp97E9fmLN/sJP/ID97L//79gTpzf0JJH2hX5qCHA5YHFg5/qba8zPQuXsRc1CozijR2tntTHO8xD5sZ6GgOcDbw1SbKF3bNp/9j/8Q/u5f/Mb9vLlm5j9O8E67MlWw144d9a+98knrLXXle+k31x5a6F+khD0jXqjLrb9ycsafMPEtm1oz3/fh+zZF95vZ5581FrwGbu7Xeitbs1WR09jjSZTABpO+5FinPW8jy05yW9VVIEQB/6vifOMQAzjZb/fh5wYWBGgdzFm9mAcH/ro99qJR54zWzumffYFI63dnQODEf78bw0Ot6HBioboiqoa5a26XzBSG9et32orGPnC7Rv2G1dvLg1Gfgyd6EGCET34i221Acco2pLyEYxUmSIYoTwPEoxE51lF0jkBMNeTHHIiRTACuSgngpE+gpE9uNsTj52x44+ctet7d+wrr79hdwe0LhyDgQx01UBgW29iZoCAhLerrQK5XUJm5XkuF85nCkaoHwYjjUbNGGeNR2MbDce2udlBMEY9rEj09TsgBmFNDLMdPmmFvnD5bs++cnnXticMxFrwtXDAsJVz7Zn9yT/wUfsrf/LH7elzxw4IRngBcP8gUz1CCxWM0E4mKRih36O1LAYj/wDByGcfKBjhTb6rTrSB8H/Ma0KK7QgqoC27C1xqTOxWc2Z9+AnGK2M+wYlUv+2ElLc8UJsNTvpTXyyCER4e5bm2+IoNonKE5rL1vAQJT0jrsNGgD73MbG19zawNbrttDz/+lP3Z/9Nft/d/+GO2efKUdlUwMvraV+3FX/gF+2UEI7O7t6zF9yTQPSsY4WUFqsWDkToGcH6Bdq5oR/LWOXnQkYIRNLYMRmAsgM0aNsRge3k0sC/dvm2fu3bLdsBmXdZZR/TwMPb90ccftfedRDDSgPQIQPglDEL2BSPI0wijDUVb+N1I9gUjRYXqEJceSfcNRlBOmhOpgvLcj9SxmaEToBOhXaRgZEY5YTP92ci6GGROPHEOwevMvnzxkv3mSxdsDxFHHRNiOpgJTq5uRsMMoA+7YDBSteBzX3PS+dJN6iAPRkiQRWX8hz7DYAt1JnyhG9ImqtU4/YFHbTf5YCLKwCv3P5rEyQ1/oWcDJ5wrRHtQwU3MXCa8dwTul8FIaza2cx2zn/6D32N/4Y//IXvi3JaCEV72oJ/gbNEvacBfcCSSyqLX+SbzkZIOl4d+kIIRCAKbZpiBDoJ+AS+IbQSjCESGtS37m//937d/ppWRG0Uwsgk8hWDku86ese994nEPRmBDCkbii1aZqCQSbIKTGk5IGxgnPBgxuw138irO/Zdu3rALt+/o6SuSXvuAuvQdPPt8wmTKPiXKepJOQrlNlamvFRWqQ/QZENcaEIo9gvlpeoKmDRugf2102vbM88/Yf/x//8/tQx/9HtvKg5Hu175kL/7Sv7Yv/uov2/D2DWsgGOHFT4YhfBUttaGZEwZu/voeh1rqoarBSEnuUPk8v16/Cw5TbzPlYQABmdY37NLurn3uzYv2m+cv8zUz6FheZx11HkNE84eeesK+49Qx24KRMQChdg8MRvCh1vhFTPO8vlyZRMgHKy86TJ6fcxg85YHH1VMTcKDjMV9YA/1RRnpiVosdg7D9IN9RKR7+cUyAYDjlnKnQ+Xop7Z76GKA/dBGQbD7xsF0b7tlnXnvTfuPVtzAbBDWhMxgX/Qg7HztcHwONghFuV4gob07cJtQ3ii1SYcUg9B8IVmMgTtuAsFwDaWMngk5nF1i4H+1IEic3/EURDrDUFM//XgO5Fo0AkzVst6cTe2yzbX/yx37AfvqnfswePbcJd9qHFnlpA4EclekKB6Bn7K53MDhDx2UuUtJh8rjeqycgtE2fT8vm2EAwGGlj0N3ABG7T/p//49+3/+8vfsZeuXwdAaoTdfVMu2kff+ic/cATT9patys9UW4e9KDvXQUe75mRHPjH2IwrIewivPRCH0k/chPB+ivoO79+8bJ99dJVaY+7UJN8HylNgZM7D/YZvngvYp2c/Du9V9JWoi1VIqkCaMIH+lWJ0qu0afYQrdFu2LPPPWn/5X/93+hSzdaJLBjZfflL9tIXPmO337pok34XGkVMO4XKuKIgkXEo17jOAAd3Uh3aJ7dypOZ5e9O4WlBEk4xfp3AKY4SYa8dO2GuXrtgvfeY37V/9xucVzdLJ8PLUGtzuUzCkn3rPc/aB08fsGAyMl2n4HXGZhgFIA8rXbAdEN04qv6vMqyi1SSzkg5UVHRqPFMt/WjpM55ozPpJuvKORUWYO3AzrE2k3bN7vO6rG0wZOnZwH4GE4CQ6CMiI3hC72UNJ+9GF7ffeO/cqrb9ivvXoZPJNzIWkgAlr1JmbM40oGI4vEoIIzOcrrdy9II0rpSCiT1EN2G/+4wwSDKgx6HTttjGfoIzW7jVo91gOOMlEN7AnrAHXTB6NLRgeKQTBig4mtYUB5+vgx+8kf/SH743/qx+2Rh48hUO2h3/AZAqhwguAeCvU3MzfVl2o1WAsBDr+DOo+UdJg8BiO8J4pBNleZ+RMArKFL+OBN+BQIrGAM/Lf/w9+zn/83n0IwcrUIRnhHwHPrbfv+Rx6xH3nqWdvq9XBE+hC3lrfTlqrxGDzo/GGMYKA65hiQ/CN9B2veQiD24mho//b8RfvKW9fkFzzk4JN69Dl1a8C/jke8lEed+LfwO4LKIZ3HJPk5qCo1Gi2NDVwN1OU8NHUNXYTi8aWRzz33hP3Nv/W37WPf+/ts6+QZ7aNgxK68btevvIZoZmYnHj4jQ9Ft4WlwFUG5Ig5OUhgp0jg1kZIOixcnC6QIgFhGqMf7YPSiqpZ96Qtftv/1f/lf7f/9d/8RBh69hFfOuQODeabZsp/+4LvtQ6eO23EFID78yIlHMIJIuAhGkq6iRSSVRFNQcK+WHSaxzVwJUMrAQ1wYEOQj0VwUjCCv5WbagwrmNL9SpOB6QgcCmSGELk0iz+vhXPFi8RC6YOBhD5+113u79kvfeM1+8aU3bAf1uGRKaqBeC+BmOBxsVpbYTp5Vgu3UkrG4JDhIcAmWTWATEwroZoC4pGGbMOqtIQI0bFM37DPhEY4yUQXwGqIu7GWbhk9AJ43RVHp57uQp+6k//GP2Z//az9hjT55GMIJJHqY4DEZqvL9Ev47GI4HDQUuXPhiQVNFiYBO8ORd9QWNCCkYoMwfSeCR1DK38P/7Gf2H/7H//l/bymxdlDyQGI89vtO0HH3vUfvSpd9nxAd88ystcVZT17ZFWw6EDgr5QPpP+Ec5El7JR506rab92+7r96puX7aXrt60PsX2yyzszoVv40TrqTBSMYA+UsxfSpEjsUwcFI+RUicozSpum/+TYAb2MKK33nfVO097zrqftP/pP/1P7nu//YTt+5pz28GDk2gXbuXvZ1o9tIEJrmH7wJoIRHl16wD+m9MyEqGqqWCC117OZlpzYsagaXvBvduzFL3zJ/tE/+Mf2//qf/hdd64zBpAMVPttq2Z/54HsRjJxAMIJIlpdpQBGMcOnVVwnoyjnLcb3wK2OV4SCqmgbZZg4/7AC8yS7U1kSHIdFc1NmQp8xFBVDVZHkgQvt13Z62DgG4MjLmwItZG4dj3kxGabkysovc6PiWba937EtwLp9984LttlsYV9owp5a1eHM3Ilk+YQKF4Vg4bpWVguYxvmgC+IPcEYzQit1x8CY0rpD10SP6zSkm/76UfLzetLXtvs0u37BaD8MO/AbH10rL+y2kJmyfN8Rfm4ztQn+sVQL6yCaC2k0o4flTZ+xP/MQftj/91/+8PfbUGfQZBCMz3lmDagpGAF6uYTAif0GfAlQ2GEnt1JhA74C2svvTB/ASDoKRGbzl3/iP/nP7uX/+8/bSG+eN4ReJN7C+C8HIDz3+mP3YM++2k8MR+hynepB1xe0lDzyYZzBSEPg8q7dxqr/Y37VvDPt2HeNFF8w96MDfN+IrsU3dl4fj6aoEB+4y0GCOa5SCbAWHlg92n1UlovWyZeMZfxoBkxn4040O8sMBxkqe96l1Om178onH7S/+lb9mH/vEJxGMnNW+CkYmV8/bzu1Ltrm1jnEZStEz5BiOi2CEBgepKTgdt/oLt8momDbYuOjQai8z/Jd4BdF4EJliJtNY27QXv/xV+4f/4H+z//bv/EMFI1QoDYmzvqfgaP/CB99vH0Ew4pdpqB+4EchfrIzAGHnzkZbnpJfyW/XNB6ipir5HP1nNlMFIal+xMqK7raAdyMNVg5z2iVhB2RaJbdbKCG0eG7pMw2BEwzIv03BtgM/Ez2wX+mg+cs5Ove/dtnNiw97o71l/bQ2zHOqmCVtpWXuM+rCD8WwEPfoxK0fRJojdwImeC0Zku7BhlgEdzPYVjNRSMNJGn4FT2YJok4s37NaXXrbupas4AAeXWFfhfx4xUtLR4PmgwMnKzHYg7xvdXfvSjRt2G36EIRythZdwnj592n76J/+o/cx/+Gft0SfP6DKNghEciq9HqE8wwMTKCJgamOlx+FVVJK4is3EaEzhVQ3sZbHNypmCkDQ6Ckf/b37Kf+2c/b18/f9564FAc3jPy/HrbfvjxR+0PPvseBSNwnH6MFacIRnQPHXwj+4rESueR993dgp72nsDs/6lHrX7qtA2hy53BGOPOlt5COuR9IqjPhQDqhS/Bw2hSmAJtjpd0mJYGQt3SS1eLKLr6CCb4fGJoBtnWEYzUKSN8ontTXpBYs+//oU/aM+/6gLWPndS+CkaGb71hd2+ct2Mba9bZXEdlHDLdM+KUgpE5omJy5VSDOKuf1dluyECPSu3gn3f2/FQyGOEsD9Hb+jF78Stfs7/39/6x/Tf/4z/QqgjlpWPmsvuTjZr9pQ98h72QVkb43DQPx5t0eKfwvntGkq78Gz3VFaOMik0UMs86kZIOk8fVHEriwYiXFPeM8C5N8ihzmg2QuN8+YjVP9n1HVXgKpygDghGetinONYORWBOqw3HQeoaoswc0Hjlr7/+RH7KTH3iP7W52bIhgZIcvu0Jg2561bG3W1lL8aNqHY6ri4IL+UbQJ8uB0Nnn/ArYmDLSpBFRg12GQ0sI2z3EffWqIYIT3RozHQ1vrj23n5fP2+q/8pl37yssYgGuQG73K1XZkibbAx5gHwC2c36/evmGfvvCGvbnHG1Q9qOAE5onTp+xP/+RP2M/+B3/GHn7yNAYd3jNCZwydZsEI7xnhZZqY6VL9VaLidHLiIbvgoCIPiXbD7hWMYOYLqTHntb/xn/xt+6dcGblwXpdp2L82gOfXW/bDjz1qP/bsu+3kAMEIfEsMphSZ3xMpaVV49B3y9/jjRI3BCPuOn0j+FsvUbmJSsvnCe+2J7/uYnX3Xu2yKgZo/HdHYOIZJSw35EfrU2Jpt3gA91erB8mCEHHksEL8kWlMd8lZhGocJ/miMSdlwaHyIhjev8tIcV0r4VOb2zq498vjTdu6xZ62xdUL7KhgZXWEwctG2GIwggpVrYiACRfvhqWwqIldG5JlWh3SJgZ2EH90gRdUAECMkCOIpnzVaVl/fsi+++GX7n//uP7L/6r//++oiXEHlEuQa6jwNBf7F73j/vmCkgaNxNYTBiAITBCP6juRRqLn4QnW7+PK8LapUHWJzOFixvUuDEchIHmWMYESdL1GIKKqYbAdRsTKic45BWcGIn0s+RTSFQhSMQKD+1pq98Ef/sD39/R+32ekTNm637S5mOVMMLq1p0zqzprXooI0rIzrrFSP2izgxcHFoYgNCk8NAxFdGIDcYdThXro7wHA/BGCEyr7WhDwQj7d7Ibn7lFXvpX/6KXfjsF+2htXXbQB9g/aNMPKNjyDlBEHoDevn89bfsF1952V6Bc/XFdZrRzB47fdJ+5qd+0v7c//ln7SEEI8MZgpXZUMFIRzewohaCEb61hK+T542h+QBUFaI8OqUIODhIsp3FqkYKRqZ8bwqCEYZh/8l//Dft5/7Fz9s3LlzQfREcITwYaSoY+QO8TDNwPeieER18xSmdNAYjHHn4R//IMWiEseJmbWQb3/m8vedHP2lPfddHMOZ0EM+hL21syZaGGLBHo7G1eVWCl4dpC/SrSTmaODMY0TGpOedWkaJVfDvxGPoYQbYG5GnDMbQa8A/AbnfPrl69bq3Ohj327AesedyfpqGtgDCwYFDudNY46oALgWFgjhbXj0oET/yKomgb2kp5UjoLJFkYbOz1+tbf27N+FykiVCqTDic/1RFciJkjKM+TFuvdC6tOuQwrKRsbyjMeWGx8KqcTxqxQ79dgqE+7IiE443s21uBI1jCzaTd8haCFtIMqAqrPpYfKy9oF8IlUdml2CeZzPnmMNDkpbmLg4QOcfIcG7w7gT4KvITA51qrbJsrb45G1Bv0jj44w0FNEvFF1DTFsg/eNQVVEBBOyINpI4UcXwHswim3sqUsd1UXRXl6uiTbHOMEyWD0vUmGDks8ROby/jm6UeR9kgbybHRGSrBBUoMzcFh8BHNW0hn9UGVUFXhPgUya8r2KNQL+CGymGLYJ59kd0N+/L7MOV9i+clMBPQPAtFEpk+hHd+MArCayLOiinfoKoJ1UZYWY4GA1tNsIWOtcMER1XABwTYQyMgGECf7GyDydULYxtoLZRHmKqJTHPoyyBbR9N4EQaDQfOdgtWICcsrYAmmB+jzgDgqofulOZlCgJ5XiPUi5/Iz8qibg6VZxAfdblPFUG5lI82Iy+5MwQv9llVFOcJAYd+CAyYIvAQdP8UZ4QT3diNvpaCU/SRyQj9gneMYJAGq4lepg6mToZ9eOknXQOeSw+dR5mYX4DuhOCbRZEv6jufjqTOPF+IOPW3I/CeqQ4EpgNaR1AiZwrwGnGeHjXeBkaFJnxNA5OXBvxIDT6HFhE3O9Of8v6bCfwKUy7FT3gpTE/QoA4v0SRYwgS+hC/DqiLQRSAD2gc5iIglEKWgf7CclyeQMr6AvB6UuBNFsRP5KmPfAHEVYaEfriygJN47yDyVwAWfADoTzjsfhQdfzgMp+w+Ce/alGuyIN/NibIZ+uG/mN5QG0nb01Qfq54fDgyJsOuxDF+gfXOmZDpHHNuSW32EQRr/RaumyTZAshgwuKQ2GfDKcCoMxoWPJeFBWQ+QrIArms9PiJcdL/VYNjEo1YKjdCDQkCx8zahRRK/nkNRF68k5odS72HCLyNCj8a6E8jpljjsdPxi+/p+RFPq+T81YdR0Ee/BOYnz9HXjRFB+Oz8yI4Dz68RydhEwTyCExmSGU44OXBZ1XA4IpB1xSOQ3m2HXn+/kxs64fRUAcZyUF5Qhd0GDUG4QAqQ27UhUOdTXipisccAYvp0eFNlHenywGGV/J9SR0EP8HLXNQYwQEc1sEa+A/M4EcAvTgSwQlRR56XxLg/a7rzqQ68TU6e85YuIvZgJ4knPoLoSt3m0rFQnve5VQZJl7KTaAcR+576UqQcc0QIPrAzL1nJjxwI9F/YnP9oYWB//z58RHt5KQ9tZGAy4pM08Iu8bA2xpTX2I/gOVOCWKGkEoQiYbkxgMVpJAQc0XkDKTymL+DKT6gLBEmRB+FGmAW4nHt2EnAOVgqiW/he7g48UYDmX5nk8Ko6JgheWs14KVOI+CteNp0J8Ip/zI185uPBMg7dvm1VSXqi0PA8AnUec7djGh9bh9oFzGzZBHWiQZoTP28rAT9uK/NkRGazQnvCH2vy3kB42Tw3D//l65NILRCqSwCnLD/0CtzGw0Pkw9U2/eY8YL6RHi0c54WTxcffoGoMmMN9DHfCYhwWoLgdgmoICOPiXOoEKJWBnSBXY4Pi8i6RK8PtYKFGyB5EbhNsJUQYjlNX/3Yeinx0BBC3blk+hvsgP3YR6EgsmoP6jlSKvpOJ5ynYqiPnYztND5kEW9Y0Z/CEmb+wj8pHyix6gcAKjwTYjjap8ooSDaYuPFmknR3F5AXktXRfRD2dSdL5paaaS4HIX5BBwItN2zOpUBrl5SYozG75R0kMMVwoDEC5Dc9bC5TcaFnXkPw3N5Unog0pXYIJt8hMxFwjK86TF8ioSRVLUfxAtlFVdnoOI7c7h/9zB6rwK3gfa6CN00upkADsdZzVcoKclcJtLkSLaRhXBlsJJFtvMA3z1vV5/Dx6hMj3S7fYNDShoEygf1MBj8Tc1VA+Y1Y8+qBeFIJjpMeXFLaqiP+Fbd8FBObcJ9R/6GQYhY0cN4DaDEwG+pAH4jYv0R9UD/adkQRtLlP2CZe4riHmCFWlQ5k9LHDVSwMH+gJSX+3mjfwQkKkv9p9YgH5qgelBfugNxFYnhnge5tCb4HZbPgU4GKfsn0hzz9Q4f4R+aDciOgKM2Glir1YRefNtGvGTj8QNfhuaOxAlHWKRlBhW86GJ5xFwtsE0KLjA3UXSPZjOg4GOK5OspgchjD+a1K3ncBqgfzoSJb4a+yd1+jw6NdMZx3jx1uFnM07Izi1pwxnEEOemKW4C3zmV0yvNBoYcA93MduZ5y2l93Pj2qPNelex7Px3ZpAZoXyw/RB/HppWKHNEnygWmuoFJg6FVKTCqlc9pvEb9H96JcW8wHcsr5ZRk171isX0VKdi2fuJ8WJVgSjHBnLqfwAEnsuGGGTldgfnElokJA2+pTBCOIwBrYrovPa/to+xwY9UM+LaFCXs5eIPFcUJIQRI34Ii00hQJpKVVKqp+n/ACRklLeNVw9lGe/BJeeKTvLcqg8yb96SAMsZx1yux5mU1ZS1JsjDh7sH0U/wR6pf0gj2omraDKpSoFtwh+aB5nZVG4kY0ySzKWybZHP4PiYs8TXfkh5jLj/YYLZIdLGtL6QHi0eL62QuC7C1wgQYS9SZaEzBh/YB4UNKL/OFVb5HSpQikMN2hCQ+68qIvl7vxzJ9nqb2fbypkvmKTX/uYFkqlhKUXOV4etjZT6H87xsntzvsE9BaxlY3/lBUY/HcbAfIgUW+3cVUK4mJ7DVRZ5wWrSNLBgpRfVLGxBZxsXOgryMLkGGyC9gWQVRtD1vN/Nss8M7UNqWPNwXPGiAKNUGJ6tBisaQG1gyOPS+kl/mHwjZvlWBf5LsyVrySzVehv8o40AVMujDfA7wVgH6QKSy0/v5FmoJSfhcF2JiW8Es9qJVhH35ASOtGOTJ0Db8OZgvyz2BZqI+BOV/VuWJL/ipjDy/78qDkqMNSEtQbti49wHXAt9RgwIHi1GvDt06EIxIz0DYSBp6ijT3YRVB4TvhHznBkw+Vv4w01Z0bRqkNJ6oiSDoSki9dIR9xEOjz+FE+fTgYl7Lik23rf+o7ef8iVK8oju0cWRm+MWNUCN4utlGXdskDa57AAy2ys2AkO6Dyych4/bvIl8bph0p1K4YYUtRBUpu9s+Tw9vN+dypQ98QwLUoC7l1Ys+R5fpHKcgcp8qGx+WNXFd65AuSVed8uOsjcfkcBPNcOnSswCzlTPlUMhjacH/AzLSde9JmqgJcx2S4MjoBu3E7wG3VdejCcX+QhExBW4bxAkhe86C3z6dHiuexIIp8TKyXSCiv1nQIR1zV1teCL+LMBodOKQj412VC0u5jPkyfQRlj/HqT7KQotHgmUvSL3kfjkgUrRVwLU1QJQz8H84nbkHRqD0/moFtgugjIrYXMdJEbvaVtlGaVgJBwJa6SDJSPLL2vwRia/ZBN10lFFeXrYPLaNnYdyeT6CKUGdyfkyF9TTo2fQTqo9B71lUDqMD/OBkocvE0qefwoD1QlKeXxkvJpdzaeHzkuyFTogP/FC5qhDeSTHMsTxsrRyPLWV51fuVvCeUFgO8guIfwlzN/AJ2Iu2B/hNiVWDP7kR295eD06Cp75TlIU87D+cnCQetONyMy3O+jsAMgC3EuksdX1nK/VABICaitUR6ZB6gw7hg3QDbH0MIKUt8iBy1th7Lj1sHmUKewk/GjYR/GQzqBwXPEn+n2mUOA9qc38ruefTVeK5RagnZPm0TfkSv+gzsIMinyC9AXN6BBbLc4Q9VRWlT4QI6XwT3NK27GGeYGnLCEpIuzi4vYh0qLxaVSBiJg88FisRTghD9HFTcgopRQhGWDuTWpQfKecHkbe4D2lxn8WUdFi8Ze3NiWWFXjI6aJ9l31FFHik6COEyctuRhpuEgyjtiY7og/YKQPcAUFqmMchw0hFaSPJEXggtZXUA9iDeU3S0QalpERgUkN9nFVQJSLxQkf6FrlK+hqPVxjZGGk/jVJvYbtoMbQR52Q9aXYwyi3Aqc8tKnWJ7sW6eklaFR2Ke8PMaW9l4FEFdsR21yWea8iojvG6xAqE8z0EVQRlSIEKxlhClWyQPRorexL1dGYy+fBfCFRFl/i3gEFmNrOah8Si7KyG5RrU5Sh16EQtSfuhC+X4AhzsbHo/gsbisyMf5uDJSehyWpQ+/C9u5I479iaCcR+jYKa0aon0CZPY2e4Rf1Cn4JYp9VgxqPwTlTZ0SWMQU3SOWlVHR7x0hgsqcV8i34Symo4qCNyOifbxpm4FIuvavewIKJMcSaYbCCfI4SPlwK3/PZ4wZviPyR483QZ6gVfiPDHrKBzhlDgCKtc3VJ5/J0jZQiaC16WYSP84IO4/qHpCUNwDOp4fJ043Oaj9sRAg7iG2CstEXot59CcdTP8IuRwRcAcnz8pVMxXe9RBDhAR2A1C9z0T5Sn5ukFOXFjcOpj3l/S+Wpfy7v21UArBk24TqBhMgQIqXJx8q3lpRWRlAjOkpACiSoLK9CKE+CkeqGNR14Ps3zh8ErKNqqzIJ8RNyNRsVp+azYoSQojM+Ll7OckoIV7KIYTdCYljVFtIxXRYKwXIbMJJqTTfLxE/KsgkwHEGVwaygv0VAgmkWYSV7OvLRBhagAGYLbQhQUjIqDlPr6nJRweEzTQOO+AJpJcDm5jx9DeiTgUY40Qs4ku1vLMrDMB58YdKivAkmR/DFF/aCnlBo+zHORHi6P7cK2J4m4QXmSvcBGdE+MVtioGQ7ITjxCgP9Da9Sh/McRIb8kMack0Rwr1MZ/7E9Jd7oNoghMXNfSt4B/BS/q0a54oKJSxZDalnyH84LcGsqeUxK6VyrGjnyls1/T4oECKMxQHFtlqMv6FUL5kja0D6xyUOF2gsrKfRiZ8oFOv9aZ9AFQUDph3YDmmzg+jI5gHixGvxMcI6JjRcQoX0SxXwaVsX7VsNBOQrIHgo+NvM4yeXOeEN9RJcSHAwNSMHHOw3bQceA19VsjAln4p5PNDdgIppByxNH5itRtprrAvwWULwUsgROnc+l1POFIMpv5Y9BKk8hL9XuEEG9ipa34m1lh59CB+4tkFwT+TW2YMAIm2h9/yW6Y0s6gwQxuO9WB+9LkT/0vc5CQHHy2O+6LIU/3VLAYFFVZj8JTdH9LbanTlQZko6xMhYwfZQ73I+Ez1GHUp1LNpG/qyOvkgP5Q13XNVRGA9fzAFQTsmm3FhgIsgrIV9s1K+6kMRrDjZJJe0SpBywFF++o4qCVgW/UCsVQX6SHzdLLZRkgm5QTwD3Anmzo/Tmx5440HHVpiBRSYgM/lbL2hlcfEvnxtL49H3TAQEbCvGyKrUGcJYMiRE2ntk3zW4T5Vg9qOtkbwoLbjLyB5Ig89FLJxv7TvIlwvy7+vClDbYDD8UAbaRx1mxHdDMCChWXFhdQihR7yZOfUY6QT1+EZNXfJgRTc8YEWITZ0D/gWghxwUT0iBCG9unM748/EI48mL8qJuts9R4UEvBC/HDuFrhshTfid5DOXIncz6GEv6qDsAeCEYxH9TeJdxXW9jbY6n1sQkkO9C2n/5o0JI8tP25VZl/m4XxdNCAOWe1vG/VIUSXrpiXbpA9iV/CW3ZB1cV8m2Qh+JJxITYhmdQX2E/MQGKgTqpi2Jw5h7YDDsrgxDULZbjoEfqGBU0sKtidYnBUhNC8adZIiBxA2JKzcAm+EZaTuwS0WS+aeJhqoz7EczEFUTlSEEejMT+kSeffwW+BfQtOszKUNXlzds3Zz9ZAbs//cgiFXVV+Qif2QNEo7t5p1Kc8eWqweSOQ6+W2KIOdMWRPJEGF1mVhq0KoyRK4xLtP+8MUA4wE9HBunon0X69kZNZRcIyWhUNoo0RyO4jt55FUjAyJ7pkZfSPHQTfFilP4B+iuJRlunUAAMwFSURBVDxSqxK83QTlQFvnkBSUtkPu0MFB8C7J1EnHTSQ+tplybqAbWbkt3pJPXhb5KkFSuVyUJy/zgrLeQfL6HClt5WWRryjwL4OLC6sqJiv7CPXETvvsP0a1MCevBEQ/4ZlCfxFSvuxDGVg/HYfE/zoKysrjllWOJlxOzYpdemghN4wsX2RZM3wOt1GAgET3AXALqi2W4aHLKqE8/3F+XWZ+JIuAfxoPyCMDJMH2ZbW/fuMsjrXiCFpWJiQlFfeAsBsR5a6pDP8KuL7TrinvyI8dvCqhaFsSUOce23F5yWVjcSZDovmVEZWhUmFUBHdOyPJFV0wHrRJ8CQx5Gf088K+A6i7k8f8AYln6sC452X759iojLqkQ/CzSsn2OAiTbMvnik/Hcm5R9gXDHzXL2i8D8flUA/pWIfp6gOqnvzJdRO6BiuwT3ocORxGn7HQd98iE3y6F8Tp8kLVW7vShN9uQ+KjtuBYB/ZTsDSZ5lPjUCLBHyi7TsO44CclpaHvAaykt3MUYlf1HUI2gnArdTPe1XXeBfAu3CbUOXn5gWskcZkNGSyzTcxQ/oX1Aqgbz4gkojZCApm/iL5ciHEgMHEUpjeFn+iWOo7sHIaVn5YcMpyXTgJ9U/AvKWwAcZ5vmvOJ8HIO9QcirisSzyPI7zKgdv3D3h64CljAXI13EWyyD73BGOOkpbENJnP3m59mI6B9dbmVYYaH9csikoKwvoE+yMnJ9BvCOAXKZctn08cJEW5zpt53UKfoGc0nbUWwEUcoU8meyyI+VLWghGWKmc5S0F6hSKU70Kgk40Cex3HXuqPEMK1PFBYz6/lHiDDRArBT4pSLNAFEe+4AVYdwnmPnn9KiF9FmXL4fWo2siDvwRzn6hbNeCj8yp5AH1SulhXFVg5pYt87hn5sKsVgvp+OnulPPN1crBPeR8q9XC0AbEF36Z67kmsIx2mfIFcjwfxq4K8fQ73pbGNOmEzB1GxK/va0bGXe/pGIpO7HGdcp+SlwgeHjpqOU1nkbXafEohy1wdEyWhfMDJH3BSL/3CQwtiKgmqSmod/FLxod97+w6NoRVW1F2f2W9XGqsu7SLnsD9bm2CNACl5FKRcuz9+LHrTe79F9KOwkFBrbwasiRTsX25y2g/0AFFWrLO3vPkHyubEptJKo2OS/vF7UrTqFAAG2O2hxu6R0A6vvpBtpdH3Hb/IsIhrNAlVF5bHaUN4MWmVAcE17A9gGjzLq1ktGaPpQPv0viFvipIugVGHE/2nvxHM+63p5GSUvg0eFaTvqVwT6FIK7bCFrKe/+/RZlzFFleQmXjSKnD9uLDylTRUaJS9tC3ZLIC7vL89VCITG3JXlWxpQ3muUo6kHe2JbsBPcpdbZMv0cJ8eEfSVtzNlCSHmfkXsnfSH8i6o3HIEo9Vhdon+5dQD6df83y6U8lU9Rhul8X7j4xykhk6iul+OS6XUVQWtfC8vJAeZ6T3iB/cQOzyomk36JPsn4qy8evog9WE8UKUAG2G2UC81SY2wFFDypWRlwpJO7MlP8QiARwUCHnoUalkbXZNZAkR8LyglSUaWWB+A4FVhFhR387aSJuI/GjH3yMINYIVJFKWQDJNt9Sbjv/wUjHSagspUctKXchu/LuSOJDioG37EnYQx3OUfX+QZITjOYH7kfcJ2VJxYREBC3V5HKPPFFGt5MYZMj16dxSUkEqlc5oJ9z2o5Q6dP1WExg40Vb3giXEk0zYLMWYzyciq9hryS6rSrlvWEqhRCWlFrhnoc/CbyQK5YS9pHpeh/vFOYl8dUAKOd0+XL6ScnlYr6S5yzRxLc+VwIoZioPGNp0y61cZ3s683eS7LMyzDGwQHzcbj/nq5mUEbrpvpHgsDdyY9cdOxUrAin+kFMgUcuby5byjIKt/kqyFfJ4W8hbI7J8Az/Pku00Ref2qoejHCct4++GOj/niWKEDEM2D2++4D89xoYGgpJfMDpg/EKnunG4rB0mrtjL4CKCgQHy0zXr4v4xUmtVf/U+S6aAPZU06ERU7RJn3r+hnuR04r8Q8r9y/Sijah3HSAxHKFPJl26D6gpH4ZZp6XfdpTrX8Qw7/AbE0xIPI2QJaamG6ApDwvnSU86S4lNfbVqEVBiKDwcB/8CpR6Iq/TVOHjvim1TGAo2kyrddCU0/UaoOvLvLZEo5cIGlyKXicqiHaXOObRmE0GpAhO5SEfJIX4s5Q7j83eDTk1XlL8hZyCygRyJtYDQZS8+uZ2NHBnxHgLEBHCTurKPS4eyC1X0jleR3vNwDLqSWk/MmI2YSam8nsKbs7W9VYquOjhKQJqAn2gJzePQP4C+EJ/0/oDcW5jgM8AlJfueXADl6m/+oBkmscuBdQj2mhoZLmt5yi5qJ+Vw1uA7QFlyeXKbbRQzBeQOJYjkw6Ux+L8bXQMxBj1jJEnQKxb9WAttFPMF1oOyc2GC6twcHWu4xobmWkpKS0AiSm+JI5VJ0W2x/5oGW8RY4vJi3b8350UJ1lx6sa8ezmbVzW3kXeQTKRf1BZ9ciHkm+uvSHpakm8jDIf8Xu0hB7k7OY6nNcnepcGbmIV/Cgp2uurHsu84jKbWRXpfjep1FLojFpJHrYI4kihraiXY5GW8apGbGOSc46W8SIYSZGayqOTIHWDo7KSwshDPjAXsVUJEYExQkvtLtqPSDRfYvTPfuWQAynBRRfLehlrObAX9o/fKBDICyhadl6OopzbqBO8PK0CLyjkJZ86CVldPwFsr7i8TOcmf/gsI78Rkcg0ADtzm+J2ssGKwn/G3FH8rPkiUvncrKYAZGRalHF76n0h02WeHkWe3zeWD7/7h2JyHKyb9BY603b4Up4HT8s6VYK3fam9QBuUpfCpB1Jog3uU+sx1+qC6rxZPZ7LgR1mUl36EOgwdxbnX6JK2XY+u5/kxKrCfl/arKiC7ywfSdtIBEjlbphn5ZZoMUmMstUjYJPiSgX3ee1cFlDDDnCwJmWy+FF9iGfGSTBhY8TlgP+YKPj7zS/5pm/zsGFG+WO9QedHG9HHZMjmzfQrgw/0Xj1d1edm2IHBTW3HOicSL+gFVSBAv9Q+NUVlZJSHBFgB+IVfBk0qcmBfIT3VRJxxk6IV4O7pfVd5+KtxuRtRN8jfUZyiU+4OvAIQ6jHLxqwi3bW8j82mbqdqOHoO89II/ie2SFgStzeuOdYR767nyvJDLRRK4nYP1kEFhrjv2HZ7/ZAPSifNDp0X92M55BdI+lURqo9qObSTiF5qapyWXaaJSUuJBKA5YNWTZe7QzFuLDuCQrt/V/kfz+ieWfOGL+Cd5+BOX5KpJ08sCfeRlzBOX5KlG0a06WzCYWgX++U5HXhiCbWsKvGny9b0lZavNc2aIsB26/w+hBRMYIUwzSua4SCj6w9HxUEkyy/NKyeVrkqC+l/KpT+IUcOb8IRpZAdUJ3ibffDoIelF8hhIzsA+lT8PhhtYyyYKQ8QA69j4PRDcMaLb+Qz7zCnLS9+nClIZ+RbzFmlVeRYZVIgV76zJdlKGpkH/ArjeLDgHaJTAn4Q7pQJ9u7+KhutaFLT7HN035A21WoNPqD5kYO5qNfEKpXPRSyRDtTW5cuAx8wGyvrOi/X0TsBxUoIs0RB8wzU9pT7SFdpCTvPy5O4XquLsn3LLiEQrpfAcvI6zHj+qKKkBT6hVZLgZX6jSFO9IwXKxVgi+UzwyM5NZWFlhDul9F4UB7lPtcMhNgqCzwG8UEixzSSlv0cFSS0Jv0e5NsJ2jhDl4gU9KO/3KKMUmLwdynW6UrplQ9EPlrY3+daMvgnNHEHK/Uac7KTH5YoE5fzYP/YJHLRvVQjtK8bc+9P+yzQaoFPUVgjLaCblE98jOPDTzaLVAdvlMpQgz/nFLwgmgKm/LBGcDu5K2FsfxHiCeDherA4Us+zEixs/gzdXt0LQB+0KeXLiVtTxbf9o3yRTyLUq8gqpfSFT8JeR6iVbSgy3O0b97CfcE9vEfts8fKhtaYYSKPox03QbntK8nPkkX5R5fW4jCz1U9vz+LsEtgD7i3kOu20yAtpMKRM6TrrPzVD2g3SkNedw+fLsAPyp36UI7YvFfotDhqoMSEcvKAlHH/3vuQJJrCR3OI/iClqTjnFQUbDdINpDa7cR8UVyQghHx8E/Lb3Q47DBLFRe84OfbFUJIqgSCZx8xEyivYwqFucx5jfgfxGP5ZYmyjsDtRd4BCM0WtFihCiCltJAN/5iKt4CgRX6OgpYVHjZSEudVFGXkCfy3UJDOpoainF1QzqwmFvsEhS2W4efKPPEbLj1PLryFjZHbZ9fvACrlpQ2EBlyjhT5497vYXuZgaaZEQhQbVUJJxdZilUVkxM1SM1lxzlhlBC0rC5DmePinfgbNKKAAmD9w3E1U7K8tUM6oKhblWhxjS0rBiCumNhlZfUqM4XDGUpJmO+hQPntknAe+XBCDlgC/ME8Pk5dkEY9tThEqHz2FF+WH9WuI3OpAgynrei2WInWQdLMfNrjttTJIL+6G8M2JX/cUPmjKt7bOpayHI/J42I/HdUT+8Hl0nmyf+ghSscCLIIzy+jZB/SZ5WE/aylPUr7i8tRm6AFLJxPYinYnXwAZSwYWps34hma8OEMWbi6Ug1CEkNDJz9hlpNXhc6QjIMsGvJ/gjnKjrwiA/Q18BwG6Ma1af8PzXbVgH+MI/qdH729EHTzX6OWyDefZ4f/EdNgD3JKxDG2pAb3WAaky6Tz5UEyFs1qBLf+VAKt+XHi6Pfj9f9aKds7112EENotTG2EZKm1B/YR+ChFCIYjEcRb5vBj8oDbmaZFbz/THvl6vB8xMd28vg+hDJcKhbgueeYy7622SssYhjkvpj0nkJ7BffCUWqS9LX3Oe8HSqPSkFKPyI/KblCNvQhCgTV5FRs1mkyw57ZqA/rIYbQ28QmEBo6swn2nWDbELAICFrmG5Knh8hjG3nC2Wi0nR++KXSEM0hAIlTDyYcBNCBHkyn2YUAyw2jDvqQ+JftBh4Pi6jgkCqWlgJwRjIM2wXQiII8eGMCpOBA+SKuHVg5s1xj6owox/MDyG+n8J6CcGEvFpbzLELISVZYXoiRgm4PMtImNFs59I4E8VIcevCaNgoHIGLoYw+TAA6smRSVl0Rbn7DPSw+W5Q/A05NA7JNBeOkeB+7hA6kEK3HHCm6MZgB6AwQdcGzUaNmg2DOOStHLUiaefgDZg/xR6Zi0k9AqNFLhRD/AaSNuwm6aCtwZsogFfYzMorwYYfSj0SzVzUJfzwJ4CmHPp4fJoK7BwtBhTUfpUsGXfI2DootRGkBG2UQcLw6y6lpTCLoaEuwjoQFN3LAALjwaK7rUUOPcI2qkbOFbXK4npGMrDOOTBv8NHqfKjwZsDDWzEg1fgAc7b4fEAtNt9DW0egFQekIwhC1KorQYXKxtJlGVpQukgAq3F/wecmGN5VWm+tSRuQU2JG+WAEgw/tJiiuzg7CDoTSmbizG0HRe17g5qOtIrI27gfJUl94EWwsQxRzn3j+FVDyBI2UpzagnK5owbBfhBSOkuzJVGROQIU8gJF1s/pBLPdcb3U4zuDKCvXQpyWSR7epHAtytBe6JjdbqRIHoTZylJIScrzy2iJJhZZOARCL2Tm++Cqwv0cxVpe7lhGzi3Vw22CR0u2Mbfn4nZVKdrI9CA5lht8EYy4eZBQmdO/AmTxXxw4UVEOfuUQbXP4shCisQQ5g6xeXCNXQtmShYROqCQu0XMZsgBmz/uQlx8ALrPxqJh7uiNHWkWwk7GN3tkIzvQipSP2NOpF3Twt9oeczI8rKi8mdTbCtGVcxwywNgaYYltA2xNoGw4aSgASItJ3MA97IrLyqqJYMiVwptg3eKbYP4qlVfBR2cGkoFIf+hFJ6JA1OYE76tDCl2SFtgDySExSFrEackm3upwJ29ANqjED5hEizxllnBfXYmUgu0i24FK7bSQNFDzxWRdy81NQOFEmYCtYB7RHRf3B24H3mLr8hHi5TCkfvcr7EnJx3oHkIQXpT4Au04pkIHRcoKL2gkY5kk9xObGNTlJO1MhinbSRKFsZSaRK3ol8Bx7QeQ5uO6JO1YB/WRuRJuXkbV6sU/AWCR0JNpWyyHBGCOy/NhhlqFjkl4OXBQiaogy2QtDAq66BtgK6hEHVpLxSlTtPZZlMi/BLWdEhl3/n4WImxD1FkwKTIq97jRLUwfBfgL3our86GuH2VNrVftusAvCvSO+FYp+QV84lIeW974Ss2u2dg9QXHCDvMk4qJ1LltOUOmwNKnlKX1F+uz+oA/wCmDh9kgGg7wAGTd9wpGBHAJpLYYKU+wmO5rVD65X1y9SD/ltKCrzzkBKgh9x0ElUJyXqnnyFM/gcTTEbyO6z4rqyC8nX6uCZed519J+qdMQSkYiQIgO0AhOA+mUSe2/cClYiuKrL3FTFX8VKY8Ik/kXYHcTruDEGL4B4blu7vTEcAokbZR18tLB7WUxwEaaWHAMtg8PVwe2ybtKJCAGVE2qkc8lMEWiOC513HZ8pQo5GR6n+89PB5kUrCBAKTOICStjmi1JAUk6ZM7BK6E1AVeKwcSvwDrutaqBTfYMo92MpCKPqJBI6sXTnEx2Aqo76A+j/TOAO3awTwpyoK0Tf0VJQDsqEhhX3Pb6iFMqwdJinPsl7PVk9FqnHfJgDzazzwDePajpJJCbF9ZTn0E4AzGj3S/frkKPIRhBIQsoLLEJ6CEmNS4TnnO0V+oN+qRKPrRMiR9p3zw9terEMJeeL6THwmw1/gN3yCwghSMiEmulJF24BJSWkryL0j5AqxDlIZaBfiAkAk+18bY9rIimOAyKZTm2yiiOjLiNkqgBf73TzKhOTzoZ1J3I307+3y7PiFt6Me3mTjvm0I6ZhU/RdtgH1p+BuhYFZjER3mGIihjuezF6/LyTKOwu6yf4Ji5XVYFbGfkvb0pXQaWFeXUUTqfxXn18rLflIP0UQblpLwaV2MbmkBSgvqgjTCDvi6oFnWW8uTx7njAl+XDk1QHcY7dZtx3kq9VQgLB+gztnzbQR5jngCtZ50miQmEKRlis4xyBD+VYRPCVUnuuzeK800fQo8BPEAxXgiefIl0nvQPahwcitO375OepSlAbKRfsn/6SsjAYLWQogKoZKRiZI1bSAVPNYgdmgodUDioQ2zn/sHhsH9JQyhxYD4kI2ykIcdKOnl1CPPW6h4ApoAgYfC7xj3As8vxpHd5czjvPEy9LCTeh1BamB8pxiDy2Dam7XjgSoNBfkZKYj3Sx3Hly1cu+ozI8Njfx5trv+byT8b9TXofE7fzGRB4vSx+4Ld8mXtH+nBfEMvKQCFEvGKm8kN15UfpOoFwD95ebpbEHKbbT4FPkc16V4O2qMU9b0TbPd1mn7CPc3q8N9x+JiuKkhzn7jHSFeCLkCfKKNCfWW+SlugWCmKce6U+WgWWpDUn/1QTkkI4SpIOkB/GYn6ciGGHEqvgekUzAH+9zng8oBMsirTA4K0mzV8KjzSST4EphBKuUcmZUQw8SqJW6L8v5DY28uTGBS/pcxk+YKzsAWsrkyULb+LhkXc+ZVxCpbY0AAjfPI2U+kNdZguJYFZaV7WxCrqYev0x9gXaxQJzdadJHMIjV45hhTxmiQy7yK4LoA9EftE05hLKfk+83K2I7dyaugFSP+cSlOt4BcDk5/Ca54SiYzpMH86VeAenSoRU2bkuHgVSnyFeFx0uRsAe9ewpIZX5fFTGGRGObIuWKojQTEQgUw6xWVKg7+lNk9J4S9Lll/XH1sFwO+UDqTYJHX0pIOvRxab++c+T7+YpI0nFxHNbL0wrwwo+En+B24hW9ZaHTFJdpcuSVPEChc6bS3EmT5wesKHjys7wbQ8bP89pOChOvZIsKxaAzAX6jYw5fsvRlS+fFTVyRX+Txe3QNteKI80xoeT/yaTvn3QvLjl0lNHBK+FKqAOJK8HHOE1BF2SCeQmdEhsBOgXSO52ysSoi2HdS+Rb62IVf0k0JW2DQ/xbFIuSc5mghJSbxRk8FIQSxMFeR3InoBdHmP+kNa3CNQgH2F+/h+8+lh8xzFJb7i/NPnOeT/yEOqHfGXEzd9D9ffKviFB0FDqV+GOBhJAcsI5QIqhL8sUep5vt8RKMdu8+erGjw0zWUS31OS23dso0zcknxlBIW6xpU6iSoD3DEGnbzTFJ2nAI00Tw+PV5w0puLnbY7t+XJ3Etgf2qRfoVLmFMV6YOTGUeTTcag38tQh7wHVA0KvvN+guZAeJo/QTZnMQ5o6daK2Mw/dFNvOUx51D0LImh//QdvybeNhwGiiuURjWgO/gTYTtIR4pNkhy9AIRPE1FCOZYHzBrHA2glPGrEC9irWhH9kl9ZCnh8fzcxL9OuqRH4hz59tex3nzg6fP9Pj2Wb7wLW50fieAvpI9nZ9lRCuRCbCYvkX+JQEz5fIRX9djsWoSdSqFcvYeg6vbA9obs3RuSxvoS/QR0AAHplCP1FCr2wTgEyazekP8Kvq/t8tTHhIS2sa5ZL5FHra5okT/4gMtdAHedIJ+M+YKU2k/0qlsxVckS4yhp7AP73NaKRF4HqoHyQL5PaBCDtuUWfeQQEa/54515kk60ut7INyUb4NLHUNLt4B3HP8CVxi2cxRKydPD5s3DZWEK5cAwCudLuUF8sywdTB2jbdP7iReDqFAqrgmtKgpGXS3BkYdtpv5ERWD/ct2qwTsBZIE+CAZp1FWjUde2683LaWjRQQ6C7GTJ91QHkAVN5FtWGYDU+BrvBEjt4JNUU7pZ8iE/9vMOxcFpauPJyEbAhDK30KOoM8ou0A7z9PB56s84L+WbHJkmpLpx/vgmZqJwIgn0DQzCJgrE0mANfbwTMKb8DMzhQb1/wD+wv7B7gOhYOTCH31QAiD355tJi8oPjRP+JPjJ3HqoAtGnGdvHtn/SdOve0C7bb2x5v1aTNtOBAm1BKUgN8BNhIuXrEYGRIf9JqOxPHWt4fVwscB1qUFXm+vbgV25CvNmIwgSAFCqnXPWAbD/s27vekS/lX6gj7Gd/QCzA/h3QuIq00Upt5gmsxXoA/HvQVX+SyNLhkFIYCUjCyn+hICXYa7JyD16kElKkek8X0MHlscwa1c8m2KoNaNBuz0XBow/5Q9kDyw3qdFjsPnMh0DIwYtFHhMKyMNyNvDF5R5uXzqecnSEcwxDFSvl5Z+Sw9TN4Q+SHa2IPh5OiOhkiJkjeAQQ1hE0PoyYF959J0PB4XvFH6jgdty7eDF+3jq+35pmacSsg/sz54ffCYDpAOpzXIgDqAzAg60qAMqsHjNuCE6/A4minC2eBEqywZ0kJ6yDxRSpVQjgVQSMgwwnmf8ucfwNPVCAbrBAdhpE3I3GpRduoBQKWjD2gDjmKE/jAGJtIPKPQMaqDSxvq6+1rainyAI7bDKfugk3gyxAoha2sxWPK+EfE9H2D9wV7PJsOR5NbrvkGoaVP0kQnshL9j1EXwQt9QRf/3dnlDnLshHIeA/Ah6YVnkh9DbmHXQj3CWEYi1rLW2Jrht0F8gmKfzwfEE6Zb6JlJeOs/A+ovnqgpQe6GbbtemvS4cJ38vAGMoHEQTqLPzgBh40I3kVAYj6kg4EBQpwxOQL3iLSB2pYijbXiLn5/V4QxbBmQpV1MKMFv4DKZ2q+xUuQ09gDPU6jKjRAdag1M4clvEOQgPHqDc7+JKOTauKdscmnTWbtNdsjHxghDKmKgPysvth6fdUBLME34ZswDhk70Be5AnWsSYC0wYNBF0J3UA/doW+w05W07QY9jIdoYvAwWT2VhVEP3hgFEEL/QNAHgdfYAanqEcT0Ud0uUZAsH7EwdWARrNuTQSgDQyuXDHUmYc9UEXMcyIzhEPWwAG9aFWWZUmdohlsJoDNKkNmkBC3hQjI8x4rv9+KK8f+Wz1rzZp1EHxoqMBuQ/D62HkXetiBP+XvGU0q7hfeFuAfBOQnc3z4DPgQjjDUhesO5zulsgF8GgkckP391j44E247APgO8KoOtJd2z7OvC9wwFvJ0mQZ9YkLfwWLaVKIUjJBDIX1nHQQdLpbrmQ9emS+/rJKQZ8gQ/JyXZIgTzM1QELeDFLDWmzZBQDKptxPyfA4Y41J+iXGjjc7Ytn6rbb0Kgu0aoCP10ZGElB+wTNusU5bl++Vp5AO9dsmvCiQHgsN+dj66WXmPZUiHwKiJcw4Y0eCVYVgOghFeD5UdscOFIVW5fxT2n6EoT21P24yvXCTKiSBrPLTZmMutPsjCvUhu3XNGvAM+lJq60Y+AYb6rJXjkcvCSru4LgEPxyxuLgF4XgcNWDkX7sJHarqfNklzMO2Ar5I94qYJlMI8J9gGhd9gUAdu43bJRp2XjjXUbIN/HrK/oZyuOwsdRJviHrmRryY+OwJ9yAhP+YjS28RB9CXkGI/VaHTaDgBbbdeis1ClsSSh5hf3k56hKkK2gzXXIw2t0mtVTTgIVCqBI1lES+41I1z0JVkxOiQ7IR2cYV3HAABVCsGwxPTyeC4qU0ibe4s16BMvkPHmSKT8wGU9tMDCjD+HuWkaa1W2E/C7q3cVhbyN/B7WZer7kMS/guI7Iz/NuI+U+t/AljshXhYc2ooPcgSFJvgKQO6Uhr+uB8mDflI9UQJ3l31EN3k3kC6DdN9DmmwVcPp63bYCzul0YxwDplNclEKAiq2CEl+fokDkwEd6dDrbTKvG8PwfQcAF56EeywLuUy/GQFR+cfq0Eyd/Ii3CIJo7+h1Jy9Ws0GsBnIDCDrug/qAZi3gbACFClGkzAd/VmZdhB5RVHaq/bD+QF/Gk0vwmcAybrTcYzG/H6JqtDtHGDl2jq1kO3GXTatg3fcq9+uSo8+olbkO8mAStQCp7AOpBzG/xhTY8DgAN9QEcMRPRWczHAx/nXpbrMPgqw2iLAryRS+xSMQHbd3D5i4AXfoX4C+aAj9RWkOcGmoLUrX7e9i5/HiHvV1ptQ2YwdDLvNGjg+nS4XkOi4xjA2jtRAra2bkpyYshWRkg6Px46izg3eFFJP0FumiizYWRyNSV3y8T7oSWfTfvXFr9nf+bl/aT/3r75ovAJMB9uADjqoc6besu9//jk71azpZiUqOf9efp3T/rYs8rA39EaHBo3qhibS/nqHyfPHkKEA/Pk1ci4cohx6g2mpFhemVY+LAom37HhcgqSC6lqOLL9jsd7h8dgtEkFWyu2/p0MG5iuwmxrfnTDFwDPp24mtuv3RP/qj9rHv/pC113hRnPcZ9X0FgTbG0Zn7SiX4p+M8aFu+TTx5t8TDnzYL4rnHf4A/cCgOUs5J+COPbfQF3dxba9mV85fsy7/6afvqb3/J2uM2+kZTdnGUiapiH+alujtwsC/dum2/+dY1exP9YA9l9I6cAz9+fNN+8vd/t/21n/4pe/qRk9BdFzv2UQLfqkgFdkLnJD+FTeo66btSFLZBg6Bt6E5v+v+sz89a6OIdlG7af/bf/T37337xs/a1y7cNEqu4iSDk1Nq6PXX8pD1/6rSdgJU0sL+eU5Pz9GOXKWk1eGw+g3KeP8XyXAeir9P5xOnlRGW6Z9/xgcfth3/0++wDL3wAqkNFTF402edhSFpdnehY8iH6nviuoOChTnrSrzxAVSi1cQJ/ORpCdk5ewIE+mhhna+0N2x3O7PrdgT30zIds69kPmx07pT33ByMNBhxUFA9Jc6HjQTACj8X7K+qYEcjJwikpGKlaB0K71U8ItJlByJjBiB72RrPB1/XNCZ+QaNpoUrNxe9M+9aWv2d/95//a/um/frEIRuikEZvZOvRwst20Dk48wxcNsFKxp37kknM/YtNIsV/VSINRkjLkyWUkRZlv31+S+QGvShQSgpBlM2U+yLBEs1wVgYFO8QT6zc/+qT9iv/+Tn7CzZ47LMc+GPQkYlysmAG9g9KC14kQ52dkzKoIR+jpKzs5AArOFXhCz+Iuvnrff/qVP2Yu/9UUMNqdsDWUMOo8yUVPsG53NDbs7GtvXbl63z16+aq8NPBhh+Tpi1KdPbtq//8OfsD//Ez9uT507Dn+TgpEa7EVjCP/BsqhkngP50nSAKlKa3OnV74CmU3C0ft+DByMjBCP/1d/9x/ZPfum37CuXb9ou9+BuQBuZ442GnUZ03058ec6qyvuAxObz1CkIx4YPvU7q/tjkKPqx50/YT/2RT9onP/l9trm1qfLJYGAzLcPDEhiAtHAUXbrJRwiAxxGlbX0X7Ye2UxRWhFIb25zAMsCCLDjvsvfWOvJt2+2N7frt3j2CkTdTMFIbKBjh5T4GIlOf7mHmx0sdZTAyK1ZGKqYMtJvOlYMfW8bXto/yYAQJg5EmghH8R7DSsR5k+eXPf8n+53/xr+3nf+XrNqDsaf8W/q/xXg/MjHmEkDjyTIMWecvqMU+iKQUdVO+weDnFdpTntFj3IIp97/e9h8kjRT5cAbe59kGkrm8Pr5n9xT/94/bjmOU89tApzPpgW8Mu6tI50254lz0fW2MAzyNUiyRr1qy8r5A4QGigoCxk0knCmejWOiimPm0i+JqgH9XtrTcu2ud/7bP29Re/Zs1RU6uNRz0YceKqZt3uDEf2yvaOfeHmjl2CbhiMUE0bMJgnT2zYj3//d9tf/umftKcePgW9MRhBxMJVNhrSvmCEPGR0gipIWTCi1REaQwQj07QyUtu0v/Xf/X3757/0m/a1q7dsF7N8XalBFd7ngKHItgBKziNwGKa4fuQyJa0Kj8R8gDIxDaKsXCn7geeP25/5Yz9sP/r7f9DWT5xAJdgQnzRh8IEdahywm5jA8CkZLjfnpNn1Aqmf0Xbyb6sCUSsA37c0Q6zAiQ5lo5C87xJj7W5/Yrf2xvbEuz5kracQjGzOBSMv2c6bX7QZgpE1YzAyVjAyRq8pgxG+bcGfPvEvw0Be0WCEAYfHHojNcL7G2OClGlKsjDS5ZDKDcpptG9Zb9ltff8X+91/9rP3Gl95AB2rYrdvbdufOjg26QwwsLetPh94fvxXE9iGJwzFl6yIlHSZvWRrlQcF/EOK+AVJ8X6Skw+aRIh91CAYidCbsBcQZTOv+0p/+w/bj/+732eMIRlrodJNRz1dQ4Hx5GWs8QdDOJyyif+CAnE2LOOCIIg2Kul7PL2nldWgxJAYLi/uS/HuY+r6ksl74LLaDeV/pYT/hJbT4Pq+hhQ86S2zx3RC1RhOyYKZDv4nuz0cRO+g3d67dtJe+8GW78Mob1p6uGV8W5+tp30IqRagQ6Zda7O5oZBd29+zrd3ftOgaRnfFIj3G2JiM712nZj3z0w/ZjP/BxO4fAxC/T8DFHLsXzEJw5NqBT1xf/y1yqShoPaXuYiCoYgSXBDj0Y4b1THdjMuv3zf/Up+7ef+6q9dO223UJQfm17T4/Pc1DiiggDEp5SauKoBSMkqSkjnmrK/D2PrtlP/4FP2A/DHlp8ZJN7wFaiV/M+JD59pxXV4sgpjf6OXYrvlN3k31wVYgsBOgrFCtABJmYMM3ilZcLJP+KK3Vnbnv/QJ2z9+RcQoWbByPitl+3Om19BJ9q1DgyNAQeXmicwtJmCEV9yxqFQlqI2dqZwthUjnjsGHFxK1D0jCSQ5X5Q1UCDlcJrS7tiF67fsq6+ft8s37yBym9oXv/hV++KLL9nlSzfUadh5fNn6W0DpfJGqpz0niqr7INDO1NQiJUW7l5UtEsvuVV41omxxqmNlxENys9NrZn/5Z3/S/vCP/357/JGz1tBNjENrIfigI+GsZjJD0K4Rngr0MGZGO6MSYHy0S6NDD+XSoWsgxzfFTJmzI84uOPvkCxsQICug0WAw1qAgYmN1bOyvKAMpnJz253fxJMLm9dgt6yOwrjVxPF6f5t374OvlS5kb1eVZHIfcMfaNR5l5M5ru5Eewtd5CgL69bVfeOG87GHCOHzunR9zVhvuR/MYDEvVTRYJee/CFN7p7dnn7rm0PRnbt6jW7ffWGjW7fsRPQ0weffdoeOrZuaw3e3IxJXpopcmKHA8h/ImzV4ThX4qmqIukU4B+HE9pfed8YzY/2xWCkbaNayy7d6dorV2/Za7fu2kUGahcvKWijD2V9BiThT32oOhrEUyc9LRD5vCjzYcQfP/7R99r3fPA91kLf4c2qHKDpM6iXyZhP2MCPtJoYvMMQ5o/IreheNKFveeD/LSFZiZwmgyq2EVMZm07ggxCU8HUJesLo2Cn74A/+e3buw99tdjILRnbffMnuXj9v505uWROdh5dp/IYaCKvrPaiJSExOlF+g0L7ClJ9Dtn3unKFQ5cGEfPW6DQcDG4/G8Lstu3jpiv2Tf/LP7Bd+/hftqy+dV8cRsEt+6G+G9K04yL5mVYiiXZ0WjAinnC9pQx8xqAdEO3At8B0LXFUkPZhefqfa+90ilzjOiYep7jyJ4BPrGJf/g7/6Z+1P/Oyfsmff8x6z27yvHsRLGew3I1hKC3JOevDR2LsOL1TrYABHHs6HP7muGwAbqMcUu/CNr5xZ2hSRDi8fcul2PEA/Gxp8PDo2+GMEEQw6tEw+wP7YVx4JreIq3xQN442lDewAp1Yb9ZHHcdaxPRnaaNCDQ4DjW9+05skTZn2U8+VUvOyK4CJmMZK4jpOtYYPHRNLsYODAeUe9ZhvfwWFksGu9W9est3PbTj/1lNXW4FDq2EeBUTrPkebBhxSZbd+P0iEqRwz22Dbqbgwdjmf29V/5tH3plz5ld19/007DR7ZQxnCjhlmi7r5DZ2LQwR9lJNEkRghieRhfza3e8MK2CT76aYuX9rhRL5aKGSg3EYzUbYBgl68AuAPH8OqNa/a5b3zDrkBe3swqqbGLXh6ILF0Hj3QUaPG8hVw4xXYM+C50pY89csre8/gjdvr4Sb1kcwIdsVyL9lCOqzftiYSelhkFIItfUFHyFgMIqBhU6SkrPo5KJiZB3WbDttstmzz6iP3gH/9z9tj3fb/ZmTPc1YORnTe/Ybevv2lnTp2w9a1ND0YIKkbXe9zBxBfxuWjPVZlw9vITqObmbWYeFsCk0YRhjGyKgYRLStevX7ff+Mxn7Itf/JJdfuuq9eFourCIMVeDZD5Hl6gyRux8OQ1vqupj0Br0B3bixHEvpQ5YDvBlT7y3RlrFAJNr14+kowHufBdrVIX8nPrKAhfgdW8UU7hMDiJuRmw7yiH/H/xDf8g++e/8fnvksSdstL2tvfnEAB/t1SDVYZ+Bs0H0xpgeDGvz5i3oaDLlmxgRCNRHeskep8M1ziwnbZsOMXNgnAEbbLTQHsyoZ7zPgM+bN7bw7ZxuMKDBcZtpfspTgqbpt3R4MoZw87xfhdeN6O45UKI5MwTZEwQZfNvsHo7HV1ZvgNeGc+BsF9G4B1KUhsFIjYEFUgY4CEZGaDtfd99q8yZuyDDYsb3bV6y7e9seffJJxFsnsd9CMFKcb9dgQUchGNHKF8ATjKCOd72/+W9/zV5GMLLz6gUEIw1rcoWZ56tGW+Kjr+gz2KWFwZkaGOPfECrmVgN6q2Yw4h+/KuD9uD71Z6YYRDPl/Jegf0QIrffx7KIfcMXoG5cv2tVe1waUEzOaCeytr8ehuSe1UjWJvzmSFGHX9I8pZeC2ORrZ+9bX7P2nT9mTp07b1sam3jNCrVGDVCv9Lf0ILUBHoXkx9Wy5kUgLAwu8KhDbSvAyLz8tTGTbIwqIPwQhXdjA7Q780KMP2ff9iZ+2c59YCEa6l1+32zcu2snjW/uDEd7ARqNJCqbx+CtdV8GM8hay9UEuieSjA4eC9GY4Om6kt27dssuXLtmdO3dsgAi2z3eEdzblzN8ZwQh0gfPPdGd7x7pwJmdOn7F2p40ABIMm9Ma30jIYoQrVCYGkVT+G/kcubAWlrFAx0o3abCGEYVv5w1QNjC66LKmSJBkGjJu3btu73v1ee89732snT55WAOvhOurxpgrWXIOOYFcTzoCxWw0DU4svSuPghGBkxtkynHO93bbJ3h76E4OHDnTegg2yPpw9nDYf89PLxbjKoc5N24MN1lo2RsDBb9MTDQqaEEjzMgAcHwdJhgweTGCfJtqD75/geH18wQB11tc2rI6Z2WyM/bD/GoMXBlK8u583jHF/rrIwAML+OKrx93dabQyaGHImg13buXXV9nZu2xNZMMLLUfQVv2Oi3lK2SlRIxpOOBurlX1wyhOqu/PKn7ZVf/DXbRTByCuewMcH5xlma4BzlwUg7C0YGTVoODofBudLBCMyIlwbZPgYjJAbAbDF1whJa3RDgO0X6sME7CHCv7ty1HdgY3zEybSMYgZ2NoK812HALtvJAl/VWhDQsgtz8oTVmgDbs4AxO/EPr63YKaPGFieh7nOwppoVd8L0jfr9IaQOR6nBB8R2ymuoR20rkwUgnC0Z2MdbeWWvZ6PGH7Qf/9M/Y1kc/bnYqu0zTv3JewcjxrQ1b34ST4kCUghHd5YuuxOvFJA7Gik++FQ7nUMjbrS6UjAVWIR5/I4LPRt+6eROTUcweO5jRrm9gwojBAzNbXkf3+2SOLlEv3ongSDFoMSDb29u1s2fP2Toi+hYGUJaP0Zn0hj3thBRqCc06lXryZd3qEuetDDsoAdvK4aGBgVkBRrhZ8Dmbu3T5LdvcOmZnz5y1Y8eO+Y2quu8CA5KCEdTGwI9hW/bCpUo+icZv0Q/TpYCFfYrfWYPDphYZfGhFg/YFdel+LTpr6LbOe0eme2rLbLYGbGGA81dMcyUHIQa+p4s2czGcAyOBo/IJh/qGzRrrGPgaCGAwEDCAxIDQaoMHG5/0u9acDWyjxfAFR+TSjK7HoR0tBiNoF1L+Jg/fwNrE4MkhZ4xgZPvWNevu3EEw8hSCEb9M804JRviT+TiZbi8M3rB5/Zc/o2CEKyMPFIzgFA04SGNDwQgyVZOZ8jIYmWDULIIRBrjI8bJhBBNewh/D04UpXdLugduHzQ+Qn8BXjCErV4r4GyZbCHLbkFeXKI4MuS6kMfkLB/1IqzayNfSdji7nssoMQQnzqANfymCk1eTdFTKrpTQft4UfqRa5vbB/0JbhZyCfVkbw58FIw4ORxx62H/7Zn7X1j3zsoGBkHQPOAcEInKh0BAP0YEQbpf5XhtBmNZsCSAgZTKRjDA7Xrl7V9vEzZ+z46dN6emCEaYw/PUThjzJRFzR03lA1sDu3b9nuLoKRc+dsY/OY33wFPekV6HrFMToTdwtiYLJIUrUbZ9UMRtLivNKJuhfgygiDEToRbtLNkkfHUrO3Ll9WELZ17LgdO37cmh3oAIO07rlQHWTRR8aNYzZtthFM8Jh8LJwrLdQAynjlZW9k3b2+nXvoLF8vgH2G6FqYV/qd19AvdDzlD0u1oGbsN72L9rFfcgUFx7Y1HJcrH2wngxEGK3uoMwSPwQhaPW2r3qS+ifas26jGJ8eaaEnNuv2+Li3xHpiNOoIM3mDJp4KmXClBIEbhERzJ3rm8TtnGDEbAg6yjwR6CkespGHnG7xnh6g49JkUG5Zbh536ed09CtWpZilO0fszzjXNLNTXQFUjX/60HI9uvnreTKGmMx8ZXChBzwQh/UAzCMRjhigFOlYIRPiHB41WJKC8x4c3QGkXzYIQgh2cqnS30f/4gJn8IjytxNdjOFIMsQ2ZoA3bEvmW2BvW1YeO0sKNC8Sg//SP9gNL04f1b6k6sArmZMBiJ18Pzh/LW+ON52pFHWULYqSzyc1E1YvsI2jRX+mjzcZnGGIzAf9xZa2tlhMHIxoHByOYagpE1/RRyvPa5HsEIt/RN6DBpRsyZ2kqSzmioDYqD06Ad8fITLz9cvHhRK0Enz5y2U2fPKpLnkvVMP0NZNXfxrSUP0jgzRrQ+6tvdWwhG9nYxaD5k7fVN2QM7mYyBlx5kFBkdGIykgU3dsFqkm/M4xqppHnikuERIbPSJqV145RVdnjpx6qQdA2aI9K3XQwW4W4g3xb/xAA537WHMCus2mCAQqfWts4ZZD7xRd29iN6517a1Ld+zWzW375A/9Pjt+rIPgY8cm09tK+dPa/JXLuiHwQ0DCn95utgbYnz0SNjhdR2MQjMz8pla+GdlqiHBmaMd0G54eQx/axUWYIb5v3MDQuP4wBohNu3ZnbBfeum7nr7xpTzzxsL3v+cft4dNrNtq7a4PbVwzhiq11MKNpQgeckFBwnHP2B76gqcEncTAQjwdd27550/Z2djwYWT+BU9xBda7oUHG/Qwq9V4xCsgl1g/Mtq05quqbLNJ+y7VcQjPC+Cl72RaS5PxhBfQjnwYg7bgUjBA9eISrkRSCC5olkc55V6gFJ9HsEHbAT/ootnWqLl3YRlDOYHU34SnAGIOAzhU3FXkeB8mAkUn5oHmMoacaXmsF38NYA6oCXaTj2TLjyDt7GxoZ8zD6fCso5nke9qhkLKNpJm2ZwXayMoEArIykYGUcw8gKCkfxpmgODESjFgxGKXjqZMhhZRXLF5MSbV/XoMo0D21cQjPAxq+OnTtip02dgSdgBgwxdiq7BH2FSMKJHStFJMIXnysjeXtceYjCCyJ03+HJJEVrERBjBCHWTSLnFYISHkxcjn/qrmtX4zHXCRQb3qnKunP2xxT77Q5vpWNAnLrz2Ogbrth0/d9rWjx8HG0Fbb9eD2TZfoodZIIKRWeMMAhEMRBh96ggOGtjn2q1de+W1q/b6G7ftxo0hBrSmPfvMU/bsUw/bk49t2umT0Pv4ltVG2xjDGHbgeBjPJr2uNdcQHIDnOmQQSHDwZzDC9vGcoTIDEt74imCCl2O4GjJBW3aHm/bWTbNXL+wAb9lbCDzOnD1m73nucXvfs4/YE2c3rDXZs2n/Nvr/LsKgsfH0atUHx1EwghmcByNTG/f7tn0LwcjubloZOQY98rIO+knyE5GSwlE/KPEcVM1SSJSI4OSMpi6vQKeBDnHvYASxu4IROOc8GIE6uXvVgxGuiniwTsqCkThPhV/0YISDLIkrqU1MWvR7LLQhyM/38TTpb9NKy1Eg6SBsHDpRGEKfgU2e3x4DMQzEdV6KSTrjPSJcEeHKCHnr6+u+4pz1m6Cc43noLk5ChSjayZVmWkmxMoK/MhiBd+Flmj+bVkZSMNL4v4LGnBV1t20NzrTZorJwSE6rcGjpl8BBqSSW0ey8zopClIwFA4x+WwAOlw6T233+9DdMqIPBd20dM1BGq1RCGJtUfjThwQiAkzzDQDTArH88GtnW1hYGW8zEoStaFs+/7nOgXSSSqUBHSjP4/7Je/n2VAJxirQ6kpx6KtrMoIWxnBwPwOvrJ+sY6HAvk5w2jk6HbEIN0BGu8VKGJIfIN3m9Rb9r13ZF97Y1b9qXXb9urV0d2fbBp3eZpu3CjZ3eGUCNmj821DmaSDWtidGuyLXBgfPSWC9x8N4W3i7qHzc54ZZ5pcl5qI9rD+1Vgrnzz5QjBzLi9ZbcHTXv9ate+fv6OvXqpi7bMbA+73e0O7PbOnvV6QwSa61ompgic9U+nCDw0vlAQ/IEHT6nzy+/ide5hr2/DwdiOnziF/tMBm0bDQnoe11eAbS/z90fUQ6ZyULuoE+iC8aF+awTt3Xvjot16400b3trWT0jQlhjIUS2qi73poBl4gOGXB2E3cX1dH+RZVhWoP0c+fbDhIB8p76OjSISfe4D2iu0m5ON0lo94MhBD7IVtBP+w2zE+E32mC2meXwUeAB+S88aUT5jaiIDMnNjLZ5BgM7IJ6pWgXlAuv0rFAbo/cUnegR328aoDtlfyoZl8mwGYMIaG7lkbcNX2+JY985EPW+uRxwyDLCuUwUgfwUinDUfIyE2dyztYcZMiO1YiKWtlKeRgimAEDr/OAExL0TCkwcB63V0psYNApNPh+x/giKEHGc28zo8c6EQ4ONOD8PJAf2/PRsORHTt+zBrtjvSkDsOqGGyVZvuzW4kXAFOfKK8cXF4GIhrcYRNiuXkgRdshrw+kU9u9ecPW0Jk6CBwUgGDQ1nHQyfhSHy4864VhvDmvtWbjGgKR7b595fVr9uXX79jFO3W7MztpveY5261t2c6kZXcHE9vmI9TQ91qnhWCnbk0GHKO+1SYDPnkuXfp/NoyzTvZP2KW2SWx5AxIA9bZNmhs2qK0jEGnYK1e69jUEIq+9hUBkr27DxqYCpN5wanv9oe11ezYYIfjBuW0j4OxgNstZP2/mljOhnPQHmLXxySBvwhTByMCGw4kHIwimtFPoSi3KgH9lnhaRba8QSEwxz/cN9gX6Swy2HoxcsOHtu7bOm5dRNoUhaZDGHgpcgLhpk2ePqyM6UuKRmK0KCsJG9IkgnWrIRhZlUEqbREUOsuVAS3+BPsZU+8/QLzBgQyFczueKC/U0n64SL4fzeJODw/kUu46OzMf29aDEmE/A+aUaaghVkmH5aspSpOM43K7myisAElPKTHnoOxmIiuAjh5C3j6BkimDk2Q8tCUZGu3cw6GzDCfERRK6MQIW0NBw2Ag8akqfl/9UkdgxPObjwGh3fSEk5pzCQ8aBnPQzAJF6WUDDCpTOUuwZcL0cXcCsMRtCp+GbRXrerYGSTT44wGIEx6aeviRiY5mjRNrLtZFPVAhfcae8Y4GNwDy8LclVwG2Wwg91bN9BHanrMuc6XmrEaH9XD4D7lzaHYbzRDMNFGIIKg4Pr2yF66cMs+/9JVe+PWzHqNszZZf9QGzZN2Z1izzgleQhnbzTt3bHv7rgb/jU5Tl2kaaBN/gsGnFslhSYdBsEm1jY1EKYKJ4QTnp71lw+YJu9Xv2EsXd+xLr96y1672sd2wQWPDxo2O9RnPIJ0iWOoiILlx8yYCi6GWivmUEIMirorR6huQkwOplpPZCshpkyl8Rt/6/ZGdOHMOpsCIKbURxLQA/hUOV9uRW13SoEuC/vV4L9K9Ny6VwQjOHFdGNDh5TdXBZpopQoVQA4MRnlFpJDu1kWWa5yP9dvGKM4WNPE9EHQ3CyBUfColzrHls7EQbjVrg6YWAnNhwQsMBeS5dNR6AQJzv39Jj+UTi0dYZlHGlQL9XhY9uWoXNNLQPOElH1CXtSSmzKaUOlc/qSY8pT8rTw+bpTFMoygZmGYzAP2FiE8HI0x/+sLX3BSM7DEbuIBiBE6SB4HDqODw8jUiGlHRBljqVMhVEauQc2P4yL7mUctYHg+G1XUWqcLwwkO7uDqpOrM2VEUA3FUGrfk9BHO8Ig3JSlzAiDlAjdJ6NzU3vTKmIauAsWYNhIrFhgKnYgX/Um7vkioK/o1CsNiDRnCVB8pGPdDK23Ts3rN1AMLLesToGbC2fwrtyUB/z7ZMIRHaHU9s6/YhdutW1F7/xln35tdt2da+NTviw7dUQhIxadhcm18OA1UvBcKPBwX9gV69ctSECwGMba3bq1HH005aN+zseMON88HYevj9kVl/jCdAsi+8i4b0pNQTP49am9etb9tbdur34yo596vNv2WtXRvjeEzZbP24D7HP17l0EIJAJx6jz7aqTmd2+s217+F6K0+ms2QaCkg4CqgF4fMSd53ra60NVE6ttbKod3bu7trvbs1OPP5H05oONb+RgU1NeBkF9HgD2tZTXaky2XQV48Ocywa/KZ5DoS7rnL9ntN960EYKRNQ5EaLtexw+lUq8EBx++4AyjFYLXuk0wW5xp4GI5h6pUsWJoos28j4p9gm1nSjHU31GFeTZ9xtUO6IeXKhiI6fI37zlCVM9tv1mcPoJ9i8fEkVYcmrAsIPh8cobmUmcAD73RfmQDGGeZkljuOZLr+yDI3xDSN9L71D8M0Obj0iMnMXkwwss0/RZ8ybEte2YhGKFIBxAOEJ0wdThPuU2QuJ2XRXrYvGW0rHwZL5c3KOQlxT5HFYsEA1tCpUZYnuNetOz7qgBSCr6L7ZzIg8S8j4O9K1ZSyEcH46WZIaaHfLdIbe2kbZ572l58/bp97tWr9o3rfbvWbdvu5Jh1pxvWGzetP54CA6Cv41KXDIX7tmY7wzV7/drIvvDqHXvxjW17a69hduJx20HVwaSFSOE4cEyx03iAfxjI6ryvCR26Bwe4hzZ89Y2b9su/9Zr95levIzB5xDbOvs+mnXN2qzeza3tdG2NmwgswPezeR3usddzWTz5q3cmavXT+tv3Wl87b19D+7hRBycnH0Tq+kwRJY93qWye5k016PELD1toIZnZ34VCTPgr95Wnkg+5Xr+q8nMhb5jOOBi2T6qBeHpqQNlBJlysAWgZf8CZgxAlLEbHiqoMaYarrMdxWlOZ85u/rF+9P1NcqWFjezmXtvZccfs8IL9N07+haeAuOSk5ZQchiJ/ND+WyR5NtOVeMtICXzKzrgMZqL5XlmpxM9IcBtXaahox/zh8nAoU0xsj/KkFKQBfibNP3+wIajkW1gNtxstbX8qBpQBleVvHa+l5OORJ35JijZ07LvPEyghVoFhA24bXDWx1vswokwvke7ZSMTG+zetU6zbk1epuFLwfiir3rHhvU168/atoPB/WavZp996aK9fKVnl3cadmewgUDjGAKADa2c8Fd9p/x17NoIs2QM6tMhZlG8uY83rzZtBL33BiPrImgZ1RvWaG/YRvsYWtSy0RC8sd/fUe80bdZs2qDWQODQsr3pur38ZhfByI69emVo13ZaNmiesCGCiF0ca3eIAGg2wjlsWrPWUTzFVRGuEfJldhO0oYfz3R8MbIr6TczkNnhTK8Tnu1f45kjegDfudm2m39YYGd8/tLbWMf6mE6pLn+pbStM21OiWgTxnSZrkpPK5lBkSA0NPc16ZHh7PLYLrP8wnpCp759M9I7fuIqzkrH9mfFmYrp+DZHLUpRicPXJwjss46SDgha+pBNgk/FMMDmJCaNzVx7dJXj990v4MljlT9t6TdCFDcUiDqKgVlkhXiOcyUO7EB48rXF4HfALlWjFgdWY9KezGK+ynohg7uL5zlDquHFIbKSh9KldGxIPfHMEe+NbhybFNXabp7LuBFcHIoIsO1IKTYjAiZ5EcRnlokdSMTXyP54XIV4GXtzfLJ1nmysMaKGuiIhhBfQUjAIMRfYko9j+ikJ5cXD7Cy9+m4aUaPgOv+4nYqVQFwzWcjF4dX+zv2iXRKD0T/+iO4hJZhQBhPBjhZQFKQCcZwQiJ9VgGGwCGe3f1sjAO3jW+Z4XBSGvTRo1NBB11e/PGnn3lwk37+pU9u7zXtDvDdetNNmxkmzaZNW3MpXs+54JApM23ZY17Vht7MNKqt6zdWkO9unVHE9sZjRVE9EdmJzdOKoCQ88M54KNz/L2ZWaujQOT6zszOXx/a51+6ZRdvm+1MN61fO2a7k4btDBnY8JdTEXDhnFHGFgKo6Zj3BXFlBtI2EExwlQfi8rzzDcS9vV0EIHXbXGvbFp/0QX46GpgN+2jvxEajoY2BzeNbClL8SaugpN/EQnNBsBT1tVQmylMAf7QRVlfKcxP5Ij08XrSTOiOJL1+JYIT3jLx+wQbpBlZeptFv06gm6iJDpFuA5u4Z4X8/fsUoNUmuElCCdvumF/r/KOM5jhLYGmyGKe0qghG/Cdr5hCTXMSPN8yvA03bG4+WYxOdPZ8ha2DfwRyYTknRKijQnHTsBefWajBf/q0bRPj/PfplGv5lFwsRqBD30GIwc37RnPvQRW3v0npdpsCMU6MEIsbDNA8d2QdieS0mHyCvam+VVJ0eU52m+zzyiM8oqjjIkJwdfysx0P6QnXsu/x/V81UV5Ub+q+kOb/Nyyp6M7pClI2Vz/6O2T9THMX++RRBm2ZRsYUBBk9DCqXL87tJffvGW/+bXzdr3Xtl07Zt0ZgoJZ2/qIO4aTEVThPyXfqU1sHaNSm7/oyt+rmQxtMuHDjnx76zr227CrCGZeemtkv/3ybfviq3ftrW3MLFqnrbZ11rq1NdsZI9CYrdud0YadvzG1z375ir10qWs3B22btE8YIkgEI0O72922PgMIOMl2fd3qCFBmCEIwSbFGkw60Zn306wmOWe+ctEnruN3p1eylCzfsK69csqu3uzaYNiAngpHhWNe7eVMrL82Mxn1rtuB0qMTiXCfdSJE5P7aTcot8xvN/JU8UmYIBOkweMCery8Y+o+Bc8EE53zXtKWAPz+Of8/JBrVpgW/3JEA/CiAg3SOo/qKR7JIopfOpPKc+VhGkCQmIFYpye+KUbPl2TpavEg/DLePw1BoF5V0+msYNJ6roHpOKEZeXVwv6P7AdGTywS1LVIeaX5QztCFatA0eacFnjaXKgjD5FOt1In2Nk7AuhTkpuXJ/zyBd+/EeedkBtRShfKeYDPBeRm0n7uXpUHaGjEsu87VEhWgD/+RciJOsvB/6W8YwQOo0mfOYzkmOE123anO7TXL123r7/xlr321h273W0gANmyoREIRKCy/rhnw3HXxpMeDtPH4YDRwDaaTV0e5VrMCAHD9t6O7faH2KepY9zpb9rFW3X79S9est96+bqdvzOxfvukNU4/ZruNY/b6Db+/5Auv7NorV3DY5iPWQxB0A226sXfbRraHJk6s1ZzqBUR8W3xtVLdhdxfyj2x9vYmYZQ3fXrO90dR24U371sEMZhNYtwtX79rXX79sr164YrfvYB+0V29D4+R2xgAK8lAWXsZSvykUtxT79L8Eq0Eh1O+c4ihxxKqBxK6hS06AVj/UcUrSxU30Hb4ALsDgRAFKOhDX5PjhpnoUjqkBfMUxgpAHgeUMvOa19TunpNJKYhndr5yU3TOSLtPw7meaihxL2p1rrL7O6iS+G9XqEFvLgXGB2KkkjxMfueIrrjmr6fCJAqA25iONTqx+tBFBBBzOdGTDPgZQDJqbG+uaEWspfoqAg6BZMGhJcP0ScYy0zWMKi99VIWhGx1YjLOBTQlw2ADGWh8sE/OVju3dva0Whtb5lza2TNmuu28sXbthnvviKfeGlS3Zle2LNY4/b3mTNuqMmgg/MBfQ7Jgjo4Jz8fSZT2dkEgz/Vxlmj7sWp+RuA9TtQXMqu87dtOnD0fPJgbNs7d+zGndu2MxhZvXPcbu8ZAoXr9uVvXLdLN/Ad6w9Zv7ZuO8jeHQwQXPRthP342zdNiId4xBoTBI6ToTXqQ8jBb4N0ODd8ke5gPNVrvHmZhpfg1vjGxDs37Pql87Zz84qttyb2zBMPQVcIxgY7NhzsQo6htVCv0V6DDIxQdMh9FP0n72v3pAes9u2maBZjVrlEP4E4PzPrvnHZbr7+pg1vb9u6Vtlwnt2sRLIzpBifRFodwEH01AmP/KC6+TYTW6XenWRhSpCYUC49PYKUlxtZme/nEQ82zadmqCZ/Zw/2IE9788irj/gUPCkllYR9UGxnJtmRsjopUpCyXs31zW0Q0ygTVdhWSIV9UHZdTcFGg+8ZyR/t/Yit3/MyDYXMsY9HsySfSq4uyqXSnJ/JEAjK+UmlvsxKHlLOKt8hoKwRcPBHEx0Y4Tj7JT+tluRgmQIUgW8ODQQPA/HC91QF7mkJ9n6HXl+N8+5OJlWgLSCggMDoORxE+KbVme10B3bj9q5dvbmDtGc7u0Pr7QxsAr4N+dTJwJr1AQZ4/yE83dBX4wvXPWAZjBG06O2pmF02ueCCdvH7cOzZmN/RsB6+8uZwZG/c2LXPv3zDPvW5y/a5r23bhast2x4cs73Zht0ZTuxGd9d2xz3MYrE/Oj+bPBniHwKfBs5DazZEUNKzdbSDz9SMRns2GCDgRODpj+TVtZKz0x/brZ2+3bi7Z5eu3QCu253dXQRLCKJ4SYmXluojtBeV06rRnJ5yBH9Z2YqiuBwDqYLi0kxAPH4KHussIi+vHmJJXZdpYPe6BIE8JWfXoTp4WqMvyexgCiVq1iSmCKnRv/RjgKjDXzquM+iFX1h18Dd2FpGX0/e5spbrmB/pU7nEOwpQn5i3cTJZ4uW+HZSCEVqU9kopeVmtRVI1GF9FkRpYwGfpEVSSlxHrB7J99m2TFllHFfrHFQ0EEQLzgOwE2ypDPgUhCkSiHssC2i87L0I6fFUwRymcFx//os1pk//4sitqgXm+44M3cLZbTTuJSP/k1rrVMFDfvHLJBtt3zfpdq/OeiunAGjPeKzKAHjhwc8bYRmCC+sCEP0+Hgw4RvM34Ag9OnalXvmxvjO+BA+e6zKDetLsIXC7enNpXXtu1l8/37eqdlvWmx3VJhTeq7uH7+MjwGN/D1ZZWs42YpOWzVL1eHm1BEFJTe3hUAsMLzxW9QQPBD9qx192zGzeuWq+7Y2sdyHdi07bWWwiO+mjPEBUZnI4x+ec9JK4PP8/MJr0lkDdvA/eH91nfp2pAA0twW9mUTyXuUaMsIct6OZEKKk6M030lx/Nl+9lngCRYrIgo4MA23zbLVNsMRooyvtRv+UC+cpAsC0hlvHlTP7wJ9QQlVd0XQYvbK0OQe67xeUrQiDJSMMJ/HDz4JIlCXRykjFxWD3QYNAA+jsh0WZ15UCsutw+kPIYPplxqDZ0IhSaPMHJ5qRMk+SATs0Kv7jxHfpjI5DRXoTLQBwL6dXDK5YFVPaWc1bCIl1P4mzOzGZ84g3vhI7qTgZ093rb3P33WvvOZ0/bEsbFN7rxhk+41mw7uWm3UtcYYAz9XSBAsNIYTayLAaMEx89HZtU7HH5eFnfF18IPJCIEEAh4CPL1wD39cORnMWtafdRB8rCHo6NidftNu983uAj2uoKAn87FdzWT1mzlTW2+1bW2Nb4vl+1CmumzDywKj4QDHnVinwXtWWvoNEWMwNB7aZLhnw+4t6929YifaE/uOp8/ZC+9+3J4+swkZthFcDa1JvYynCMbG+iE06UN6Wg6WEd4v7w/tU2Uk22E7OeBohU08caVjriCwrswKadiZbmqs4dwKXsdnjspWEkkUpQJIQQnar76TPtyGVOBF1XLGTyqCTG2Bpy9gNk9Xixez/hKpjBRJlIV+8JGu7oH4uD7TVhxH31tV4AwjRXMTcZuoK+U2o45msoKg7DINHAtvRGNAolkPUuYFHFVQNf8SfVFkVggaRBMoGwaUogzOmNuuFGyzjI/1zlGqe5TBhAMhLIqnfQLwtBdV5mxggYK/rEyUV6gSKBQGY11yQNAwJTDrpz1QAZoWcglgzWo1vv0UAzC2Oqj/8NrU3n+uZt/9RM2+/6mZfdfjCDhGb1q/fxmD9bYe3W0hAFlDfLAOrI2m1hqir/V3ELDs4Ch9q/EFja0mvoYvgPfbgNUyBA98tLrXm1l/UNclnSE69QD220dZH+0TcPzREE3E8ZvWsrV6B22r69d1B4B+kqyFYzebuuRjjZa7A81WsQnWFPV6t69b/+Zls50rdsp27Yc+8Lj98AeesI88tmmPQoD64Jba3UCw04RjQSiDPQGNPjhQ3r+WYU7nKwp5WhJS+hD6CCRBHKS5SWviH/WrXfGPA8uo7jc+qrxAtUk2gtPHVY28ydxkj/GnSNhzMI7AmPgr2FPAexTCYBoYgTrUAfVzRKxBcIJwoMUyyrrIo+wEy5YhykNHK0dLGh3ykPjqfF9RLUnjLl/VzBWBoroOxH+6UgiQj210wiIyU3lFiU1bbF44ykVi0BU7aBYakXscIPZLOnjHUESzaZMdjflMLU7sgDQjX18rscirMrk1+xn2nK+MTTBL5woJ85BhhmBhXMf4A70AHMibqL/ZMXvkRMve89iWffRdZ+33ffAR+67njtujGwgydi9b99p5G2/fsuZkqtmABidQQ+9g4Lci9KghBKEtArz848Eg3DjgQ1gDrBbGvYZuNO1hAOwhyOkjHaEuDs0j4oNQBJFNsx6vm+bNsmPji9b4C6ITXotp8B0p6wgyGwhgEKZ092y6c8sGN9+w8c3X7Pj4un3gkY79oe99r33nkyfsmTNrWv3prDWMv0FT/D4H3zgriZinfvh1+Mc0xzLeg6KC5Nbs1qI824lNnleaCYMRDsy+xjrfA7gXX43OlZGpRnbWQqqOFjWrB9p//nG+E2UuHmUtUEsBCqwX0IpAWgmipA4+o0dQA3m6ajyfPAQWy3Jd5VTq4d5YTnHcKgLEhvvSGTKOUiZYEHyT/FOqTtLTNJPd29bfu81f+NXbJX2JlB0k1eLOUO7cnqD88JWE5EgQLyhtix/k21wW73a7cOBT/Ria/2ov60H+Qvy0/1GFzj11McGsuoeZ+cg2NzetrrdsQg8sQzUa1D1Jh8uOW0H4Bzn+ozjqJMFIgSmy8KPibW9vWwt64Mvw+AvX5LF+A52H946sr7VsY2Pd1jsoRxAw7e3YiIM9ooVZo4OZY4u3s9qQl1OaLS24+CUvuDGA15n9xmF+bxrs0ACqmi3SJRiUTRiA4Ji8vOM32nrz+SQOzwvztGW9JRUpzymDGh0HAQnfGSLnORnZEH2/d+NNq+1ctIfbXfvgo2v2ve8+Zx8HnjzVsrMnOpALwQ0F1fnHYINDDvojG8A2+MN6epJG9oBCtEdpgv8yMrJLylYRPrC6XXDVrKZIsGa7Fy7bjfNvWu/OtnUY9OE8lV4z2Rmz2FF5FnihjpWyK02cqIogjPxDpIlccmWODLnIIaMPtCTyY/KupxAzPfyOqaL6i2bxRnjGDH6/EBWBP/gO/mrvoNWw2fEte+7DH9r/Q3lFMAJdMRiJwYig+ty1JdJx8W/lEOR5BVKUsSA3miIYgQ7aax0PRqgP7UE9xPGOLnSfBIHBdKDXwY/1BtZGegOrV0O9onP5fq6foPljVhtOGhxATKQDlHFuU9rJTG/nbadghD8cOJ1MFBwwIqljmz802UZnO4GgZLM584BkPLY+L7Ug8ugiCBjVWwhEOghOkPL4CAt4fwqfWGrgeL4Sk9oWKkWqcAL8Kb6PwY1SniZWS+eCQYoTynEsBpQxadAKKMAXT3F1ZTId2aS/Y+Ptt2x654I91unaC09u2fe99yH76PNn7JkzHTsO8++sNa3Ot69KFTga0jG+lK+NHw76CEa2GI3h2Lwm7N++SCGGD1ari/howgeKe0ZoPApGLlxUMNLG+dDTJajLQMP39aOQYoVgjvYxqkPRN75ldJChrCgVQVii6I+67wsfbRf+8ltAFVVfNIsrQvzQ/hmwkz+FD+EP5Q246oFg5Hm+Dv7eb2BNROUCEdnJAxXgoVcBpCX8JFuJJFNAdXJe5JEuHusII869r5QlRHnOy/n7QFrGrxDQfn5cFpxjOhCd80VAF9hDLiXJPeXljxFv+hwq6KCu1jEdeGxzZh96bNM+wYH9XWfsiVM1a03v2GRwyybjuzgcAt4Jn0wZ4fv4Fla+lAwdEt9DsDvzEum0NsZAgMABPAUi+FqtjiDVvTzIs610egTbxpRvc+X7TXRVBuANqnyxGi8B8XvHwz3r7d603t23rN67Zo9vDe3jz52wH/ngQ/Z97zlt73moaSeafdtojKzJOwFwzBG+fIRgalzjvS2A1JB0pvQBQD2vOnJZlsjGj69W8cMzGSVOtKLIR4EOUW5WDvz3QG3Ev6VYLFvcb5WBfwdisXxx36MKCBufYhKVwA9J/z0rOjgYUS13io5E+ibPlhtVRE734Mvx50SH7oNOQXO75cd6JyC3gQzS27L6iwhaVlYV3IOKKvzHyx5DGwNT3rgI0qvR63XNfDTwN2u21jRbn/Xs4bWZveeRDfvI82fsw8+fsmcfMjuzhlnz5JpZ7y0b966aDXesNh5p9uyXQrGzACuEEfpPr091E6CCD34pv0iXTBJA8YRTU+0RR2iguNWsG68ocQVmMurhe7dt3L1h/ZsXzHYv2mMIRH74o8/YH/yed9tHnztlD2/y0d+7OHYf+/DnennfCm9ExDyn0ULzWlbHAfljfZrsaeofNnE/eLuOAmLFqWDpX8iZsZeSFJfhaFDIvAjSMt5RoEW5cryT6e3qIQtGuIsvKfH6dRHKaQmSxehg5Kuj+fVtXdOuILztqb1I58u97eTHzH8mucgjYn/WDcfCbe63eKwjCJ96p/NeQu6S+SiL7QB4evER6yZ4meua+bysKijaiOCClzRoC0RxqSrZe8igZVeA21p5RTDAtxY3GIzgUIUOOFA3JrbZmtgTp9v2wnvO2sffd8be92jNzjZvWn3nDRvdet2se8tqw55eSjabNBGAdGxSa9uo1ixuABxzZQTtYO/UwIXv4i8mE778y6a5LcelGD0ZJiAAQbAz7Pesv7dr3Z1tG2zftNn2JXuovWMfenLTfuBDT9r3fuAJe+axLdtcx+FmfQRIXcgywKG52kOZXS9+OYp1oKMpgijWYcoy6kr6PBi57lcdIY9kA1H/czPABN5fooexXEOprFBJpRHdne1GsrTOPFzmnJxXlpXbRwW5XItI55x6kC7eIeDHMyImAZKvkMxTCkbQqfCfPoyWF4rUUeVgCORplcoDdMgVhb/ts8R8eZIr5JB8IRtAFUVZzo999h3viCF0kqG4ZFGYE/QavEVkx7r3eagQcG7D3tkH2Bf8fAdie6pVEN7IqTrSD4s4+PDyx8jGYz65gsCh0UHvaitQObk+tWfPtuwjT63ZR59q2gfPje2pjR07Pbtlrf4ts8GeTUf83ZsmgpB1GyIgGSIY4btbtSJSQyCgj38jf9iO932wSYs04WUYtMHfT4J2TMb6zZt+b8/63T0b47sa4x17fL1v3/VE237wO87aJ97/iD19ds02mhOr8/nNZsNmjSb2RSCDYzIIUiCiy0n8hWEEIPx9HYHvKxmhUShfYgOu3wyLZSuIWIUqZOJZUT7ZiojBY/rIPrIghaX4l/bMgPKKofhE+5F/+wjZqinj7xQ8n4uYK+c5/x3pbxWx36bjoz4ALJKCEQUiCYtqdX4c2tVcLE+uOHQ5BkqZk6dQUuTfgaDcxWZkUj5Q2MMRQCFjbGeyzZVhnMZArRUJbhQDEuuhu6WBij1kMuXP8fsNv+3GxE60BvbMSbMPPbFuH3vumH3oyQ179nTD1iY7CEa6NmEQw0dtZ22gpadu+G5U/m7MhAN90UkZiED74EenZst0mQiRFIOPuGmViyY8T3xihr8vxNe48xmajdbUPvT0Sfved5+173r2lL3roU073kGgxbe/MhrjNR3eYFuDDDU+oujH4eUavbVVYFACMFzRo0auC31loS+H6wp5YqFsJRGy5FAZ//s50YurkKdmovReqCota+vbBQ3A826r4h0hcrnmPzmFzN9KVJm8jaUmDoL7lZLmLtN4BJecioBdBOeVfIeXrRpClrRdyD2fd6ea111VeX/nULC2wJO+jgySTRfnexFZXVARvHIbAz/rsCNx1cR/TLBhw6GvkLgl8YmLvm21J/bUuU37jmcfsu9816P23BOnbbNTtyYGLr4ESO8SEZoAgwCCQYevjJCo97hZNRC2K7C9ID7D7/ez1Ip8p92yzY01vbb+hfc/Z+9/9hF7hI/tIjhpI/5o8EcyUVeHQ3tqzTYOxNte/Xt1ZzyCD+qJLWug3XpXCo7t3/3OQH6ZBv/mwI+fM8/rAz35xx0wodr4twqIVRwkS8sPRLEPZN+HrN5RQMi6REfSHQMyYqHsaMP7gQDNxLkvtqWtkrJgBPMezKrKcmYWAbXOOWk64lUD5FDvkokA+D8aoYjvEQRxcAH49IHu+dNgg1T7rarMbxfUDQdnDj5hJJCf/KQfIXgrbQ8x0FMWT4ScCv7UBj3+ivEoMcqEMQd/aJfESy6kMXRE8CaLGh8RRx0+Hs3HpI8fP25rnTV78qmn7Iknn7QzZ87o/SQMGvjKDt6X4eD9KMiwA8NGeSnIaKtTf1pG4GoI+Ton+hoQpOI9I2jzeqdlp0+esIfOnbOHHnrITp8+bSdPn7KNrU1rrXWAtt4hwydweIlHhKBkko431rtK/MmccfoePkHElL8IrLsh8r4h95sh0/VRAJ9yIly+wjgKhJtd0ML+2tkGk2X1Dxtsl4htTO28F3RVO+XdEmlHtBtoDGmAxz5K8CmbY7HMlcGO4tMYX9mcB/7eFha/o0qINrKX8Kct6Ef4qgwGIbyMTDAocT9VklyJboIT8RApkeVFB4ztRaj2ihEbnRCDaCEInYjP/NxsCJbT8cT2O4lcZg9KuHqwIH/YQMFeKF8R8lU+R3Ej5kK38m3TC8+4AkIPwsdkPRAgkB9zm4HKxNrNhr+jBprb2xtat1+z2rFHbbd23F692rMXX71qV+6OrTuq895VrXDwXe61Ce/HGFodx+Q7R/wXj9EG6FrnAbNsdlfEKIJ33aydHCyBuZUTphgBfHuG76vZb375VXvt6q7tTtesN23bbg/7ttet3m6j7tgmCLq46sGncRhj1flBlKSXm3ElRCsm7nj1OvTMH7BJOY4chbolcwYw+Z+p//cZYMBreNVliIGpkkC72Qv8cfL5NM+T3FJhG4lHNuE9yCm2dewVBv4kq9K0TasPHUR+nod9AdaVDghsRLqo05xX2Eu+X4XAtpXecp5CVlQR0X8ldYj00rPp3m0b7N3Si5c6cKLFpZhi19gjDpMIjtF5KwRqq9h24jV2ikjHzgGl3+3qKYlWu4XBpw1mrrV8/yOKpCPOrAeDnlYCOJvnj60pcI2Bm0v0oU/1EOZJibcq8D+RD/ThPkCSK9KpdXd3MA7XrQ3b4BtYaSfcR/dsJBvhWwcb6Eu1Goeguk0abRs2Nu1qv2UvXx3Y194a2Gs3Z3a9v2G7kw3rIxgYTPgjfAwieEMon1Dh47W8J2OcgpGajkvit3hQooZhOwWKuf7RVl1yRRmHwRgKNSzyN22GA9vlS8vGM8jSsRMbm9acjRAEpSdoUK+OoIhyTWcIRbkswkAEJQzGpuORjWAbTDewL3+FuFgaSt91VKEPdK+5LlSs84OtnTcv2/XzF23v7rZ+BNG9MwYgotwz5clHRnkCgaLKYqtMq8B7Wx8ZKAAZSc7jf9KCLqSEt9eWSvHQP0I2gSKTpzz4kE9v64XPQDcCP9VFvSIPSC/ksd++nU9F9ecvBYRHRPv4w5fUCScxIyR86Vnt5DF71wsv2Pojjx/w0jPs4/eMKOOCCj74BD/A8tUBVFTIkWSB2giajsyHPJYV+YwHLD/u0cOcjsTLtz3v+gr+IvYfs6rAPz/fCXP3A4Q8shMv5/tFeMmCqw3sX3QyuqEV9fXECeozUODLzDhQz/ja984puzXatM+9tmeffa1nL93s2A172O7UTtu2foHXEBQMEAjvWX28Y43xLsBf+x0CCGq4QjLxSzO6FMPVD6T+xAy21SZfDZFMmTw8d3wrKy8XjXCc4RgB1aRpN6fH7ctXZ/bpb9yxL7x+x67u1qw/QluncBQ4rCYiaD9XPbTyg/35plnsjjGWZx/OFcEHXy0fX7eo26MK/FsKlRcfsPCh5RC+fTDyOpGvKu9e0EAESBfsBxqowQvdFLx8n/l0lXguFbddLqXKRz2X3fklb98n9JTqHASWB3JenlaBJ/kXzrNLmPL4xzSnMhgpSjgwp0Nqj6MAyBN5VwWQ8eZAfiBt52rfV/+dgcIJh/6Y14xwAXO6Wx14EAI3IUBeDuwc7At5XCYO7DNe9CbVOZsBwFcwwHsruLoBPXAlYVRfs95sw270WloN+dxrO/bVy1O7uLdpd+2s7dWO296sbT0cbjRB4DLt60ZXojFFIILgg7+lRjAg4b0iNQUkcWmI+WizX54JWw3nBum8faijoGQ8sx6CkW07ZrftlL1+t2Gf+fo1+9UXz9ul7Zl10d7JtG34epu11rEvgw3XB+8n0W/d8LvBEzEig8dwmtfpUQVDsbmg1bWsjwYewHVOvlNZq0ROWmcJVVYRILUb+XvBrS+lyBDBE5/b5CMvwj6rDMmSEPmchz/RHC8h10vBxzHviVS/IPCqBLaRJFmYpo98Ira5YhJyLNL8ysgcYdc5R5zgh0wI1VQdOWW8okouE6jgp3pzVBQecaTzW+gg4xX5QPBWFfchVeM/PkHC1caabuZUAYIEXsYaAbzMwlqTessmaydsuHbGLu7W7dNffct+5QuX7HrvmHXtIbvV27SLN0Z2t9+03rhuQ6iQ7xMZ48OcLpHgSLrcgzL92BRKtBpFfd+3H+4n7QkZ+KjwEN5gd9KyYfuM9Vrn7M2dlv3yly/ZL37hon0VQdOd2Qmbrj+ML9xEA9YRc7WMv82rZ3wmiFK4YsJASEel90keSJS346jjoPNwEC3qapGi/Gig1MY8z2m+7urifpTqQXC6kNCJ66E8zjLeamNe1lK+g0ku1XcloUNBY5r1xJ55nhnml4V5lQdl4xJ3xpMD4QASMkfKuq6LEtx3kXdEkU54YVrgYaI9V6eYGS/hhy5XBzy3XFmIVQbaRYLOeVpxQF0uBPBRWfUZrlakp0qaraa11jBwr21YvbNlVwYt+/zFPfu1b9y0L5zftmu7TdsdrVt/1LHhsIHgpWbDgV/6oAU6IhTxHsnXw9dnAKYTvBuD8BuJvb3e5gnqIXBBm4qf5Pbd02wKpUQS1W+EY0HD9vpj2x03bbx21nYa5+wzr962X/zyFfvcmwO7Ojlh2/UT1q9v6J0jLcjXhrdYnw2tMRn4/SQMSHBQtlv/3yn9A+dsqZ1LD8ymmWBKYyaY1lSEkpiP7chXB/Ntvj9ydRwEDR+o/aDHrDqWyZjD5aUO95ctYtnxl+HtnJNvN0pZYftIcyJnGZ+kG1hne7etv8sbWMfWbvD6dzjhcIsgZqQxbuirmElp9VCKW6hGWy5PWY/Ea+1+AyI447H1ul3dB9Bqt4VULaN8/6OH0BeX5gf9vmb9m7yBtdFwHenSAAZA3g6tHhQIinychfwcVA+REyU7iPZ6CpJHmdrO9rZuXO102tIHdVGDrTRgJ7zBd4wx+cbe1D53dWy/dX7Pvv5W3250mzZtnLC9Xt16/Ylu82jWm9iXw7iDvz/DQWuqgAKjPoKFWgE2C/0RGV5u0SUTpuzU6pPcJ4Gb+iRSFInjgqN9WIJ9JmO+0QTBDdo+mXJ1pm6Dact2ECTdRRv7k5qtbR7D7jOtiDRrY9QfWp2viZ+NEIT1bDzo6TG9zjpso5Z+0VnE7zy64Ec3JeLDVSueGoaJd998y66dv2hd3sDKeR5sRtaEOnFOlCrjfILbcW7inFYSD9i+oLCHnF/YiOR24aN8JeHSFKkIMnKb5XHJTjf7LxD5QYu6OhDxQR7/hH11KgDdwAr46i7bCRuHrxlBziH8ZP34cXv3Cy/YxqOLN7BiZ8L9lucF5oUUnEQ+8X0OVzXk7c7byXSxLKOQWXJnlOnBj7H4fUcNpbz7UZ77eV6J8jgx0OZlocPqQDLgHMf1//I+gESqwn9JDq5EpNUIdToMKrxJdWwt2xvM7MqNHXvxtSv2m6/dsi9fG9ul7prtTDf1+Gy/P7YxgrvaaGDt6cjaGOD5BBuOoqOP0FnHdQQ0NQe/hf1Y34/ARY8Nj4cImPuonDAeQM0EytKNtREsaje2Lw183NZv50zG1hx1Aew/HFsfAUivfswGm0/Y1ekZe/G62a++dNs+842bdvHuFMEJqo1w/nB8f/vqAO1GYIK836eiRiad5jZwNOG24DKX+ZJTAP8Ci4U6P/goSFSOtlQ9xOBCISJ/L0AMBynyc9v4l9Vf9p2rhFz2HPuo0EEp/5x+Ej/KDgL+zdVb1qbDhreTwnoSPSbvNctIwQidiC//zkM/Za4DB7i9DFGW1zk8HgcUPk7kP8fOssV6wXMUJzs+GQ//MpTfMZ8eQZ70kFxlmpXHNvNenpA+82YXNsQBl3ket3pwW3Fbd3uHjAJlYxWmzmcg0oAuFCZwm72m3rKBrdv2oG1v3pzZ59/YtU995Zq9dGnXdsfrNmsft8G0bjfv7ugH72pNhGkYyPuDbWgMgzkCEoYi3pEjhfaKbbYFgciUQUjXZqMdm2Hfae+2zfp3ECVsW228oxULBiV6ikcBCfdH+/DdM4BTFd0MO5laczyxdZ7TftfGvS6kwEyltWl7k7Z1a8dtt37K3typ27/8zW/Y1y7t2KVtBCSDOtqtu0b87LJ9+Mz4CnlyaB/cFiJ/lHkZdI5w0hjzaVYMnSsATOA0MQftSlqLy3M8CojMqoJEGe8DSi9dEL6T9/2Up12Wx6swRMsKFgDZCnkT3GfMg3rJ6xPMiwdQLwXvQUBiUlHUYfc875SJtq0fioSP4IoiPySw5kjBCP/xNc8zzbJ4HTgARzMHHDagr4hvj3xVeMuwWC+D5GHea4SDcKUtw7LjHTXeRIPmmEvytJoGuRx4CNTBYDZDOQdU3ungYH7oQFmRFz/bt3JAu9JTKlqBYAeCCiIo8GAEMkyG1uEvxgx7CAj6Vqs1rHnsIevWT9vLN5r2629M7NOXmvZ674w12g9bA0HAuNez4XCATjiBJqDP1sSma9BK22xntIcO6kPSFMHGdAww6KBeAdd/z8bTXXz/HlR6x4a7V61764L1b523yc4la/SvWwfBSNv2rD3row7qD/mDfWguBj5/GgaOYVK3OkRoDBFIoe2T3V1roY9v4Lzy/g++P2XYG+iSzaS2boPGMRs0T9svf+m8ffrlq/Y6gpPtxinrt07asLZhXRyzB58wgT7qDZ7XFFRBmv3p0eKxJ0xl+wRXo2DjBB1pw4M1f+CKukegN23AFpgyICxdsOrBORNOLKsacmI77wcmMD7YRlOjC6X0G795VZdPYs0fNb6nKshpmXyLgHwcG5OcxfYCyqNjn+DP+UP6ndhe/I5F5JS3vUJwkTS0liMBb573vsRaLSAnmQtLWOhZn8VqG6kucBOF8gJVpcUTRyynIkINyrajLMc7gygnLEgDcMxqaFkJ7Fhwnv7CLfJIUQZeINe/jpU2q0ZJRs5c3PZp2+wu8VEl/Lndc1UkXUCBWFMbdgd24fJ1e/GVN+3F167aGzdH1uMju4OZ9fsjBCIj3VcxQh8aYsAaTgcILhAVIDjhZeTRqI/uNWSsp1erN/FVXM3jJWTdOoJgZTJBkNC/Y6Odq2bdG3as3rXHTjTsoY0pApE7Nt6+jODimq3VECzVMQjU6PB5SYVtR2vR9NFgjCCF7a7b5vqGXmLHl5cNh0PrI2DivVLs81xVGY7GNkDdMQKT7e7Yvvrqm/aZz3/VvvSNC3pHSX2Nr5EH+EJA0BDBDX8/x3XovuTogkqFneB8CsleaBthL1oVUZfgPSUE78MD0sctDXugGmJEAUcUf9k3VgPLufuAf9IBwA35TuUdwS8YlcWDUchaBqvJBhbAQ8ZRtZ3SGFdyXt6KRczTshqHi/iI2A9S3r2no5Qx1UuEbuCUXHFSEAGlypCSMZGSYXkZB5gVByQWsm25CeTdXSwg6h150ABgLMgGFlWRl83XgYERhUMG3GgcGOwqhWgXB1MOLKGDovFpm3WQZw/RJU2A7/kY97t259ZNu3r5kl0Bbt28Yd1e13a7fAU8BvYxf3nXXw7Gw0xGIwz8Q8yQR9auT62N7tnBMdsobGA6zd9JmiIY0E2qU8y78R3DQc/6d65Zo3/LznZG9u7Hjtl3vecx++DTZ+3xE03btD0EKTdtunvDWrOutRCU8Kf+Zwhy9C4SNr3etFqzZVOkQwyMcV/KmAMGoEEE8k8QHI17e8AuAqCu7d25bVcuvmmXzp+3uzdvIbThEz6orDG4hsAHx4VcDngRtPuoow454/0vegeMltDKfuBBYHLKNK304UDlq65QHyqtBthWnm7k1e77A1oSIi8+9439546Vf1cVsKyN90fILKAzLatTIHQBSD8pDSzdJ5Dt67zF9h8+dClGPhWNVEDiVOY8XwQfidJ2GZXr1cU8Dv75AReB3lakqw3NiIXguYx+z0yUlVjc/2gizjPMIQPsC4CNAExLsNz5c4iApChHppIIudG9M/h9AEQMJajL/9wW6A74hMnIOrWxViVak12bdW9Z7+5V63V3rT8c24i7YdBvIAjgDNn4bO1oYvXxxFoYxDbqdVtDlSZm2XWuToz5+zQIRkZDG/V7Nuju2WjvrjUGd+yh9Yl94IkT9r3ve8K+9wNP2UcZkDxz1p4+u24nGgMb77yF779pjdGONWd9fF8fovVx9Kk12y1rdDo2Rju2+2PbGU6tj/bMEKDU23wSBu1CAFMbdc14T0r3tg23r9l4+6Y1h3u21ZjZCdRbx6mEYDbpDYwvSGnOmtaqtz1AmdPn0UT4AgYkyisAwylWgFLyqYvcdhiIREpnHU5b2wk+AJb56vHcfCHiXLrIgzrU/WNgLXgBlR30HVXiPYC8kokBSMozTbILrEd+Xpd6UR6IukilK/D2fUdK4/vu3eZD5sHmdWkbH/65T0h9JSF4XqGk4rdp+rs34YPhUPVoL1TFSzNahkwHY23mMTMoD+Rlqw7OQikgHTLfoqnfpsE2f3+k3WqW9bJ9jipyY+Hv9HAJnpcZtjY2fbmZikKxeghTIfGULiLi32SgFQNdgwIQ2jtlJhfNZqeXHlhHg5CvnPR2d2AbNT3K22ytW7OzblMMxnQUw8nUuhik7+52bVTj3SUY5BFstIAmH4vm8eSVuLrCCygsa2Eb3Xkygn4xuJOP75kMEIR0dxCI3LHG8IY9fWxsH3nmlH3sfU/Zh9/7lD119oSd3GjYibWGrTXg3MZD296+a/0ebBefZgtBBr5zwtUWbDda+LZmU6+E7/b6aBtk5W9E6Pd1uGrDt72ixQhemsMdm+3esPGdi3a2Pbb3PnbSXnj3k/aBZx9FQILvQtu4ajIZ8l6Jmm1sbOkYUJtkfEeAwSM1zVFkjHMKO9+9fN2uXbhsu7e3cQ75fhjO9nimOdmDb2F3wNYEBbxXSDNIQlycA9XzOrS/PD18HgedRd4B+0I/vEGk0WjamLaN7Rm2Wc63ANdgdwfuWxneg8lLow9/Ib46gQcc4kF2Bh7UBVcg5TYTj+Q3PHOng79jOc+/4/71vr08ElM98h6MVDJDbDGhDqCLzvET9r6PfJe1+Gjvuj/am71n5AYshcEID0LH7M43xMUxlB4pSFswO856IB9l5A1WcujwIQpGAKmaHWxx/yMInW/Kil41RTAywMA1Qbq1iQEn6UjKyoMRkvLgBy8HiTa1tPBwIZfB868bcOE4aRMUzwWVPtTtGZAg7e3ctUa9Ya3Omn523zCYr61t2Mb6pnVgKwxse/2+7Q7G+h0Yviaej+/yZj7er6Gv4jDGyxt8JHjEN7jyiaOZddD31nnTSH/bhjs3bNq9aRv1PXtiy+yT3/mIfeJ9j9r7nzxjD51oW3u6Z53ZwI5jp62Nlq0x2ICLu337li7txA/48bX0/AnvIYKQMe+qxHazg0BqrYMAaqaba0cAV3j4XFB9cNese8vq3evW6d2wj7/ncfueDzxr3/nMw3Z2s2HT3l1rd9Av+I6V0Uj2sbG2VgQji/o9clDfABh98jzS5jWyNGznynW7euESghHYCPh6YR3r4MPaVBDTKTy1ghBuu9JwHK+XNitKbN39wcGW9lfHoMPgQ0Iz4MWH2wySXSFVp+Xy5fBgIiOxUxn+y1yQNigz62JDwZrKUY9Voy6zIt//3iBFWi1iqxSMpDwlk3wIRnhZeAKf2T6BYOSF+wQjmPhohuTvFMiCEWmVoHE5b+WRZCqCEfBm45H1NLtEMILBxldGOIIs7HtEofMs4irR2Ab9ngK0rc0N1xEVwypyMsjM2QIp30482UwKRmKfisAf0QW0MsI8CZZAOdFeBiCyDwYkkHlve9tamNm1MKDz5/R5fwcr8w2s7TYifqCJ8p29rgb52agvcCbtxKiEsyT+yi2CF7Jw/Br73KRrk+5tG9y5bPXedTu7PrbveOK4feL9j9rHnz9tz5xt26nOFEFI3xrjnl8eamC7gUAG0c7GGtqEY41hw929Pdvd3ZOzZHs4+OmRX3zUdq6mTPg7MwNrzsbWtqFNd2/Z8Daf0Llhj6xP7YNPnbLvft/j9h1PnbFHEQB1eMlnuGvNrQ34CF8l6sI+jp89q/5SutSjD12eYWegaci067aNYOTKm5ds5/a2AhHZlzTj5KsgDHg972eDdWgVPC7IFVldiCJTMEAlT4Mtgl6uBjAQ5qX/Gu+ZAptvHOaL9ii3dqk6RJEpGKCSJ4vAP93iIL6XMe9ztpl0obqoSJ7TfN08dYr8Eh6TCoKiMQuX5GE45HVLRxnO+xiFYwRm7eMn7P3ftSQYqe3dQjByHc6wD6fE654pEIEhFe+I8MPJ2ZUzxbS96oCcbkaQUZdp9jDPmSkQ4WuwfTBdst8RhMvqp5tByBCzfAYlW5ub0E8QK9AD+yAtUm9UJoGUUl5UZz2mmS1VATrnCpSSPFwZAZdL6pSXW2wz+wD7wu72HQUjbQ78ehxmrNkef6+m3WpohWJjrYW4vocOOUQ5L2ns6jIMpoQYhJo4Nm8kRU+rMyjBMWB/0yHq9W7ZZPeKrQ1v2mObI/vA45v28fectY+/+6w9fcLsRHNoa7OeLqVoJUNPzjj4JM462rS5vsbWWx9BQq+HYARtZjDCcVNvceV5VmCC9vCyDI7TniEgGW7bZPuKtQY3PRB58qR9z3c8ae965Jg9eqplx9oTyIOgCj6iTvkGOD4fB4ZtnHjkYdmOHtrTgHuEP8l+5RNraYZP84brvXvlhl1987KCEV6m4aoJHXIQ9/cdyrz7UDe78h6sKgJy7Msv5/GdGZSclyanXI1jt6IeUD6dYGBGP3B/QcT+VcODy1ukJOR11lM9ulPK2ay3pAO9TyTxGMBqZa0A+bkNZMde5PFfwasYQLT70vaTtddrNgJiZeT9XBl5bCEYsb2bmPBcx0Dcs3adTjddoiHU09I3MKUS/dBHA9CXghGm4PAFDX048QaU1mq3dOOf6rkFvUNAqutekUHcM7K16QoSWCcPRrJ957wpqeTJ8SJXJThBFgUkqc0oKFsKgs1HsLa3k1ZG9Pp3znY4QE2tDhmbQBusjU7dNgGtNvR3bNDdRswywmQRwQecEl+UNmFAguNzdWI26qHeHbO9a9YeXrcnjo3tw09t2Xe/65R9+Okte+YUjlnvWQtBA1/J3piN8X28Z4GXdwgGIzVb77Rsc2Ndl4uwafyFXd3zM0ZQhDp8YVsdYGDEd5q0cIwOjze8a+O7byEQuWWPb9Xsg0+fso+951H74LNn7KHNmW21xjj+EH3E37zK+ImPJA+HCFTxPRsnjuH4yQ6Syt4RFJemaDpQyt2r1xGMXLLtO9s4N14W94wEec77A0G7UQ0NMhyuyrqVotS+UpY8XeBBNP5OUrOBwJurcTANroyQz8uYXBnxcaTC9MDypjMGcfzs+SfqqFuAqAvyFYMUspd1vXaZxv7zaZ6vqP6kBwQW+B/SMBTRSMGVkfsGI7sIRravWn2MGRL2Dwe3LxCJPJWp0TvKVpgghn4jhOIwP+Fv0/TUmbicrWDELUh13hlEQf1eg76CkbFtbiIYwfmnT1EAIg+T8rKDZCvicTuDVkaYryKxXZRn7O0sznF0JgYiDsrc7e7AsdRhGy1r8CkUzP4asBUN9DhGAwFCsz62h05uWgfpaLALe0JAwhefQaczrY5gZohjT6djG+7dtUnvjjUGN21jcsce2RjaC8/xiZlz9qGnN+3RraHV+7e0+qHLzhq50E6utPAlhein/I0g3ni+hiCpgcnEsc0NO3F8Syt73d1t27l7y1dqMGq2cQwGMWxnh+lwB4HIFRvdvmiPIvD46Lse1orIB54+bWfWRnZiDYFIrQcV9dFifCf1BEn0/hOm+DBw1z0qjICOOlFEgOagk8Ftmjcyt966blcuXkYwsoOt+DAocTvS+2NUkzszz0CEfNTiwCcH5LVJkZIOnyfDE7yFZTqXZzehbJBFwQhlRgDisqXAHbbKewpYj8Q985R0+LwHk5f/JYaLIlIYCnnpFuk3aCstDMDUib+BVgajMcaP5/95CLlXbeXfEfU8R/Kcf2nJK+mweKE16YCi6uPnn/eM8LdpJnGZ5qMftfwyjcs+40wJjo3E5dtilujC7qPi25lZdfCV2RA7ORQuvdJe/Loe1BNLsaLFfY8qQJzi825m3lsABfR57wOngAosOCABa9QPt2kvwYf9RLnyURb2VEUsEL2H2gwoX9abm+lOIBv7DX8rBqhhwG5Z3zaAtekde/ahln3iA4/bD3zoaXvubNM6/Ss2u3ve6t2Ltja+ZptTBBn9t8B7w9qDq/b0mZp98rvfZZ/86LP2vsc37GR7D8e7Y61j+MZm0rMcGdrCJvAykZrCPtu3Or7/5NrMzm3M7JlTbfvY8w/Zj378vbrx9dGNkdV2Ltnk9hu2Ob5lZ5po852LdvfCV21667y97+Et+5EXnkd7n7T3PLKOQGRgx1s4Zo33vGzbbHAH6kBQwueQO/zGgfUnPevje60NhwM78GvD7wwwEOOL3kQ8B8O+9RHwjTgCYUbnF60KK5ojnToCVQMk8nU6F9KV4sGRthBwr7U7CtJ9gIF5sq+ANCgrt2TflK4ajxT8g8oyr+GuJJ1z6qhZryOtw2x8NS1AytNV4YmwwR4wGo9tPMa5x0RFNy6DxvBhE/oxvpY328lXRu5csV2AjxT672CkH9yCwmJgdqCTAXremcA/HjMG81UEZRzxJVNI2XWouN29Lpwrf7W3o+ievKi7uP9Rgy7xAt3h0F+4pXsixrbGexE4+2VsxnscYGR8eoP3O3jPwk4C8w5+FKxok6sLnlYNcYOqk/cO3vipPMqLlREoZm93G86jobeP6g557svVAtahoNjmzd+NVg2OF06GQD0tTfOY0Olk0LVR97ZNeNN49xqCh5G9/8kt+ziCho++72F79kwTgUjfOtMdq4/2rDYZ4ti8JIRjcAaNr/F2JqAJsXLDFRM9Jgxld5q8f4XvAeFMFG3kb9cM+Xs0u9a/i+9HG443R/bcuU174flH7EPPnrNnzm3YmfUJYo49a0z38I38boAjJmShrobjofV4z8igr0c3aRsNGEa173n41oBqZiprgep1Btgp4CvuXL9lly9csts378CX1m2tgz6DuoKq+86+D/PBRwltA/BP8FcPYwYdzOAfV0Wm2NYTNeCRrRs4k8/gykDst8oozmlsUy5l6Fs85WqQZ8ljDuMr1KLLWMgwJXgALjDGsQ4GL/Iu4x8ughiyewAC3wPwLcNDyNfjmAJ+++RJe//Hvts6jzxW/GovfBg0c/ErduvSl63JO+vrfNeBX6LxzhNUfl1xzQtp3oCVJAjAn8ivI/howHkzf/v2bQ0gW1tbtr6+jmCEr8qmga28tPclnlmiP+ZvjtSs1+3qHpqTx7eshe0WZn1aeoRRKdBlVDqnlpgDsPMhZZYDKPWnsqpRHoxQFlo92osBfMb5a1KIZIYTvX71Ld2Tsbm1ifGnjTI4Vl26oKzucHSTWrttw1nDuuOa3e2ZXd0e2Tcu3LaXzl+382/dthtgjkZTO33yuD335EP2gXc/bh949mF76tyaHattW3t82+rjuwggsDOP3TyOhMsSVHpOKOOXgtjuGaJJ/ZRfvQOsWb/Wtqt3h/b6W7fs5QtX7bWL1+3KrR27vT2wdTiBJx85be97+iH74HOP2jMPbdnpzRkCkZ41xjuQuWd1nm8GnQxEMKudoC/wfSr9Ad8wy0t4Mzt18ox1GusIePwmvaNMSdW6V6aOIIQrZTWc/lpny179rRftN37p1+3iKxdso9GxreYGyjAQTWpa/dDDADpLPGvJ3gRoGLbDy3hpFKsgpXZJAcx7u0uNeJ6PqvOyIX0p+ztXkThppVi0DY63U/QX1qn2Zb3UtvvIG2kMiaQYJ8DVDbtcUW63Ogq+OHb6u3+gF8ZksgMS9sEfJy2lCfixy5SU8imYrSrxPkOuhPDmeXr9AS9Jo909YLS2ZieeedZ+6i//FTv+kY+ZnTylfTwYufoNu3vxy9bbvWMbHRwAO0Qg4v9TF5KS8E+aB6qtjwcm3hNBA6pjxsvHIre3txWMrG9sWKcDpz7mDa7oPKWVHFnSmYWhM0rn45+7u9t6auLMqeN6D0YDZXodOgZhzu50PTg3BDjVwl6YMuFjjsjrJj3xq0R0Fv4h8RT7gOrtVJ8H2E2I69eu6t0zEYzoTazoaNoLO7O6NNJs2wCD0AiBwbTWQWDStEtXEIy8esFeO3/Zrt24Jcf97uefs3c9+6Q9//Qj9vi547ZWH2IKgZk1um2zxlUJrlbygAhE9Cgwg5Fon7eRFfTNDKrgBPQYZb2Jk9WxKQbE3rRh1+4O7I23bto3zr9lb1y6ZldvbNupU6ftPc8+Ye9/9lF77rFTusSzVu9bY9rFINrF4QZaSuUvB3sw0nJHiq/iDbm8t4rB+4mtE7CNTdgFghGd66NLPBVKIWYd55iB56Q/stbaMXv181+xz/zyr9ul1y7aOnTfnNCX8kfy/B4JDs2Czlf0Gz/ihE9ZyW2nc7qipEGIEzvOiOFPKR/tRf0Lf1wtYZ9xX7rasjpRBvcNlI+bulk38XT1AP2nw8tW0ImvFiEQgQ7kOlFPmtA+zHiyqkQVkLiqzsAqnuQbwkdOMaYOwBuvr9nxJ5+2P/YX/pKdeuG7F4KRG2/Ytde+YG+89g1b40yIg4yK4+DsOuhGMiAojYrXgMRIf/WJDlaROuTjKshet6tghMusfLSXHYxl3oGONvHMMmagPug0dnZu2xSz4Hc995Sd2OxAWXxcFYMkZjcYn3xo5KUY7OO24g5Vc0CpiwW0GQ7x1dOf5MWH98WQOHuRBLBxttaDEXcsxLVrNxSM8Omi9loHPC63MphFXYqK6gxN6pgpjzB95kvHGo01a7batrPbs8tvXbErV6/Z3bvbsqvnnnnGHjp72o5vrek2nbEeA+5jJmVwYFzihB4R79S4AMPAhpDjcj0T7Ie84Zwzb/VL/GcX5S/26qkdBCQDDIs3d4d2+cZdu3z1lt24tWMnTp6wpx9/yJ5AEHRiDY5jyntUEARBgkadGsFB8F0DBB66EZEvecMAQx2NhwPb46O9/b6dOHbC1lrHEbdwpcive1MPkZKOGk/8DnQLlY/3BtZpbdirX3nZfvszv21vXbhsnToC0L0+dNnSJZsIRhg0eiCiHoLUaYKa5TmtIpVtvRcpGNEghDBMS6fO8yAWshfiVVXOoAeTlxS+ISjGCvL8MgyC/LV1+VTqgmNM1PeVkHJs0aWaB6Jq6i+0oAmMiF4EXI6vcGoMRoaYxG09/qT9xJ/7q/bQxxCMnMqCkcm11+zLn/tV+1e/8H/Yp3/tU3qck6LywBGETGt88wa57DCeS/pbWaJBhFGE8dBY+EurjGJbcL7sUFolyAzmSBN0wMGt30NkiyCDqyBPPnrOfuonfsxe+M7vsM02ZnpwnS2M0rxkw/ey0JWWJMsQimBkDtUit3Gc99R3eIo5aDTkFNLAQRvhH3Dz+i1rdTq2vrWVghE4HARm3K+GEYfH4/1awzFmAHpZCe0GAQmytCO+/2PQ69lwMJCtPfTwGQS9mEUrGOZ3MPDlsfgvXUceT3Vzm686sT/iDKg/kof9FIwQCIO0v9s1L9noB/caG2atTeNbRXYGE7u707M9zObXNzp2cmvdjiHG4EqIjXetVUeQiSiz1vKh0xpt+AO+HI3vUuEjwwjWphMb7O1Yf3dbgdjJhx4BD4EqBl7+ZP7RJp5hGgNOchPyUkf8AaLOur3xxa/Zb/36Z+3N197EmYEewG/UoTN8UAtI+9KmgLhvhDSbHY1ghAMtB9jwnaTRcKiVNNoyy/gCsGIloLL0YPKS8nGEFGOFfANkZrqxwfsiatLFEJM58riCxEsZ1AkYfoy07/2pqnbiJJmmXAVKgRf8yQQTmS7HVwQlp5993n76r/2Hduo7v8vsRBaMDK+9YZ/+1X9l/5+/83fsU7/2OTgfXt3x05G6DZyfdyVXQgpGtL3i5EKFWFKcZoHYLgIQ1jkSwj4YcRmZL7+jrySee/oR+yt/4Y/Z7/vej9k6Z+pjvtDLV0YYlOiyTVIk/4d1eDBCp+NlVSS2jK3Xz4sgz9Y2MLDzZm4Nx8hzlYSFTHh5pYWBZ2PrmLXWO7KViQIADyZYUb+/AQ3W6/E4H4MCdEoeD/riMXlpcASnxFers44Gea46aGmb8Ye/vp378rKp3owMsFVc0p/g2Fwlofape66M8JxMhz2cl5kCCsoz4yvpeQmgwXtIMFufwiGMOFNFMNmq2ToCSq6EYHqPYwwVFHFfvg5/xM7PS0zMwHG2GIywb/BH/Pa2bdTdRZA1tc1HHrPaBIPpjFENNXjUCZplx4CzlZJ1Saxtr//2l+wzv/ppe/Xl13Q/wPraBop5Pjn7ZUUqlFZAok49J0IwEq+EryaxvSl7D4qJW74yMmQwMhrJt5LHMval5CAqSg8mL4lyEUHuC9ArwSuDEUwIQAzWqA/y8lWRqEueBvL7kXRXYf1RPiRsoeISyDgCb48rQ2tr9vC73m0/89f/L3b6gx81O35SuygY6V67YL/0b37B/su//V/Y577wDSgLTg2F3nV83lvOffkVsiRtVdmcHpSgJ5cm7AnbNBAqFH/vOKIL2cRplq8EnnvqEfurf/6P2I/8wPdh8AJv3NcrxPVODVTgUzUcEEn+n1bhHL1hlJdxfAuoFrFFUwwCvEWZea2KIFhoYTThCpAufdAI8Ecprt64jWBkwzaOHbPm+rp+36V4WoCioiIfY/Rfs/VLGnxfCx9xo//gDaF0NnyigLNF3uhHPjXGGbT6F4+ZlrXJaSG4aM1GOjaDkVG9beNaC3loPw3+DEZ4Tvgm1w7rI6Dg+z9mCDrG+IJxDWerhv34KjYcF65P9/+06lxR4Y/0IRABLy5XTqZ1G0wYZuJ7EMDwd0baDK4gRxvfNevt2XDnNgKSbatj0G02N7EfVwq8PUeX3IYZsI01qKC/NNs4lzO79Mp5e/Ubr9nVKzcQSGIA2jxmAwaDNB/omo8/c3+eb+qfvKD61H/VudrBSNneg8gH1jJPe+J9E1wFpNRcEWk2W1ppi3rVpAeTl+RylHU1drC3ooD9nClXisp7SZiwD5LStlLqx/vfvYkG5N9RVeKPrHI1Vz8QCj2O4COnDT6bZzZqd2zr0cft3/uZP28PfQjBSH7PyN0rF+z/93/8C/tbf/Nv2kvfeBPRG5+id+dLRDDi94xwqKL2yvCkSrTs9CzjpfMvktPmJm82QqolcgwYWuJ2S3nnEMTlGeaiIlPq7rknH7G/8uf+mP27n/x9dmwNThPnXu8P5fs1eL/EUlvgnkmv/PnSsKZlJ+OQSfdWQCoO/Rx+GYzoJ/3B5Y26yVtoULl5/bY1EYysHz9uDQQj5EUwgh2QUC8IZLAb3yFANm1InRF5vUJe9gYHDT7vJVG34neklRApDcRAhs8kcOWiNhvo2AgXEIx0/F4QngUEGaqrlRG2dWCtGoNEDJg4Lr+Hl4v4IPaY9fkLwzjuDIFLjS9Sk+QMLH2dxZuCM4pgajTz75j9/9s7023Jkuq+Rw53vlVdxdDQDdXdIGiBJECgYbEkgSVkCdnLfgB7LfsF/MnvYX/xO+ibkReSl0BIXiDLlrGMEDaIbjGoAaEGurt6qK66Q47+//aOHSfOybxFNWp0T+Zl5/1nROwYbux9InbsE2dIhezYjDGAk/O0z+/vzM7TyQ/+Pt3+xtfTK8+/kHYPrku2q+GMoKPd0UCq8B3knZ39dPfkTM6bjvnxQ2lwcGRa5XLEuZwSZofdFG6Lm6AGFjgmsdgpGOLw9d4ZYQRDF/fRHO25nGJ7XYLGFO8VkR5s7aSexjk7hjxl0m/qykt/I4TaPByJSDaXoPykQpNaK7BOJsQf7vKyRH6XSnNQeeyGmBGhmeysOLpEgSDFe++M6NhjM9jpnfvO2ODwMC25b0Tyzgbj9P6P/GZ6889+IKWHqp2RF5/5ZvrMJz+R/tN//A/pu9+77WdlymQScTMeh4TQVYTRvkhhl0+dQ2amMUIohlfd+ygDj3yDzlh5dS0LCR9/EuQKkJTAoqTpwjKkeErvesdj6d//u3+bPv6bv5GuX5ObghFlgp3dc8WVSVuTZQgqa/kaTWF8+0bmDcQ1e/UV2eSMWJ+JY2hEGJyT527bZZqda1p8Dw5NPMs3cflSec4CiVte5pNlRFxg79JuJMls2uD+G244YQJr/Fk52jo/UZr/QWHVk0PBj+1xhLzPEP9I+bB5cSGvgNei4Nl80Z7K6yxeK4TK8Ip4v8fE5QRqg3/BWB+q7AiXlJtSVRdHnR8FnMgBPT5UV+bp7je+lr772c+mL//FF/wSjhlT1X3diTZNkTmELolndkBOpJxwHnMe6ix/vLufXrx7kt725LvTk7/92+mtP//BlPb2UzqVrgg5njYG1AbVDcQFdE6bAcvsE2W5GRh0zZIx5uq+5nKSaXl+LtlPNXXk8O7tpQHvkWDMUZ6F10hxdNJbop8xOUPwCKGaR1RxS+qLeRCiaVFmfi1uvyBx5WoeH6fE26xx3MljvmNjYs7jnISuaypjo5vRMwr1yLG2Y45ezmS/zjQXHrqe0uFBOrt7L9199vu2O7L/6DtlTx6yKuaMvPyVv05/9sn/kj75u7+b/v7rX9fJrj9bMJfcU+mHX9rjOXiMEsuTe/hsO6O4flF9qPgZ75HOCh0+gbiaT/+X3N6OEcZzFbEuIOJE7JfEunnrkTR84/V0T2Xv6mzwSFbefhbcSm8xafBwljycnulMjZtYl+nxx2+lf/Ov/1X61V/5sMaNBg47R0ygMvLWEUcCqIyNkzxW7lflssgGDUfWIqYDxrd11uR0whl54dvfTgdaYA5uviGNMCpMOiufCQMbZzrBzs06KWELU07WRDulTo4Q0Id6rpkR18Q0REPUpRwVFJrRF8r/QT4BJ8iI9oT6f0JWH5mq9q2pPGdgscicz9IrT30jffuPP5v+9i++mI654VtFo/XXjaxvCEEkQuiSeGYDdHYvJxEu+uSy14vTSXro3e9IP/3PP54e/cUPyejKCUG35dKVSlOBY8f8gThGsTjHv8lZ/aHcP8aK9U1fjPk6pIyNT4UaH/O7r9pL9fgpiZu33m47Ia4DIeYL1Wwc95lC9vuRZAg5kIs6zDGzkUrKYU2ypS997+/8lQBveENKB7IbLKroI+9sWllYzD+bgwECy1CIDnN5Ox7ovI9EX9VP636WR/PDbjKUDk7PztPL3/9BGh4cpzc/9p40vC6dUAtnZPLVp9NffupT6XOf+EQ6f+H5NNJZlf32hOryK3szKZu79znt4iYr2yngTT9lgPaP0ANXB8ZyRMZyRNwZoe/IgmwcSN+G510ZtqWuQXQmxd3d2UlP/MLPm3GZXjtMZypzPNizk04bJyY0kQih7eAR4/LESGfOc50F37t3Nx0dHqaP/pOPprf91E9pLO3ohFrH3jx4CvtNmlaxEImaQdn4n30lZBCsm/RXKHHvO87Is888Y498X7t5M+0e6SyHOtz9Cmn82KVMM0qVBkoEaiXuQ7nNQnU62iCMeOTn0AJ9lX/X1PF7FRweZV5YlvefqHiWZ+IvNWd0gjJSeX4emB2Bs3l66avfTN/69GfTt+WM3JR52FcruaXXgXJ/o2MWiRC6JJ4CZBzqrNb8OunrTA7F85ovh08+nn76X/5OevsvfSgt5Yxga+xCmy0i6N3Hx1w2Fd1igoZ2uSK3jbPHv+oV5f6x8Jka9GWOqmTKcpV8BotkOLt3J9196bZOhs/So088kXfMok5epKgW2GTKc91tR+hKcmILlF5Op7KjJ+n5H/yd/ZDl9Te+KY20CNsvZbCisMNJ3TiB0aCwk3wNEC7mGoXO0bfpXsSz/qbzPhI9H9u9QhCbPvazGer+YGec7p2ep9tyRsbSw1vkjIyO6/eMfO3r6ak/+W/p83/wX9NYXu0O75LQgjTXwLJf2ZMjYtempQgm1khVRnbTG3dOWzu9Ig7RDMEVsisyllflzohfFccRmQ91MM0Z4QY+rvByRT6lU31P5IC872O/nh6RQzJ8y5tMB4Mp5VTA9EvLRCKEtoOH+cQZ2R0t0vT8NL34wgt2ve89731vOnjjG+3Y2+9MMPGwxpooOCNR20lhRCHL9BL9JfosIJevwPbno8L7zlT5jjkje+khOSP7ckZs8cYvR9682FDOknz1kOxmSn3syR6J5ycYklrj3J0p53GsXfyFTkhkD8Zy2vm9opnmC87IX38z/e2nP5f+Ts7IG3YG6VCFrc7rQqZBj/aJJB9PFIUzgr7OJPJzi/N0YM7Ix9Pbf1nOyNG+qW4o2+P6ZWxgR7FNOCOcJMkimSOLwvWNd9I7kaN/uW/FGWE9gGFMG0vYU4zkiZyRO3JGzs9O0y1zRijv9penhqxJxmBU32DiHq+44ZR5D1k6OyOL2TTNJqfZGRmnG3JGxgfXsjOyo8LcT6Py1KUZe78PusaGeHsoatBxRpZ9d0a4p826J1+BrvPbXeq+OyNn6bnvP5d25Iw88th7O87I17+RvvW5P01f+NSn086dO2l3zp37c7vJislj7zTIzshQi/qOPJ49nQn444/9IuTn8tKE7ioMZ4Sbw8IZQS6cETug0hiPQjIOpjIwry6mafHQcfqlf/HP0mO/+uE0fPStKieDc841dhWy8UFpIhFC28HDGWEB3pF+5lN5sC88n+7evZtu3bqVdo+vmSG2iWM3Ygp2TTRq+6K2mRQLsY0QUiZU1xn5VuWMHGZnxG63oIDNNmr6eAJ9I/rZOCNaUCUecwM+i6TrwHn223xWwZ2RmRhDnBE5o+PsjHzTnJG/Sm/cHV4ZZ0RGc8UZeb7ljHwwLQ/3WJrlbMgZkc00Z0SniNgm9KyKpt+dcEbUlt/Uav+lR5T7FwufeRAsiNnAWodNOoWSeCRn5O6d9PJLL6TzyVl6HGfEykvAcEaMuKFXQe/kfW2ETVjnjLDLTnpenJHvpINdd0Z2amdkyPOIWJl87E3PAG5ur3ZGTI+Kqlwfb5PIPdafnBFLLNNYY2IhZ4Rhz4sT752fyxl5fsUZccmoNZch0cLMFc5dJfeFA8l6qPF1pIkHjoVrFs4bTGdCN7xk3nyWjoRDsABzpSWD0gdKtzCfpCMZ22PJfahwdzpJO7z/gccupxox52dpeXo3HYxH8mx308H+ntANt4e3v79j775gAeIpo/p9Aebq5glnL9SSvu13XZiQ8C1vg5FlIYo8xRGxbPvqgIAwlwtYGxk1vxegr4FM1lfCDKNcFp0EM/Is5KvG1aGyBkMKSbPw2GK0DtIPCwu7sGWMdXVX9NxT1H02uZCjXcRgX8gi+1DLW4DnjptGuc0HfsiDwGSPeWfHOhBtRbQqV+e14moz9Fn4PYXtmOXAozZ1cDzCiQtyZ4RS3HmvhZyf4uIeel7RwgIduKYi16WfawLpA7Wzp9o6IeoV6NO++kb/joD6CpAHRJx85NyT7NQ50Hp7JByPBumYRxd5/GpXjB15pSrLNa/5RJCjstWYTDQOJvJgR/4Y2o50EQ4JuyFA+sDw8p6F7oQwo7tBqPsexOFeT5wB3j8/iDLr/t/lw6ktg/d7Ha9LLldD6KNT8ScEtYdUIVdVZLYLrD9efUFz7FfTPxqt/o/NRBzLbjp4Py6K/9c3NPJfTIyZfIpbyGwJxPsMeL/CkOvB3KDGK9HBdJrGWpzGWngMig+FxXyaZgthCSad8LJ5EznfGbOpgWedwZKbcy1PfB6BTDPJojrTszQVZnI6kM3yeBeDvHjex4BrNxwKhNsMLlkp5F0Zi/PzNOX15YK9NTDuFRHh1ZYdk0xdA7UxkEgGnY0EmjOTOq4yqmCwlMjiWWeZ37QT6T7BDYbFEcnFEkWfC6Mi10OpZ+lGZtt+pdiVIU5QEDo0UlGcsQp+9mpMwceR1wCu73ae63EzUMvSyNAg+JFHCDW89e1uFuy9QBnE63TD0zpi8madlAZCFxWrwHVksJ0UL1fTap0eQN3k3kpPS16uuoQ+YpeMPBWwy1lW0ik7I9y0yH3fNKQFCackg/tCxgodxHmkjZtbF2k6WqbJuH+gX9x8q2GQ7Pq4wOO8dg+M+r0gjzRa05k+8ankOpfzMZFsU2Epx4ZHGO1XWW1QSC8K/fVYWww7vpo4sQWg485P59tAYmLNpRPBbvwdMmooIz0aYsBtGOz4EmeihCwVzBAQ9/J+CSf4BEoX0FaQl+8XkGMNitzI56jrxbZwGFQ3NhlUF+VWthyhAY+7BjwvMzP0VcIO8nhrLmMA8up0n7Cub8iR0cr3dMyHUs7iTX6T3nKYM+LyNqOlJvh5zuVxUeuopcdu2z1G236wntZpR8uGitwZMYHJFEOnOdyYZbvyWtSJ246AFnEPlR5JbfzwjTDbGfUO87GDF5ct+J2NDOcTks5l+FVepWeSaT6WenbHaak27MZlbhLS4LAbrXBK5JxsP5BTkPy8iRaHYyyHbVe64tibM8JuE5f1zMg0g4sBF2cHm4LGY2cCaR7IcKxc+6+9+yi/YjgyXxhaebWjsn0D/edR9hXjYHJ3eCtw3bTujygGBZgF2W7YKZ3UJdi9IuKCZplRKuumLCJ5PBQdcxzW6TYfo15CfWzFrb8OfTWwdAetMg2/1eaGopZnLTQeivu6Lj/rxdZftQd8fLgt8jHTlKvRR/3pq4GtJawpdX4+saXvhBUxw6wSvx0gsWVeeRW8f8Oxd3IYVMbg/IVmYh/Bq6wtLrE4x2eDjPfL+IvbeEyZMEN5dne7woVW2uXOThru7RkS79Ng/1kaogy64eOK7IZbxAsZz87SHHATr/JRhRXTV5kcjB5nZkRbmwU3qkwWJkqGjSDkATGBVB79mI4EM7KeF2005UEu1yP4QlL3MfoZfc95YTjCOYUvfbBTaLuFgdDHVaEsrqmMqOZFi4wZBaSz0F3o1cI85qxMpctSbxNQ99tlassY8fuh2+bmoXv415E99tzVR8wrszvZ/qhMsSE2btYg1/M5vNqfy0ZZH5CjltH6C0/gRaOUQTf27eTOiEjF9Z0vX6gEr+XgXR1gCkYZQ94rr0Y0C0eLURr3DPTJHoMqj5P5Y3UeD77nMZRmKEopvy4x5B5e+5VSfqi01HPVZMVeAbAIy3HDAeEH13ZGgzSdntuNrfDst3sYWLY7orCFUNYGISYKKPxMEbXJhvtqiQzqON/RbaOPyGRJ+lojlzFDQdiw/Etl6nGSDQq/oXO1qJKX6A+Tv9aj6ewCvfcW6mM9VmzMKwqVMQ9IZ0S94DcZHlobwdtwhA4uAictQURtoa4g21Gc/NJuRcEyNl+qY6gz+oS6bx7nDedOwcvrSEWstkZWRCnAm1fdEeGlZ4sc4oz4/RgLa0SLlQr3E4PEs/12J8zSn/MfyElBOELSnNIMohxlBN6tQF28sWiD+Orv0qCtOoS2iJeNBDaWhcZu1jPj4YsxcO83l6V4kE3ADq8QeZFfh5fJy10zyh586WcVtwkknaiu3SNBG6UcOsG1pV2y8tlByYdZh5fPs2u6kJIGEXIZSFCuZAqUx3CaHhqY3IwRr/VjoBhx/QKSowEmicnPHCELQmWiSDYUY8RDi7dILVbHaN1x+8fnqVsgH++cEOV8I3iRn6E8mwNWBhDPaUIjL7f+/24Iz5yJjCITeYJkdlsR840EYS4f5cyOih1kdXO5guDlglZX6dJOHV4mL3dRcb/k5Hk2YwZRhgLMjzxvMmm1FSnNess67JcwuDwD5JAEcEYySNMci/R6Z+Ay4X3iZWfE7aVnme88fxvrSMLZq+LleRnEG0vIsYQby0EdKRyoDA4L9bh+Z9eAG21vL2xwteGyayCtLeuDzO87cljZzN8cuExuQLJsRc5chnwr4/kuby5r+V7GUNrtD+wYhWzwqmNlBjMQMhVZGrm9fmThePnCAzu39g+EtEpbBi4J9wgSmg/CZ/EFGUSLowNjFD21dC2URSmnNweVHHaUPO5jJvIE418A11hOR7sbjpBJaM2fjBX9dFHVd96a8pa3rt3+gX5Z32KMCC27kXk+e6KMkzsjInuTpJL8VEI0xaaR3XehPDbkgTkrNKUJ6FDdlfAyeexyyOmQIKMasmyGnDaHQ+AtiAbiBvKkCcGe6JXAFg/r2Pyj7YUNEI6x7xQELM/CasDldLPleDFioPYWkrlZPC5CyHMRb027PUK3rzWae15Alu1Bxr2NFRbrpvg/DB0HoIfwT6jA5Q9HxNASSPoM3VY69jnVYN3x6gvqfq6f61lug9fh6UMlWnxDthvd/7HpCJlMvso2Oq/Wg+CjR39NuYDb26psJz9Q/+8+oqWHdeOAeEXZGXHP3kj5zQ2hlK8XfOfThDsmsYPSH9gv8loPTRD12dO2syHYo8uEgjsnC3dOLM0PxLmzMhASr2oG4lmTV4KQtRosK6jy0IsppsJKeRB1VMQoIoUhuixeJY+F8kBbCJ6XMUNh90s0PIO1meNmrMm3fyCKSGGILpMHMBgd5wt+SXd1kRfPqN/KIy32FSIzCVlstzBZAc6oIugxxolbWjfUkQ+fEF4Q6TqELotHv3LfYFtW9DXyhDJmohBzJXg+frxMRmkDIl2H0Gbw3B408vvTRQ1qx8KOe0sPq3rx3YNuOcVNX025NkW65l8Wr+onuij66MqU54z+gsrOSEMDKSQjnBTFjW95MOSUcLmGe0iG/cPMHJNaTomNk8I1q1BWQfBknJWWZDld5xNeRZLcMYhWdBD6eRBsAqmfdXcjHukLiQIxZkJPP7RSz8j77KcZr7H/r7H4aye3Pf2CKMsc4v9wFdQl6lqBbSLk6dqMkDPmyRWj+x7i0I2jGmUbTiGTjjeBUSNnlxpnRHk4Gn5Tp8Pvv/B7Jkb82BzAC8E5kWez0CLlP6YXP6oX4WXyZnJEeAR5lmbDDKVnpJXvIWniQlLZ/PEHmuXJim8/oqd0M3mAFFR5dtsNF7dQ8HO8vY3YwHaiOrxA5PUbTJx8rA05rTxDUM6Oeq2zgEztdvuB4lzWMt0PMfYpH9vz1Zlg5Kt1sV4HSIf+2Cv/InZl+wU71EitRPkQrwtdgPuVKTroIfTVQYyBdXzfDWjqOa8p46jb32RAdVyRRkb7MD+yDvJ8aXQCVDbbDmvD0C2TywXKPOkj/PgXsngtA0lksNxC1c4Iux6+82HbtyrMr+xzXwU3e9oNnwacEpWZs8077x3Y+lrKxcDhmKjzE3V2IodkqnCq0NMO4/FT+RHPwElZymlBUJwSc3L0MT1eAdhgqSZBDDIvkAeUUfDWoVu3aa9/aCZSQ8RDFqKEuTxjoZ5cQbmNfstL/yKMvjoiXfrfPb4mo9dtiPJxnJuiPzKsxUAPP+qk6SdTyN3ElbgQ6GnNfCpjqa+gv9H3Nn8VwTeFOEiUtCebshsOk20Nv4B8L9PWXZUXSillHY2+V/P0JXTb6wfac0A862uQj/0iQkXujNQZqqu1N/HT4iPxtFbnnZE27HXxi3kPgfD+ODKXbCYSoEDOhcdxQsIRUTkJOsnlpxJ8Yq+Ml1JVZqky/pq3+DTq2krwZdTdts+IUWQDLccr+BZjty7HxHlxn0KvYP3zPhrEayH4KuPXfeHnOheUI+yjvN5XdS8oumy8OoFsIR95HarbaoLXEX395P5J9kb8Ji84jX5y2tAdMz5ODEqvO159QS1H4Vd9L2ilo0rNCzT3LG0yWActLkEDRUbFPZ8TfCUhY3teQVU+bMcKdeuoXLcvfYDLEjL4eHenivlCnlgXUNkZsQgNqnT7mhUcWqhbqf8xgFWHl8eLLOdJFRLE3pliod/g6pk5MCD9UGXAIM1G3A9DXTLdEaFRV7gvSNuMZhFymZlQNrAyz/ntNIgB1wy80Nf6/D6hObae1pcQumjAbOAmaJfJeTHZqNN3efXVkbFB6MDlghehwAxRWF86gQikEaXb/+f1QW3I6vCyeSjAhSfKjfMzJZSbuDfN5wrAdvjuql/29fnlv/lFmBvIiLb7CMRyKG0fdCG52I22y9n5BYjIXZPq+CWIyMthp/2NhcnWAF437fYg9Jd1EvrIu/lNmrKr8HaVj/6yDksfegR9ZXn9d91sB1nwseJ9psw6Ks4IxCvhc1VDDDMbaoNyR4WVgWdl1W6fYHKqY7wnZJjfFUKah2Msny91fqy5M54O0+5srPhYvLHyxsoaq/hIUmbVSImD/Au+rd9u2VaUiVHFpRHz+AN13kp96m46Qg5kFeweCXgaCya/0sjKrxjbPRS5fNYPT9uUHxfsJZCphngrqGQzuTxYzBdppskkkyMGbzJmvngJ30P8cSDu6Gru7LpMHhYwTtaQHUdkqlXGT16ck/ihzeVEq09GAm5HRho3o5mcEZ7UizG29jj1AdG/LBqh8RnfISdhwHUzkv0cMT6snr4YS6Eb0w9tbAFCMevyClTG7rNkvsS6Ir7GkiN0AtAVEMtA3QA6R9+AeLTfQ1jnQz4cFWyi5DO7KFlEnRewZs3ktwd6ESfimBx3SxRXPrsMAXgMO0fEL5+XxdRZh99sW264rYgUTopfcuIeGN7KKgdEdezp+IHO9PKb4eJlZ3bG6JrYftiA0p+BL+lBaAZaZIZOKrIyXV6FnhPeu/cfZHkLYCvs8o2U6QrLaVEV3RRi1A/Vb1D6r9COP9GQkR0S5huhDAJaiOJXgez+Og6/dMHTe4B7y/xUDbgh9nvOhKGn+cVz2x3JdsWUForrswLX9i0WG5ALSHTGirRjn9bAKHOH8nXGBpOOoe+OEM8Iymlsiq05fLMWcdxND1kfJd5tAKrKG7LjYvFu2R5R7nOszg6okSUvsYVaOyMuN16MuyF87L0dIHiRb/Cm+4aIYDD84GM0FVTwfC9j5WRQMaxR3tugMGUIA1LkVYENGj/WJrsrxeLEIk7ZsogXVO30Hs2YhnT0jWeoZF6LrImVuGHd/7pc+FZpxSuGosO7qIxkxA0hrKmxCVcEWX7TRDYZOaU/4LrDOfH95Kaun9yEM1LD62wOvN/IVHimA5SBUoiLcjnLW6lfpzcQJi866MyrDHdOs/yhAyjGC+WsDMkoF3FConw1bVq7Fq7yLxuhB5O7yCOEMKAzPILazojIJg0flSxvG6zAv2l9Ovm9g7xWC7v9veijvDAScT2w1KmVvcWIgVXuf2BcEBYYI6MpT7roaVGBdI8RfQdxrCNtMIGdLGW8THUZz7T8df+nT0DmCO8LMyrttBsah1sE2mp0d1WA5PmQF57rqBkL9TZ7U8Yyc7kGrsceo57TNq9DpmY8KFH4xEu6yBv6gU8b2weTr8ibdZHjFyF05qCdJq0vodFvoPt/+4ncV5sH7f53qTgjkUXYUedaWBlFuvw+Y1WuZZpLCK4Cr/tYKVPg3MMH0sz2ICZD6wwu8mue0JwtdwGt4/cHdqxNDo51ht0zwXHPx76Wt5QXShlvpzXpKNd3hBwV7Ky9k29jAcce+eoFFh5xlfXvKwJ9OVz+QGbmUlA1f8x+ZMQ4Ky3W8b4C6vKQQ2ELec6Qb3ITZnnr/Jb8G4qQuZvuwOdI6EAodkILts0hrUKdOpHvNyDQfJN3sb3tCdRHd0ayfcw8k8eQN4cqWnFGgkjfn9dtqr/UlaNN5Oqgt4xBpDNPf3lnyQbBtqPRA6h1USFPlHbZde0EtfP6gqbvyJKjXbIidVmIMNcxirTz+jxWGjleC0K2dbiaVGvn9aB1x6ovqKmd52PdSeXMLuSkEeMjMwgCom2wpzEHuukWzE4+AK3Y1HUUeat96QusfyYLIX324+z6yIw15M5IHlEULZdl+OS4Xa6RKyM/xz6ERWX8v97C+1t/TI4sizmnyEw8wz5WOQR0z7QMqvY/2D6glEDFN4NT5wdFmXV1LHS9tXZXegTrV+43nrwSiuewHHPi7XoGq6e8RcD5jCSvW5XdNHSOpc0FiHiEld7cVuSi2wyJ7kfXl2DSYSc9IaCXgPh+Jsh4yGCsEMY4sbEirOi8T8h9NPwQfi2T0rbTFmVCSd06G4xiGzvxQIwPQ9iKIn+FoFwPnust18txQ2knyvYDfqzpL/LSv7n6ye5Ip6yNEcKGWveM2I1YNBTIn+5C3bqPpI8f61sjN6jtQ4HJTA1PU88Kw6njlo4DT7jdiKOthKGll4zauPpi1G4j4G/GXZ/XB6z2O8taZM5k6aaO1av0AcqZQalft9tPdOUP2br8ApOPeCMz8Svzkaxm/+xj2ihU0q1jTzzSzbwJ/fr2PIjy/QT9vv9czjKigUreJk0cinRVZ6Pxw2RA7qqMjRAAwWdMZNvRqge8no+N6tKW8bxuzesD2uM495mVNvob8lu8TSs3sEJVlRXkptfm9Q1rNwHlcQFNrSJHTWFwTFkGMcN7MQUHf0uBwC1edcTX8bpo1d0shFdv6QeVp1WG8YHRrnn9wwP1r5ar0kWjI5c1eFBVcuvRmgGS322GJZxraelGdsOuj6swsEpVftGjV868DYP1PcuQx38ZY0Y5XngBZK/4G4kfIoNk5IUR4Wh4WOdn5HhrtSplFZp+16BuqxegT9G3gPORySmHkcy01hm5KtTRxYXE1lujyCtEiHzlxEZgJlMIHkq4nyJyeSadlSMNNo/84sNP6EEojjZ4bVTXrLGJ9Br6bovUpsv7o5I7GC639BCLdOGBdXRR3kXl+0DhUHm8bU8r6rCKM7JYLNJsOk0zKWlegbSB/BxnKwY98lbTvoKNjJJGvuBJQwZpQlKk2Xwu2QRxeB+AkcpBNngkq3t2EWfrabuBR25bstLHUDrgfbQmO9f+5jPDktD04d6+e/GrbfUd9uOKjBBLuzyOfMxtRyzgOmn21bxc6It69sjjXHyrF+32E77tXvFspiBj8HljomMA7A2RUdZ1YGd9Gh+orDXnthg+LGQ7NB/mM157LUYQSphJP0BxGxsqF7r2sQLf9Wi6LuNvE2HKEBgAzAdCxkzkZ16ZL+LF/LDyUW4zYXag5uX5Yoh8EQutLc5FP0IsNAptbKCzGrnNstNkOnP4zlP/9OfrgPfP4RIWPZns2I2URp2tkFayNanuQ6jXTVD/4Id8Fe1yDbksDfmVYNUok4i0h/f/D9uDhpDd5fatxs74IO1FjDZRP5BNGuu7H/MI/fjXEFnZiqwcIbog7vUdq/+vD4AirMkMR40uGV9fdRnSpbBrcZvRyOhS28hAB/kt1kamDn0xVsgKiNvUhBTmpOdtIjrasDlAPMg0JGSe5Xna665rc/Ng1JI7EzyzCeQxHkiTIR2E85bzjFf0EzYk9Ou8ApXro/6Qw/ql/tlveNF3QhwokxdeLu8VChVnJNQR1z8BOwcrH82qQPcJmwgvmxdplydD8VZZZOAToZWzGg30596do2ls28Gg8YGjryZdxy1dxQuijc1AfXwN+biXMpYOSL4LdeB1zYCU8puDWgfGa8ndwPQTgGdx/+6rPfix8GRIHXBQhcJKT84E1VipoVYcuWCr7iZhjRwRX5GrKrc2f8NxP3mUZ3OrLoPeLO42w3bNCq8zHzcOPi7spH5lnCMjEKuiZmckuys2qfSxyaf4fRHl+gTrm8QPuXO8oFXOEYakgBIKTVuEGZ5P3najGSyOdTxftCseXm94+kK3zT5DHW5QHe8WSn4jY0G3ntLr/k9fwHHqPmJY8lpwWSxsoV2GeVHmk8pfDUh9oQ60ZHHXhZEzhFpXGVn39THZVIQsjpA5L6zkr9NDNsbx+OemQ0Jl2VweSwevxKNMoEqju5aePB7jqfuiwYDnr+/TZUFfGVm2ADMGPrMnynSoc9XGiardot5Mk0cYFGXrOpfFq/tVU91vwjreUOQERRqo9BoFbh3VInepy1tbJutpXd5GEB1nZHSxRiBYha3ItoyPllwdirxWfpsRsbrItvBiJJQ8Rer8FtUF19H98npNdFyasEUmKPNW5sqD8raZKllDZLMVIPKq/JIHQldr0Et7U/W5dkKKTBdT+56RjJpoDl6E7TJ5O6WvsI4SD/J4LcdFuyOmyJa3n2vaYrvFiIFkN9UpzF67eb3wIj9uWqp5XdTt9hzu2cexF+JsJI5/Ofur6nHzod205bpqjx9Qle0TdGxsO3jdMQq+5Umu6kY6P9aSV3m+nZzLIGuhav5tMRDZhodSIf6AEMS4MX2Jgr9Ox4HI2whIGOQxUtqQGWXc5zFjaaGeP4Wi7IbD5kgnbCHrgDzGRK0XID243ZANKXqsELTCU4Q2ewX6FL3LtpC4yZf7Kx3Y/mIuF7RmZ8Qr1Yu0qyh/jEfj3m6J9wh27NW3Be8TMZ4bj1BIlEOeLHGWET5KCuSCZTBdEWS9FNMrnhvapozpBlrDL3rbEJRt0NrZMMEIczqXRR8us8MCy4tyPnbqOhuFPNbXHkPl+dZ6kx9xx2qV7YXktaOf4zmj3PhOOsZVzqsR5U2fWaeRtzlYM8bzxKh14vxMhbfBc6SDciyr0OImbpQLeY3tVPI6oFBLPzkMe1RsUub3CnXfon/ddOhIolS04oyEIgv0ae0clI/K8qnzeoJm/q/PN+jjDggfk7zEiJcQBbYO/rbDFGeo9RU80Oatrxu8pmxdrl+wkUBIujUG6HdEiec6xSDAy/IZebpBLt9nhCzooAOX0WH6MV4lV6QF+2RdXAUY2WFWOjRgcU81ZIU6aPTZ0nfotYdoyd7Ka2Rqp9dD3wpoJ8pGvQ0GUnXDTrytv4yglTzarXmebvIC3XQfQJ8ZLx6PPvqN75mMHbJlnqhxRmB2QVDHV9DHD1Sn/eM9zoFQ9NSwMvQpmXCykhXG9vS2o5F9DWyQ5TJWNiPnM+isnVIml8tt9w318Q0ZivyB4Nflo04r32E7SYTK7yOKHF2EXLV86/gZMbf4iCPUnG39OJkxzekwrJZiPAQs1zXj8Q6sXKNPyq07Xn1AI0PND1kiXzBZ8hwoOoBy3GT2eN3+RiOOncJIB29o+iCe5a9R6SJQnFLCwofa5cBKP3qA0u/oJkSyQuF3qNoZiU15KOJkj2CIiIMoExQt12EPeDxyV7oafKjpv8eaKbVKNTdKXRVAXV5MkNVR4FSXdfJFueb3D9FHBxR5ULvsKqAur2tM+oboXw2Xn5fcgXLMqveYY1jHy7nAOwTEEs2F+vVNTawOt41Xx2qq9YlmCNeXZJyB0Ddo/kf/UM+RdfkXEzoI6pbrtrGpiONchxG/DzqOiGNdPSjCoG6Z/sDHiY9vpyZmRYwqXiY5r9LIU19LX//0H6f//fu/n/ZefSXtzqaaHHMt5os0l/9h7+EcjFR4lIaLoZpBYZpsgykt0IxQh9Bl8Rr/KqYOb1fxXJWTh0KXeSHLiMEgAztQlbms61mapJPlWRq+4Sh95Hd+Iz3+C+9LoxvHKU3PVWGYFhS0/7X9hKiz8/N055VX0rnChx9+OI2GGgMjX6pMj7XaV/RC2gvEp9+q8/4OslCDuBvRzmwIJYHiz33v+2lndzcdX7uWdg+OXC6mg730ysfHfD73ZA/ltSOhec37MRDZ5sJioPlAZzOs38pAMGSXILxDhPgAGTXt03ycXvjms+lv/vTz6Wtf/HI6HOymXc09NOANUD9CaEt4S+yfTtFkB1HZdDBPZ4NJenVxLz38zrelD/7Tj6YnPvDelHabutiNJYOhOTsyIuVOiA+hPhN9bff+Ihqks7PTdPfOnXQ2OU+Pvv1tPrbyOPJJwfn/g7W2CeQ2AxG5POHpgdYLaDGfpan08NLt59PB3m66/tCNNNzd08Bh7VSZ4VjDQmtLHl5OoRtnkvKdh4b6Ol6ix0PJP5+jj2Uaj8dmE/EjBuO9dDZbptuvnqWHHn4s3XzsfSldu2m1XGNGLrJPjy54IfjIGitQ0YWU3mzO1OFl8wIa9DKivOYdJTXH2+V0OaQ0ycEr4l0mz3a7QQ1a4iynjl8BMLGQlzu/TW7S/uui7vk6zxG6qdPBizjo/I/eoOmjXesk3rqZNeDurbu2WR6sT0kz+bxcye8t2M/AqyAMXu63HXuMh6DFdjGYSWZ/HfxABmYwlw5QDbU1d6bmqMf8i5FRh9vGk+wsILIf6ABNMCaGmivl1e72FAW6RZfMJJtNXpcqEGOH8WJzbENAX+8HlbFFWZLGKaBL3YWX3Sb4Ee7wsl78Ek7YTfTCsSfM+jC7UeXVsHESoGz7f/QTFZmchBlG+WTW1lmn7IzY+VKoJUNpW8hllhSiajBT5fL7LraIs5j3Ce5YgKavmAgzEzmkTI2mnNWp9IDuQh+hy+0H3x7HOWtCxRRCNmKUBHj1cdNwHXrcSjblrW7f0PlYnz2viThF0vM8w8or2sgXn0j3CzGu637y5FmRwRALr/I1/ynjlAeAyE0r82fdPNxWhLySHaADdIXOTCeumUDho1+VNazoOqNVs2fQl83pnG7bxpoXH+dBFsd+hC3RV+/l/VEgodo8/8TawVfJs7IVAyIpxJOsriQvx6e1BpEV8R6hSWikZ0TcOk0mgX+1qOyMmOMxzE4Hl2eEGRh6OFUISE9VbsrCvRzqfKl/mMpY0D9zLjT5W/nwNCk4Z/FzQpUT3+HlcUbIc+OhM6BsbK4GNOCBfRg/jexuRLNBFdr1avhkqkGb68v2Aat9FbvIaekMDIIZBcXDuloU5LJNW+v+1+Ui+urpZiFdaC67Q5Ih77PEM9gJ8G1DhYLxxWPXlPnTmmfbDvSB3pgHeZygw9CNm9ZsO7RKh95dl4SMoUg7zzbjCPsE+vQa+mVzwnTh8kY8xhZpnyfi9VHe1wlxbLt8049FiFOmsS1eh+zahrTRKtdb/amPeeDY79HkMG7sdaggqIgZU5EE1scdkaUmHZDzYem5OyXkW0lHifQJkt/CLnXLraP78S/K+wltHTHpfbK0D/raIbBp46Lu76qIDVX8i4ox1VrTLQpuLdwB9R0ikJM5XijK17SOF3QR/ye0sWQ25KqSXZ6aOuRFYCU4zZd7Rqb+FHbU484I8yuDGzkXcjrAfAiUHs4Uzi29BPpw09uoYNgJL5c3VjieNxgZuOks4rm84hLLedIXGM+Iq54wFAaElDPFhendZuQRYi6u0vmap10Dr+ORVh0GmA+yCMueAi2RdOQyvQKTwqLI6zAjUqUdlHPg9fsZCvBrxXFtWBEvT0jb9f/qBTguFiiZJ704g1hkA0aeb6IYP0cMpD1Ks322B68rb6m47X7ItArshsTuaexwuG5QzoqLcgFFqe6x6hdsntsi0g7bvMo2FJuR+TWv0/ZGQ/IsuT+oCguyrTTdqCzXHpSh4ZHtjA8WT+f2fEY2NGAcZfi4qv53D2FrQJFd+hDsfjPxHFx/cDlryjsjUgQOiD6+N9LEAz6g8j9UyE8C2134vQOGEdC/CjqINfwnjQNMpKbcSCFolTGZrxCyvLbFlnVWFmSbaLlMF5RvIQagT8jV/EuG+lQbDeLRZ5czo+SrjuZAU48wpy2uupwBZN7a/3mp8L41c4N4u0xxwJDJjnuOB7/KMyOptMyHsG4+bhuQ00ymEUtI+YS+QmemF3Qa4SpiXPV5frT6FekL0JoPrBVRB37kwav4mw6T6yJkXbTKK921KzYvS5kYD6vwerlcL/Wnfnb7302b/dSc8ClUqH2ZRpbFvDUDCmsmE+8YGFYKcyclPhHvG28V/uFJgTZPI8LgHhvKcpRBI3C3/FUAAwZ5426aZiA1+mh44fXWnm/Nb+Lr/lc/0JzNRH9TQXP8gZVnDihso81b/R/9QLu/NZxXjGfmuU487TZBiPkSfMWbOdadg/HZQp5kdwckxkfYzawfzoIVr/XZ1n/E+z4/6n7fHz5eQNZD5gW/yV//f7YFRcZYM/Mx7urAIX7yvALVo+4w7yqYLSJu7XnZdf+3D6BvLmP0vRkDPibcx+g6I3JQNJ2efjo99ZnPpM//wSfT8OWX087sTIvQzG5oVTW7EZTncAYL3jMyFoZpCEuZ3QYvn+ix9Vqdw3CQwucC9FZY6gxHXL+JRgOFXVed8kyWk3SyOEu7Nw/TRz/+G+nxD/GekaOUpif+7rf+CfvjI+lkNuE9Iy+X94wMB+M0GEkRjAc0G6ouimn7tg3lgj3VH8NAo0AxjXF9DxnYMI3CqGouCM//4Adpd283HR7znpFD45l4GkS8g4Moz9SPmC+2r9ovsmU0+iVhuTwz1Ly2yzWAY0hUci/yNgDzwwRTcrgc83INpcfpB888m77y3/9PevpLX01HaS/tLkdpZG1sOzFOuAjJ04XTNEln6d78bnr0iUfTh37rI+mJ978npR3KSWHSZ3nPiM0PdIdFYsRlpRqh6xztIz3oUJacZ2dn9p6R88kkPXLrlsZXltF0IIq5tUVDBTsQ4B0bvGeE+GLm7xm58+IL6WB/L127cSOl3X3NoYlqaS4N3Z6Geusl2q2JyIIYJySAyoU+e0XRP+lCsnOsB2NNBrF4V1naOUin82G6/eo03Xjk3enaE+9P6XjlPSMNwWTtHUv+kRohtPsvCOFZKZwULVh9hJwo7nGxm3At7mkPgd+ga48sR9rKC5TjkhWOjNLm1BgYDHV6W6EB5G+10uhxLxfDCTwv0K232fAzEnnyyIY3H3qweFOOnaJ440575yTXMX015fuIeHasnMUYn+OLEYlx7jLazpihOkMLua1sjAvcF8XWzcctA3aj0ZWD3VTlZkg3cQaY82xnmbEh3fn4aOq6vrcEko9xEmPM50UOI75NqOQKuVs85o0h6sAHHHfsbLa1GT7XGDMNrykTdTO/zN0+AbnquRFzBdTUTcu3kve2nD39VHr6j/4off4Pfj+NX3457U3P5YRIaE06/7h7MmBHRGc/C03IqbwU0D9SnzibM8XQd33bqR0UZyaIpnMbGYjFfJp2duW5jRbpdHaWTuan6ejN19Kvf/xj6R0feG8aXttP87N7aTyS/N7IlpMpxzz22dlJOnn11TSdTtPNmzfTYHdP4x+9Knssrx7lmlYqzRgPqrWVmT1VoPeOsSEvPvpoC0lGjnOm8/JzP0g78vT3D4/SeE9nOPamRVWiImc4tsOAjtgZUdA7kiy2mGay/koGexyV0ww6TRkZEru7Wy7JQsZwjmOiPM5AhodmH5975tn01T//Ynrq/z2VdtOemmWO9FLo15VQ3y43tZo6Zul8eZLunr+S3vrEW9Iv/NZH0zt//md01qbMhfSH7TGgF3QsMvW7fSoGe4vUdnZykk7v3bP5cuONb0jDHdlX7qHhTBk9kGZO2bzacLJjLJk4xuaAZr7ZBVizNJ9O0p3bL9iO6vFD1zV49lKaaAJRZyRdsDuCfqwy9RgMkYZymO2QkY2n/g6acv8U/dTauZzJfvK22fGB1tlBun1vmt586z3p6LEPtHdG4vW1ts280AItxbCztpyrAeaMwqTGNO/SkFCGaWHlpGg5LX2D9UuDZK7OG5SeKZwpzwGfsn7viFKFF9eBqUM7dlYjg+wDTcrYekhOP/gGnDq2C3mtsRlOJh/5BaQrnukJeH2DGdwOrzeQ46p+x41XRZ6c5zIFn7M+TAAGIctEPPJ5Dbz05NeIqd9HVMfBFsQ1/IylZMJZX8axNzspeSOkDjuIKjtjztmc2nJgFxRiR6aKIzd7QgN5JoMhrpj0gr4A+gn9xrgCqtucPYNcZhNQy7EOeRxhN821NT0oYvNEeZRhLHXb3VhkuWwuQYQIHMe+uSTndiOXr9vQGDK9cKJnOuwi6y3irXTfkPuHAyInC6mxmFzeH4zGWks1KuRvmIb4qsicESpwXZNMezytqC7AckRRFmXBdkj0//Q/x6rUN8TTMHWcy9/+9ID326EyksnyZ5o8lvbLUbI0aTlhcUGvO257NbC2HfpiQFhIWioRPIRtjmseTO06F8HbAlG+v/CueoSwE+cr4nj8AdhWv91Om9cn0Dd3uklnhqCBX/gOc0aIM/W14NpGintkDtFChpH7r2z+bDnClqCuqeQGLDWjnbEgO2HjwfVo+lHBWp8OOXrkG2q9d4/T5UNfrxF1ErvhchmZPoDLXf+fjYUJJgqZPdqmKq/YjJhAtKGTF39dAMloO9fJaU94W4GmbP/AzpDtYWhdXbCpgX+hbs+VB59H4adaW10pTuaMUOBck+psNk1zNbKQRwNsW0VY5HA53DEMBuO0sxyl/UUfMc5QfD5UOEx7ua974jcQz/gqM6fsKB3Md9LRcicdLnbS3lQGhnuMzqUtfi0Qp0/RqwSMLANnrlHEuLHhwpYiULyUVaqut3Gg/wYttuaM+61jwKhE4kqu7ZeZHphk1FsslIeeVNYmm8pZG/rqJ2QgWBMA6c5HptEc0JnADeyc5dgJi5hcqrM6Q8mNvZDOduSt2JzadizHdqMuN3Ojk5l0MmNLfiy7iDOisz+236Ued9zQM7joE/noc1vAHNEX0FpkaeZOzJXWuNt0cJyRyRDxCLNtyCBul2Y0dhJraZL9kN1AF5pRZluYcxf/nw701VvowE/PZ+lsMtUYkGwCNzSfnZ/LCZnZrR4Su0V2z8i9p76a/u+n/jD92X/+vXR4dpb25ZRwk56azIIPVdCfpLEXAFneRKr1JYqBRqkmhC6Hx0ZpXkYFeWVK2t3seWCwiGIlLGWjYJHGY6WGc3uaZrqcpqM3XUu/8rFfS2//2SfT4Pqh6kxT2lVRe4SI/7L9hH09Pz9J9169a/eMXH/oeto/vGZnwOHdcy3UnrAhbepXpQ7BtjNpL9A7anpG39n1CSncnDSPKLI8L9Nzzz1nv9p7dHw97fE0jcbWfMblDOYElb0N/Vn9vpHNaE7to2+aC/aUnN0zknut42UvPRRm+Wa7gRZe7rOa3D1Lh+OjNJYt+P53vp++9L/+Kn3l819KNwaHtlDzYjBvh/YjhLaFp+Ot5Gw8SueDuSyDbMZgImtzlh59xyPpwx/7lfRTP/Ok7Il0zH03Gh9uf1SJhQjSWMI2uZ1iXIlsDsUx6B/Rqwft2enpabqX7xm5dv2azROeMDEnlsuemiOYkW0gZCy7xZVQyAvZr9XOJull+9XevXTt5o2UdvY0gLj86SsoIwHt2iWMlqZpT9Af+wrOdZ6nHvSI/ONR0cBwLKcDuzFIe4dHEnKR7p2cp+V4Ly1He+meTv5vPPJEOnjre1M69HtG3Bn52t+kL//xZ9KffeL30ujOnbSTnREMFxMPD86dkZGMDY/vLXUmpIVoyYLPv0cpdQhdDs+cEU12pj88d0Y05c0QUI58L8cd7rjuO7uc7S/S+fwsnQkPveVG+rWPfyzder8UdSzlzU7TdCTDwx1rNLHtxASTkibnZ2ZUcEauXbuWDo+uWZ6vtoM0lac71pmg/ay8kevWyRVli192RiyrZ/qzntmXjw8ex22WBPSgMRLOiAoWZ+ToOO3tH6igzo5tm5VGVCs7rNS3ueEN9Yb8KGD+BPqGY64TjAGPGZZeZ2dEc2JnHz5lcVrkoN47S0fj4zSej9Oz3342ffF//qU7I4t922m8Cs4IT9RMdkZpomNtzsjyLJ3O76bH3/U22Y1fT0/KbvASybkWIcaGvaWVxcpGFsRSomVIzozbTxFlyGdu9ZDiytyDEM7IyemJ1p9FOtY82T880LRgV00Ls3h28kJrhP0U94EJZ+NBnJE7L76Y9mU3rl+/nka7e+JzfyKXMrJd1LEf7ezazmNDxM2NFaQ3y/J8y+mh/ureIwoPfuzJCZucT9PZdJaGuwdpNtxLd84W6drDT6Q3Pf6+cgOrOyPf/Eb68p/8Sfofn/xkGr7ychrNp5IRgwRQA8ZKDontjGBwcEbksPTaGYHwIKUUZODAWTnlqKg5IxxgybIrw4LxPZuepJPZSbrx8I30kd/5WHrife9NAzkj8+lpSnsyQlfIGcFgTidTMyw4I8fHx+lgP79XQ7pk8k1wRtieLs6IyA5D6BqiPEeBmCm+d4RIGAY6Z0tGOcwIo76rADskyH779m2T+eDwMO1qkjGeMChOaoMzQH1cAyzintMfMldDoffNniozZ8TPytwN1UdzH2cENjduMn2G+kxPJ+lwpDPd6Sh971vPpr+SI/L0X34lHc930p7aGao9FxqdRAhtD4/LVhMZ2ZkGCk/T4IyczF5Nj73zkfRrv/XR9OTPvcfsyWR2rrNdLttwOY82Yp6gf5wRnJLcbs+dEbr5oD3jPSMAB/1Ajsj+/r7VtYcemEuS0RwSg9fZVOo6I2YfRfauEfFwOthBvvfKq2l/Zyw7epSGcjqox7hgJFCFYz+GL53xsTZySK6NE3RXOAKJ3unP+xz3weCEjkZDrRUzCTQyZ+R0Pkgv3DlNb771ZHrDrZ9L6eiG1TFn5PRbz6Qvf+6z6fN/+IdpdPKqznrmZozsV3zxaG0SySrZNiw7JKiOZ6qrydQn0kHzpcWnPY4IOzzOUQ4GWB/6jwkeycngmZrz2Wk6FQ5uHKZf+tVfTreefEcaHe3p7ObcblCzyXMVyCaUNKJxgFHB6Tg4wKgcKg81SHsyxBM5K+2dkSD0FLpqJlc4JX0jxPUxzphwI+CHWhlmKTACOCOL9MqdO2mkScWuCMbDsinKmRB6sVGFk86nj/JyNCSLnZWry8yFJTufLr+ZPWXYmb1swEyL7WyhkxPxxoNxWkwW6UBnNoPJMD333efSU196On37699O+8sduxkctyYM8jYSktlokC1kEwg9zgeTdD6/l970yI30ix/+YHri3U+kiU7WuA+Am1rNGUHbxX7YEmRhjBF2n802Ua6PpO4+aM+wF2dn59LR3M6K9/fkjEh2nBFGH/bCTUZPZX0NxFObFzoj+tiTnNLH5OTUnBFzzGQzqcelDNsxU5WFHPnd3V3fZaUBMU1FRowTiBxvH7JY71TofeSqg12Sy7thnLDtaf0YjHbTXdmQl09n6fEn35euv+1nUtq/bjXdGfnud9IzX/hC+us///M0Oj9J3FqDM8ILw7hBi9c8mTOCuTEPnh0Tppr+Wd+UIV1gUsOrZKrbjXdxaDEIlJHFhWPTX4YXeXhkj23XidK33vX2dPMtb0yjXQ0Y7n4/m5oTtvnT5/5k8jE7NJgg23JlIh3sp6PDI8tiooHpjEUq3zMSZGonHTxTdo71cLyITFwfCfo0jizxRhfqveKnJycm++7uvhz9GGWqgfGRHjREzAjTkr2BtXfyujNij4mJ3BlhR4P5zdIoqdVvnBHC8cGODAkGV8slN6/rBGcv7abhdJBeffFu+vtnnk0vvfRK2mXB4Z0J2ShvLUk0lpmdmRw4U6Fsw5iXA5yn8f4wPfaOR9LNh2/YwwA4Iuc6K+YmYHSLk+cUJ3HA5xn2tRl5/aHSmwc8pJSfzmblJGZ/fy8dyHGPxRpi/pjDa6nNJhZcs39A8tnOj/jICHFpajadpsX5JO2NR+Zw4InNZFP8Jmg5LFIEN4GPx3JwNRxCLz5GCPMYsbadV/THP+sR2T2F6tn+2E/LeAPtnPfLSB/7+0dpKg/+TOLsXbuZHnvyg+mht74rpYOjqKvaMrCz27fTVDg9PzeBaZJb15hvMXWcPBd+w+sfcYwAfeRQxpQPZuQDI0VMkTK6r05nabAjZe7tmheL8dnTiGmuqnu7EULbwvMplEn6wBlhTHDp4ljOCAZ2qIlH2o2s138QimOw7v9eJq+MDRHpWgekg5gqGFjGyWg0Ml3U7UD1vAge4br/e5m8hoO8uE5OcEE5VvJRuDc3Svv5uxZjMadacO7eOzG97GhsDHgR3hUgxsexUOuMR1jP5YDs7YzsnqLpUOND/LChUOiWel43tAqVJcfyolyUuCxeyx48ACHzJO+ogh3NkaPDwzTS2Ig2GSW+rjg9aF/6yIOIR4hc6Cx4lFlIH9xftyu7ucdOGZf4lMM8gmqbEWEQJaItqNWuR41HOkLosngxXtxOQMrJheS+23wY7o7S8fXDND5+cxodXzN9QO6M4I7hvQDiP4QoQfvRgb5SraQHIcrj2c4Ekw9vXoCvIVQUHe3W7W8Lr2t8bItNk4kyGJR6F6Ru50Goz8anpq4OamK6APRQ6wKinW5b0P3+72XxaurKS35dJuY75GbDFxRsBWODPBwRvy9i+wkpQw+FNCYMkPTApWH0WltTck1XGV3q4/y431y4iHxJ0VmxwBzBcSes/w/UZ3vwoDyIeFCU65LtoCjkN6tsfDi7ULQVYRB11rUH9X28rBs79JmT2TTWDOI3a7IjklJK/x8tyBLppTrqWwAAAABJRU5ErkJggg==;" parent="1" vertex="1">
                    <mxGeometry x="-597" y="30" width="547" height="361" as="geometry"/>
                </mxCell>
                <mxCell id="JANOWUxKP03fAEAvI6Rn-51" value="" style="endArrow=classic;html=1;rounded=1;fontSize=24;strokeColor=#3700CC;strokeWidth=7;fillColor=#6a00ff;" parent="1" edge="1">
                    <mxGeometry width="50" height="50" relative="1" as="geometry">
                        <mxPoint x="-610" y="170" as="sourcePoint"/>
                        <mxPoint x="-560" y="120" as="targetPoint"/>
                    </mxGeometry>
                </mxCell>
                <mxCell id="JANOWUxKP03fAEAvI6Rn-62" style="edgeStyle=none;rounded=1;orthogonalLoop=1;jettySize=auto;html=1;exitX=0.5;exitY=1;exitDx=0;exitDy=0;entryX=0.5;entryY=0;entryDx=0;entryDy=0;fontSize=24;endArrow=none;endFill=0;strokeColor=#C73500;strokeWidth=7;fillColor=#fa6800;" parent="1" source="JANOWUxKP03fAEAvI6Rn-55" target="JANOWUxKP03fAEAvI6Rn-61" edge="1">
                    <mxGeometry relative="1" as="geometry"/>
                </mxCell>
                <mxCell id="JANOWUxKP03fAEAvI6Rn-55" value="2,0" style="ellipse;whiteSpace=wrap;html=1;aspect=fixed;fontSize=24;fillColor=#f8cecc;strokeColor=#b85450;" parent="1" vertex="1">
                    <mxGeometry y="255" width="80" height="80" as="geometry"/>
                </mxCell>
                <mxCell id="JANOWUxKP03fAEAvI6Rn-56" value="1,1" style="ellipse;whiteSpace=wrap;html=1;aspect=fixed;fontSize=24;fillColor=#fff2cc;strokeColor=#d6b656;" parent="1" vertex="1">
                    <mxGeometry x="160" y="255" width="80" height="80" as="geometry"/>
                </mxCell>
                <mxCell id="JANOWUxKP03fAEAvI6Rn-58" value="4.8" style="text;html=1;align=center;verticalAlign=middle;resizable=0;points=[];autosize=1;strokeColor=none;fillColor=none;fontSize=24;" parent="1" vertex="1">
                    <mxGeometry x="240" y="280" width="50" height="30" as="geometry"/>
                </mxCell>
                <mxCell id="JANOWUxKP03fAEAvI6Rn-60" value="2" style="text;html=1;align=center;verticalAlign=middle;resizable=0;points=[];autosize=1;strokeColor=none;fillColor=none;fontSize=24;" parent="1" vertex="1">
                    <mxGeometry x="-35" y="280" width="30" height="30" as="geometry"/>
                </mxCell>
                <mxCell id="JANOWUxKP03fAEAvI6Rn-66" style="edgeStyle=none;rounded=1;orthogonalLoop=1;jettySize=auto;html=1;exitX=0.5;exitY=1;exitDx=0;exitDy=0;fontSize=24;endArrow=none;endFill=0;strokeColor=#C73500;strokeWidth=7;fillColor=#fa6800;" parent="1" source="JANOWUxKP03fAEAvI6Rn-61" target="JANOWUxKP03fAEAvI6Rn-64" edge="1">
                    <mxGeometry relative="1" as="geometry"/>
                </mxCell>
                <mxCell id="JANOWUxKP03fAEAvI6Rn-61" value="3,0" style="ellipse;whiteSpace=wrap;html=1;aspect=fixed;fontSize=24;fillColor=#fff2cc;strokeColor=#d6b656;" parent="1" vertex="1">
                    <mxGeometry y="370" width="80" height="80" as="geometry"/>
                </mxCell>
                <mxCell id="JANOWUxKP03fAEAvI6Rn-63" value="2" style="text;html=1;align=center;verticalAlign=middle;resizable=0;points=[];autosize=1;strokeColor=none;fillColor=none;fontSize=24;" parent="1" vertex="1">
                    <mxGeometry x="-35" y="395" width="30" height="30" as="geometry"/>
                </mxCell>
                <mxCell id="JANOWUxKP03fAEAvI6Rn-68" style="edgeStyle=none;rounded=1;orthogonalLoop=1;jettySize=auto;html=1;exitX=0.5;exitY=1;exitDx=0;exitDy=0;entryX=0.5;entryY=0;entryDx=0;entryDy=0;fontSize=24;endArrow=none;endFill=0;strokeColor=#C73500;strokeWidth=7;fillColor=#fa6800;" parent="1" source="JANOWUxKP03fAEAvI6Rn-64" target="JANOWUxKP03fAEAvI6Rn-67" edge="1">
                    <mxGeometry relative="1" as="geometry"/>
                </mxCell>
                <mxCell id="JANOWUxKP03fAEAvI6Rn-64" value="4,0" style="ellipse;whiteSpace=wrap;html=1;aspect=fixed;fontSize=24;fillColor=#fff2cc;strokeColor=#d6b656;" parent="1" vertex="1">
                    <mxGeometry y="470" width="80" height="80" as="geometry"/>
                </mxCell>
                <mxCell id="JANOWUxKP03fAEAvI6Rn-65" value="0.8" style="text;html=1;align=center;verticalAlign=middle;resizable=0;points=[];autosize=1;strokeColor=none;fillColor=none;fontSize=24;" parent="1" vertex="1">
                    <mxGeometry x="-50" y="495" width="50" height="30" as="geometry"/>
                </mxCell>
                <mxCell id="JANOWUxKP03fAEAvI6Rn-71" style="edgeStyle=none;rounded=1;orthogonalLoop=1;jettySize=auto;html=1;exitX=0.5;exitY=1;exitDx=0;exitDy=0;entryX=0.5;entryY=0;entryDx=0;entryDy=0;fontSize=24;endArrow=none;endFill=0;strokeColor=#C73500;strokeWidth=7;fillColor=#fa6800;" parent="1" source="JANOWUxKP03fAEAvI6Rn-67" target="JANOWUxKP03fAEAvI6Rn-70" edge="1">
                    <mxGeometry relative="1" as="geometry"/>
                </mxCell>
                <mxCell id="JANOWUxKP03fAEAvI6Rn-67" value="4,1" style="ellipse;whiteSpace=wrap;html=1;aspect=fixed;fontSize=24;fillColor=#fff2cc;strokeColor=#d6b656;" parent="1" vertex="1">
                    <mxGeometry y="580" width="80" height="80" as="geometry"/>
                </mxCell>
                <mxCell id="JANOWUxKP03fAEAvI6Rn-69" value="0.8" style="text;html=1;align=center;verticalAlign=middle;resizable=0;points=[];autosize=1;strokeColor=none;fillColor=none;fontSize=24;" parent="1" vertex="1">
                    <mxGeometry x="-48" y="595" width="50" height="30" as="geometry"/>
                </mxCell>
                <mxCell id="JANOWUxKP03fAEAvI6Rn-76" style="edgeStyle=none;rounded=1;orthogonalLoop=1;jettySize=auto;html=1;exitX=0;exitY=1;exitDx=0;exitDy=0;fontSize=24;endArrow=none;endFill=0;strokeColor=#000000;strokeWidth=7;" parent="1" source="JANOWUxKP03fAEAvI6Rn-70" target="JANOWUxKP03fAEAvI6Rn-75" edge="1">
                    <mxGeometry relative="1" as="geometry"/>
                </mxCell>
                <mxCell id="JANOWUxKP03fAEAvI6Rn-77" style="edgeStyle=none;rounded=1;orthogonalLoop=1;jettySize=auto;html=1;exitX=1;exitY=1;exitDx=0;exitDy=0;fontSize=24;endArrow=none;endFill=0;strokeColor=#C73500;strokeWidth=7;fillColor=#fa6800;" parent="1" source="JANOWUxKP03fAEAvI6Rn-70" target="JANOWUxKP03fAEAvI6Rn-73" edge="1">
                    <mxGeometry relative="1" as="geometry"/>
                </mxCell>
                <mxCell id="JANOWUxKP03fAEAvI6Rn-70" value="4,2" style="ellipse;whiteSpace=wrap;html=1;aspect=fixed;fontSize=24;fillColor=#fff2cc;strokeColor=#d6b656;" parent="1" vertex="1">
                    <mxGeometry y="675" width="80" height="80" as="geometry"/>
                </mxCell>
                <mxCell id="JANOWUxKP03fAEAvI6Rn-72" value="0.8" style="text;html=1;align=center;verticalAlign=middle;resizable=0;points=[];autosize=1;strokeColor=none;fillColor=none;fontSize=24;" parent="1" vertex="1">
                    <mxGeometry x="-45" y="700" width="50" height="30" as="geometry"/>
                </mxCell>
                <mxCell id="JANOWUxKP03fAEAvI6Rn-73" value="&lt;b&gt;4,3&lt;/b&gt;" style="ellipse;whiteSpace=wrap;html=1;aspect=fixed;fontSize=24;fillColor=#FFF2Cb;strokeColor=#3333FF;gradientColor=none;strokeWidth=6;perimeterSpacing=0;" parent="1" vertex="1">
                    <mxGeometry x="80" y="800" width="80" height="80" as="geometry"/>
                </mxCell>
                <mxCell id="JANOWUxKP03fAEAvI6Rn-75" value="5,2" style="ellipse;whiteSpace=wrap;html=1;aspect=fixed;fontSize=24;fillColor=#fff2cc;strokeColor=#d6b656;" parent="1" vertex="1">
                    <mxGeometry x="-80" y="800" width="80" height="80" as="geometry"/>
                </mxCell>
                <mxCell id="JANOWUxKP03fAEAvI6Rn-78" value="0,8" style="text;html=1;align=center;verticalAlign=middle;resizable=0;points=[];autosize=1;strokeColor=none;fillColor=none;fontSize=24;" parent="1" vertex="1">
                    <mxGeometry x="160" y="825" width="50" height="30" as="geometry"/>
                </mxCell>
                <mxCell id="JANOWUxKP03fAEAvI6Rn-79" value="4,8" style="text;html=1;align=center;verticalAlign=middle;resizable=0;points=[];autosize=1;strokeColor=none;fillColor=none;fontSize=24;" parent="1" vertex="1">
                    <mxGeometry x="-130" y="825" width="50" height="30" as="geometry"/>
                </mxCell>
                <mxCell id="2" value="Terreno" style="swimlane;fontStyle=1;align=center;verticalAlign=top;childLayout=stackLayout;horizontal=1;startSize=26;horizontalStack=0;resizeParent=1;resizeParentMax=0;resizeLast=0;collapsible=1;marginBottom=0;" vertex="1" parent="1">
                    <mxGeometry x="1010" y="267" width="190" height="164" as="geometry"/>
                </mxCell>
                <mxCell id="3" value="- int fila" style="text;strokeColor=none;fillColor=none;align=left;verticalAlign=top;spacingLeft=4;spacingRight=4;overflow=hidden;rotatable=0;points=[[0,0.5],[1,0.5]];portConstraint=eastwest;" vertex="1" parent="2">
                    <mxGeometry y="26" width="190" height="26" as="geometry"/>
                </mxCell>
                <mxCell id="8" value="- columna" style="text;strokeColor=none;fillColor=none;align=left;verticalAlign=top;spacingLeft=4;spacingRight=4;overflow=hidden;rotatable=0;points=[[0,0.5],[1,0.5]];portConstraint=eastwest;" vertex="1" parent="2">
                    <mxGeometry y="52" width="190" height="26" as="geometry"/>
                </mxCell>
                <mxCell id="9" value="- ArrayList&lt;Terreno&gt; hijos" style="text;strokeColor=none;fillColor=none;align=left;verticalAlign=top;spacingLeft=4;spacingRight=4;overflow=hidden;rotatable=0;points=[[0,0.5],[1,0.5]];portConstraint=eastwest;" vertex="1" parent="2">
                    <mxGeometry y="78" width="190" height="26" as="geometry"/>
                </mxCell>
                <mxCell id="11" style="edgeStyle=none;html=1;exitX=1;exitY=0.5;exitDx=0;exitDy=0;entryX=0.5;entryY=0;entryDx=0;entryDy=0;" edge="1" parent="2" source="10" target="2">
                    <mxGeometry relative="1" as="geometry">
                        <Array as="points">
                            <mxPoint x="240" y="117"/>
                            <mxPoint x="240" y="-57"/>
                            <mxPoint x="95" y="-57"/>
                        </Array>
                    </mxGeometry>
                </mxCell>
                <mxCell id="10" value="- ArrayList&lt;Terreno&gt; obstaculos" style="text;strokeColor=none;fillColor=none;align=left;verticalAlign=top;spacingLeft=4;spacingRight=4;overflow=hidden;rotatable=0;points=[[0,0.5],[1,0.5]];portConstraint=eastwest;" vertex="1" parent="2">
                    <mxGeometry y="104" width="190" height="26" as="geometry"/>
                </mxCell>
                <mxCell id="4" value="" style="line;strokeWidth=1;fillColor=none;align=left;verticalAlign=middle;spacingTop=-1;spacingLeft=3;spacingRight=3;rotatable=0;labelPosition=right;points=[];portConstraint=eastwest;" vertex="1" parent="2">
                    <mxGeometry y="130" width="190" height="8" as="geometry"/>
                </mxCell>
                <mxCell id="5" value="+ method(type): type" style="text;strokeColor=none;fillColor=none;align=left;verticalAlign=top;spacingLeft=4;spacingRight=4;overflow=hidden;rotatable=0;points=[[0,0.5],[1,0.5]];portConstraint=eastwest;" vertex="1" parent="2">
                    <mxGeometry y="138" width="190" height="26" as="geometry"/>
                </mxCell>
                <mxCell id="6" value="E" style="text;html=1;strokeColor=none;fillColor=none;align=center;verticalAlign=middle;whiteSpace=wrap;rounded=0;" vertex="1" parent="1">
                    <mxGeometry x="140" y="90" width="60" height="30" as="geometry"/>
                </mxCell>
                <mxCell id="7" value="N" style="text;html=1;strokeColor=none;fillColor=none;align=center;verticalAlign=middle;whiteSpace=wrap;rounded=0;" vertex="1" parent="1">
                    <mxGeometry x="405" y="95" width="60" height="30" as="geometry"/>
                </mxCell>
                <mxCell id="12" value="4" style="text;html=1;align=center;verticalAlign=middle;resizable=0;points=[];autosize=1;strokeColor=none;fillColor=none;" vertex="1" parent="1">
                    <mxGeometry x="1080" y="240" width="20" height="20" as="geometry"/>
                </mxCell>
            </root>
        </mxGraphModel>
    </diagram>
</mxfile>